<?xml version="1.0" encoding="UTF-8"?>
<svg width="72px" height="72px" viewBox="0 0 72 72" version="1.1" xmlns="http://www.w3.org/2000/svg" xmlns:xlink="http://www.w3.org/1999/xlink">
    <title>avtobus_i_72</title>
    <g id="avtobus_i_72" stroke="none" stroke-width="1" fill="none" fill-rule="evenodd">
        <g id="transport/72/bounding-i" fill="#EC0003">
            <rect id="transport/72/bounding" x="0" y="0" width="72" height="72" rx="15"></rect>
        </g>
        <g id="Page-1" transform="translate(16.000000, 11.000000)" fill="#FFFFFF">
            <path d="M0,6.00023809 L0,25.0002381 L5,25.0002381 L5,8.00023809 L36,8.00023809 L36,25.0002381 L41,25.0002381 L41,6.00023809 C41,5.77047619 34.1771176,0.000238094606 21,0.000238094606 C6.83011765,0.000238094606 0,5.77047619 0,6.00023809" id="Fill-1"></path>
            <path d="M6.11111111,50 L0,50 L0,44 L11,44 L11,45.2 C11,47.8508 8.811,50 6.11111111,50" id="Fill-3"></path>
            <path d="M34.8888889,50 L41,50 L41,44 L30,44 L30,45.2 C30,47.8508 32.189,50 34.8888889,50" id="Fill-5"></path>
            <path d="M32.5,37 C30.5668333,37 29,35.4331667 29,33.5 C29,31.5668333 30.5668333,30 32.5,30 C34.4331667,30 36,31.5668333 36,33.5 C36,35.4331667 34.4331667,37 32.5,37 L32.5,37 Z M8.5,37 C6.56683333,37 5,35.4331667 5,33.5 C5,31.5668333 6.56683333,30 8.5,30 C10.4331667,30 12,31.5668333 12,33.5 C12,35.4331667 10.4331667,37 8.5,37 L8.5,37 Z M0,44 L41,44 L41,25 L0,25 L0,44 Z" id="Fill-7"></path>
        </g>
    </g>
</svg>