<svg width="92" height="92" viewBox="0 0 92 92" fill="none" xmlns="http://www.w3.org/2000/svg">
<g filter="url(#filter0_d)">
<path d="M46 84C66.9868 84 84 66.9868 84 46C84 25.0132 66.9868 8 46 8C25.0132 8 8 25.0132 8 46C8 66.9868 25.0132 84 46 84Z" fill="#F28B3D"/>
</g>
<path d="M48.9586 27.3673L51.8868 16.4391L57.6824 17.992L54.7542 28.9202L48.9586 27.3673Z" fill="white"/>
<path d="M32.1213 31.8787L24.1213 23.8787L19.8787 28.1214L27.8787 36.1214L32.1213 31.8787Z" fill="white"/>
<path d="M13.9918 38.3177L24.9201 41.2459L23.3671 47.0415L12.4389 44.1132L13.9918 38.3177Z" fill="white"/>
<path d="M67.08 41.246L78.0082 38.3178L79.5611 44.1133L68.6329 47.0415L67.08 41.246Z" fill="white"/>
<path d="M59.8787 31.8789L67.8787 23.8789L72.1213 28.1215L64.1213 36.1215L59.8787 31.8789Z" fill="white"/>
<path d="M34.3176 17.992L37.2458 28.9202L43.0414 27.3673L40.1132 16.4391L34.3176 17.992Z" fill="white"/>
<path d="M63.2956 55.003C63.7542 53.4146 64 51.736 64 50C64 40.0589 55.9411 32 46 32C36.0589 32 28 40.0589 28 50C28 51.736 28.2458 53.4146 28.7044 55.0029C30.5583 55.4435 32.351 56.1733 34.0022 57.1925C34.6664 57.6025 35.7337 57.6025 36.3978 57.1925C42.2137 53.6025 49.7864 53.6025 55.6021 57.1925C56.2663 57.6025 57.3337 57.6025 57.9978 57.1925C59.649 56.1733 61.4417 55.4435 63.2956 55.003Z" fill="white"/>
<path d="M28.2242 66.5528C25.9501 65.1491 22.8499 65.1491 20.5758 66.5528L17.4242 61.4472C21.6301 58.8509 27.1699 58.8509 31.3758 61.4472C33.6499 62.8509 36.7501 62.8509 39.0242 61.4472C43.2301 58.8509 48.7699 58.851 52.9758 61.4472C55.2499 62.8509 58.3501 62.8509 60.6242 61.4472C64.8301 58.8509 70.3699 58.851 74.5758 61.4472L71.4242 66.5528C69.1501 65.1491 66.0499 65.1491 63.7758 66.5528C59.5699 69.1491 54.0301 69.1491 49.8242 66.5528C47.5501 65.1491 44.4499 65.1491 42.1758 66.5528C37.9699 69.1491 32.4301 69.149 28.2242 66.5528Z" fill="white"/>
<defs>
<filter id="filter0_d" x="1" y="1" width="90" height="90" filterUnits="userSpaceOnUse" color-interpolation-filters="sRGB">
<feFlood flood-opacity="0" result="BackgroundImageFix"/>
<feColorMatrix in="SourceAlpha" type="matrix" values="0 0 0 0 0 0 0 0 0 0 0 0 0 0 0 0 0 0 127 0" result="hardAlpha"/>
<feOffset/>
<feGaussianBlur stdDeviation="3.5"/>
<feColorMatrix type="matrix" values="0 0 0 0 0 0 0 0 0 0 0 0 0 0 0 0 0 0 0.15 0"/>
<feBlend mode="normal" in2="BackgroundImageFix" result="effect1_dropShadow"/>
<feBlend mode="normal" in="SourceGraphic" in2="effect1_dropShadow" result="shape"/>
</filter>
</defs>
</svg>
