<?xml version="1.0" encoding="UTF-8"?>
<svg width="72px" height="72px" viewBox="0 0 72 72" version="1.1" xmlns="http://www.w3.org/2000/svg" xmlns:xlink="http://www.w3.org/1999/xlink">
    <title>electrichka_i_72</title>
    <g id="electrichka_i_72" stroke="none" stroke-width="1" fill="none" fill-rule="evenodd">
        <g id="transport/72/bounding-i" fill="#EC0003">
            <rect id="transport/72/bounding" x="0" y="0" width="72" height="72" rx="15"></rect>
        </g>
        <g id="Page-1" transform="translate(15.000000, 4.000000)" fill="#FFFFFF">
            <polygon id="Fill-1" points="9.90909091 55 4 63 11.0909091 63 17 55"></polygon>
            <polygon id="Fill-2" points="25 55 30.9090909 63 38 63 32.0909091 55"></polygon>
            <path d="M21.5555556,14 C18.2385714,14 16,11.7614286 16,9.55555556 C16,6.23857143 18.2385714,4 21.5555556,4 C23.7614286,4 26,6.23857143 26,9.55555556 C26,11.7614286 23.7614286,14 21.5555556,14 M21.5294118,0 C16.0294286,0 12,4.02942857 12,9.52941176 C12,13.9705714 16.0294286,18 21.5294118,18 C25.9705714,18 30,13.9705714 30,9.52941176 C30,4.02942857 25.9705714,0 21.5294118,0" id="Fill-3"></path>
            <polygon id="Fill-5" points="42 34 37 34 37 18 19 18 25 15 27 8 42 11"></polygon>
            <polygon id="Fill-5" transform="translate(11.500000, 21.000000) scale(-1, 1) translate(-11.500000, -21.000000) " points="23 34 18 34 18 18 0 18 6 15 8 8 23 11"></polygon>
            <path d="M0,34 L0,44.9285714 C0,48.2812143 2.76582353,51 6.17647059,51 L35.8235294,51 C39.2341765,51 42,48.2812143 42,44.9285714 L42,34 L0,34 Z" id="Fill-9"></path>
        </g>
    </g>
</svg>