<?xml version="1.0" encoding="UTF-8"?>
<svg width="36px" height="36px" viewBox="0 0 36 36" version="1.1" xmlns="http://www.w3.org/2000/svg" xmlns:xlink="http://www.w3.org/1999/xlink">
    <title>home_day</title>
    <g id="favorite" stroke="none" stroke-width="1" fill="none" fill-rule="evenodd">
        <g id="icons-finale!" transform="translate(-211.000000, -214.000000)">
            <g id="home_day" transform="translate(211.000000, 214.000000)">
                <path d="M12.7,0 L23.3,0 C30.3140163,0 36,5.68598368 36,12.7 L36,23.3 C36,30.3140163 30.3140163,36 23.3,36 L12.7,36 C5.68598368,36 -5.68434189e-14,30.3140163 -5.68434189e-14,23.3 L-5.68434189e-14,12.7 C-5.68434189e-14,5.68598368 5.68598368,0 12.7,0 Z" id="Rectangle" fill="#F06600" opacity="0.95"></path>
                <path d="M21.6363636,25.2718596 L21.6363636,18.9082232 L14.3636364,18.9082232 L14.3636364,25.2718596 L10.7498108,25.2718596 L10.7272727,17.0909091 L8,17.0909091 L8,15.2253552 L17.8506943,8.02528824 C17.9005789,7.99299116 18.008512,7.99299116 18.0462953,8.01755587 L28,15.2873533 L28,17.0909091 L25.2727273,17.0909091 L25.2952654,25.2718596 L21.6363636,25.2718596 Z M19.8181818,25.2718596 L16.1818182,25.2718596 L16.1818182,20.7264051 L19.8181818,20.7264051 L19.8181818,25.2718596 Z" id="Shape" fill="#FFFFFF" fill-rule="nonzero"></path>
            </g>
        </g>
    </g>
</svg>