<?xml version="1.0" encoding="UTF-8"?>
<svg width="36px" height="36px" viewBox="0 0 36 36" version="1.1" xmlns="http://www.w3.org/2000/svg" xmlns:xlink="http://www.w3.org/1999/xlink">
    <title>job_day</title>
    <g id="favorite" stroke="none" stroke-width="1" fill="none" fill-rule="evenodd">
        <g id="icons-finale!" transform="translate(-386.000000, -214.000000)">
            <g id="job_day" transform="translate(386.000000, 214.000000)">
                <path d="M12.7,0 L23.3,0 C30.3140163,0 36,5.68598368 36,12.7 L36,23.3 C36,30.3140163 30.3140163,36 23.3,36 L12.7,36 C5.68598368,36 0,30.3140163 0,23.3 L0,12.7 C0,5.68598368 5.68598368,0 12.7,0 Z" id="Rectangle" fill="#F06600" opacity="0.95"></path>
                <path d="M17.1,18 L17.1,19.8 L18.9,19.8 L18.9,18 L27,18 L27,25.2 L9,25.2 L9,18 L17.1,18 Z M20.7,10.8 L15.3,10.8 L15.3,12.6 L13.5,12.6 L13.5,10.8 C13.5,9.80588745 14.3058875,9 15.3,9 L20.7,9 C21.6941125,9 22.5,9.80588745 22.5,10.8 L22.5,12.6 L27,12.6 L27,16.2 L9,16.2 L9,12.6 L20.7,12.6 L20.7,10.8 Z" id="Combined-Shape" fill="#FFFFFF" fill-rule="nonzero"></path>
            </g>
        </g>
    </g>
</svg>