<svg width="18" height="18" viewBox="0 0 18 18" fill="none" xmlns="http://www.w3.org/2000/svg">
<path d="M2.34848 9.57387C2.5372 8.93694 3.12238 8.5 3.78668 8.5H15.9863C16.9904 8.5 17.711 9.46733 17.4236 10.4294L15.631 16.4294C15.4412 17.0647 14.8568 17.5 14.1937 17.5H2.0089C1.00624 17.5 0.285861 16.5352 0.570706 15.5739L2.34848 9.57387Z" fill="#FAA400" stroke="white" stroke-linejoin="round"/>
<path d="M12.4113 14.7528V10.3555H10.4198V11.2491H11.4351V14.7528H10.3417V15.6464H13.2649L13.6442 14.7528H12.4113Z" fill="white"/>
<path d="M8.98046 11.102C8.48397 10.5952 7.80337 10.35 6.95542 10.35H4.53987L4.29999 11.2273H5.16468V15.6409H6.95542C7.80337 15.6409 8.48397 15.3957 8.98046 14.8999C9.47138 14.3986 9.71127 13.7665 9.71127 13.0036C9.71127 12.2408 9.47138 11.6033 8.98046 11.102ZM8.17714 11.6904C8.5007 11.9738 8.67364 12.4043 8.67364 12.9982C8.67364 13.6085 8.5007 14.0389 8.17156 14.3277C7.83684 14.6165 7.41845 14.7691 6.89963 14.7691H6.15767V11.2382H6.89963C7.42402 11.2382 7.84242 11.3962 8.17714 11.6904Z" fill="white"/>
</svg>
