<svg width="18" height="18" viewBox="0 0 18 18" fill="none" xmlns="http://www.w3.org/2000/svg">
<path d="M2.34848 9.57387C2.5372 8.93694 3.12238 8.5 3.78668 8.5H15.9863C16.9904 8.5 17.711 9.46733 17.4236 10.4294L15.631 16.4294C15.4412 17.0647 14.8568 17.5 14.1937 17.5H2.0089C1.00624 17.5 0.285861 16.5352 0.570706 15.5739L2.34848 9.57387Z" fill="#E74182" stroke="white" stroke-linejoin="round"/>
<path d="M11.516 14.7738L12.3438 13.9622C12.7308 13.5805 13.0372 13.2419 13.2522 12.9409C13.4726 12.6184 13.5855 12.2797 13.5855 11.9142C13.5855 11.5164 13.4296 11.1455 13.1232 10.8338C12.8115 10.5059 12.3653 10.35 11.8117 10.35C11.4247 10.35 11.0645 10.436 10.7366 10.6026C10.4249 10.7693 10.1722 10.9413 9.99484 11.1294L9.91959 11.21L10.5377 11.8282L10.6184 11.7529C10.7581 11.6239 10.9301 11.5057 11.1451 11.3982C11.344 11.2907 11.5644 11.2315 11.8117 11.2315C12.0536 11.2315 12.2363 11.2961 12.3922 11.4304C12.5373 11.5594 12.618 11.7314 12.618 11.9518C12.618 12.1507 12.5427 12.3603 12.3868 12.5861C12.2256 12.8119 11.9138 13.1666 11.4462 13.6343L10.14 14.9243V15.65H13.5586L13.8811 14.7685C13.8811 14.7738 11.516 14.7738 11.516 14.7738Z" fill="white"/>
<path d="M8.83047 11.102C8.33397 10.5952 7.65338 10.35 6.80543 10.35H4.38988L4.14999 11.2273H5.01468V15.6409H6.80543C7.65338 15.6409 8.33397 15.3957 8.83047 14.8999C9.32139 14.3986 9.56127 13.7665 9.56127 13.0036C9.56127 12.2408 9.32139 11.6033 8.83047 11.102ZM8.02715 11.6904C8.35071 11.9738 8.52364 12.4043 8.52364 12.9982C8.52364 13.6085 8.35071 14.0389 8.02157 14.3277C7.68685 14.6165 7.26845 14.7691 6.74964 14.7691H6.00768V11.2382H6.74964C7.27403 11.2382 7.69243 11.3962 8.02715 11.6904Z" fill="white"/>
</svg>
