<svg width="33" height="33" viewBox="0 0 33 33" fill="none" xmlns="http://www.w3.org/2000/svg">
<g clip-path="url(#clip0)">
<path d="M32.5 26C32.5 29.5899 29.5899 32.5 26 32.5C22.4101 32.5 19.5 29.5899 19.5 26C19.5 22.4101 22.4101 19.5 26 19.5C29.5899 19.5 32.5 22.4101 32.5 26Z" fill="#8A4935" stroke="white"/>
<path d="M26.11 25.0328C26.487 25.0328 26.8234 25.1053 27.1192 25.2503C27.415 25.3953 27.647 25.607 27.8152 25.8854C27.9892 26.1638 28.0762 26.5089 28.0762 26.9207C28.0762 27.5935 27.8674 28.1242 27.4498 28.5128C27.0322 28.8956 26.4145 29.087 25.5967 29.087C25.2719 29.087 24.9645 29.058 24.6745 29C24.3903 28.942 24.1409 28.8579 23.9263 28.7477V27.6167C24.1409 27.7269 24.399 27.8226 24.7006 27.9038C25.0022 27.9792 25.2864 28.0169 25.5532 28.0169C25.9418 28.0169 26.2376 27.9386 26.4406 27.782C26.6494 27.6196 26.7538 27.3702 26.7538 27.0338C26.7538 26.4074 26.3391 26.0942 25.5097 26.0942C25.3473 26.0942 25.1791 26.1116 25.0051 26.1464C24.8311 26.1754 24.6861 26.2044 24.5701 26.2334L24.0481 25.955L24.283 22.7882H27.6499V23.9018H25.4314L25.3183 25.1198C25.4169 25.1024 25.5213 25.085 25.6315 25.0676C25.7475 25.0444 25.907 25.0328 26.11 25.0328Z" fill="white"/>
<path d="M11.5651 20.4947L9.49127 24.036L7.3704 20.487C7.17516 20.1603 6.8114 19.9728 6.43203 20.0032C6.05265 20.0336 5.72345 20.2768 5.58279 20.6304L2.35353 28.75H2C1.44772 28.75 1 29.1977 1 29.75V31C1 31.5523 1.44772 32 2 32H7.304H9.5H11.696H14.348H17C17.5523 32 18 31.5523 18 31V29.75C18 29.1977 17.5523 28.75 17 28.75H16.6422L13.355 20.625C13.2121 20.2716 12.8807 20.0303 12.5006 20.0026C12.1205 19.975 11.7577 20.1658 11.5651 20.4947Z" fill="white" stroke="white" stroke-width="2" stroke-linejoin="round"/>
<path d="M15.968 29.75L12.428 21L9.5 26L6.512 21L3.032 29.75H2V31H7.304V29.75H6.512L7.256 27.4266L9.5 30.8991L11.696 27.4266L12.488 29.75H11.696V31H17V29.75H15.968Z" fill="#F24D4F"/>
</g>
<defs>
<clipPath id="clip0">
<rect width="33" height="33" fill="white"/>
</clipPath>
</defs>
</svg>
