<svg width="33" height="33" viewBox="0 0 33 33" fill="none" xmlns="http://www.w3.org/2000/svg">
<path d="M32.5 26C32.5 29.5899 29.5899 32.5 26 32.5C22.4101 32.5 19.5 29.5899 19.5 26C19.5 22.4101 22.4101 19.5 26 19.5C29.5899 19.5 32.5 22.4101 32.5 26Z" fill="#8CE830" stroke="white"/>
<path d="M24.0931 29H22.7794V25.4069C22.7794 25.2561 22.7823 25.0589 22.7881 24.8153C22.7997 24.5717 22.8084 24.3571 22.8142 24.1715C22.7852 24.2063 22.7214 24.2701 22.6228 24.3629C22.53 24.4499 22.443 24.5282 22.3618 24.5978L21.6484 25.172L21.0133 24.3803L23.0143 22.7882H24.0931V29ZM30.1332 25.8941C30.1332 26.5611 30.0607 27.1324 29.9157 27.608C29.7765 28.0836 29.5474 28.449 29.2284 28.7042C28.9152 28.9594 28.4918 29.087 27.9582 29.087C27.21 29.087 26.6619 28.8057 26.3139 28.2431C25.9659 27.6747 25.7919 26.8917 25.7919 25.8941C25.7919 25.2213 25.8615 24.6471 26.0007 24.1715C26.1399 23.6959 26.369 23.3305 26.688 23.0753C27.007 22.8201 27.4304 22.6925 27.9582 22.6925C28.7006 22.6925 29.2487 22.9738 29.6025 23.5364C29.9563 24.099 30.1332 24.8849 30.1332 25.8941ZM27.0969 25.8941C27.0969 26.6017 27.1578 27.1353 27.2796 27.4949C27.4014 27.8487 27.6276 28.0256 27.9582 28.0256C28.283 28.0256 28.5092 27.8487 28.6368 27.4949C28.7644 27.1411 28.8282 26.6075 28.8282 25.8941C28.8282 25.1865 28.7644 24.6529 28.6368 24.2933C28.5092 23.9337 28.283 23.7539 27.9582 23.7539C27.6276 23.7539 27.4014 23.9337 27.2796 24.2933C27.1578 24.6529 27.0969 25.1865 27.0969 25.8941Z" fill="#565656" fill-opacity="0.8"/>
<path d="M11.5651 20.4947L9.49127 24.036L7.3704 20.487C7.17516 20.1603 6.8114 19.9728 6.43203 20.0032C6.05265 20.0336 5.72345 20.2768 5.58279 20.6304L2.35353 28.75H2C1.44772 28.75 1 29.1977 1 29.75V31C1 31.5523 1.44772 32 2 32H7.304H9.5H11.696H14.348H17C17.5523 32 18 31.5523 18 31V29.75C18 29.1977 17.5523 28.75 17 28.75H16.6422L13.355 20.625C13.2121 20.2716 12.8807 20.0303 12.5006 20.0026C12.1205 19.975 11.7577 20.1658 11.5651 20.4947Z" fill="white" stroke="white" stroke-width="2" stroke-linejoin="round"/>
<path d="M15.968 29.75L12.428 21L9.5 26L6.512 21L3.032 29.75H2V31H7.304V29.75H6.512L7.256 27.4266L9.5 30.8991L11.696 27.4266L12.488 29.75H11.696V31H17V29.75H15.968Z" fill="#F24D4F"/>
</svg>
