<svg width="33" height="33" viewBox="0 0 33 33" fill="none" xmlns="http://www.w3.org/2000/svg">
<g clip-path="url(#clip0)">
<path d="M32.5 26C32.5 29.5899 29.5899 32.5 26 32.5C22.4101 32.5 19.5 29.5899 19.5 26C19.5 22.4101 22.4101 19.5 26 19.5C29.5899 19.5 32.5 22.4101 32.5 26Z" fill="#F78725" stroke="white"/>
<path d="M23.8045 26.3639C23.8045 26.0043 23.8306 25.6505 23.8828 25.3025C23.935 24.9545 24.0249 24.6268 24.1525 24.3194C24.2859 24.0062 24.4686 23.7307 24.7006 23.4929C24.9384 23.2493 25.2371 23.0608 25.5967 22.9274C25.9621 22.7882 26.4029 22.7186 26.9191 22.7186C27.0409 22.7186 27.183 22.7244 27.3454 22.736C27.5078 22.7418 27.6441 22.7563 27.7543 22.7795V23.8322C27.6441 23.8032 27.5223 23.7829 27.3889 23.7713C27.2613 23.7539 27.1337 23.7452 27.0061 23.7452C26.4899 23.7452 26.0897 23.8264 25.8055 23.9888C25.5271 24.1512 25.3299 24.3803 25.2139 24.6761C25.0979 24.9661 25.0312 25.3025 25.0138 25.6853H25.066C25.182 25.4823 25.3473 25.3112 25.5619 25.172C25.7823 25.0328 26.0665 24.9632 26.4145 24.9632C26.9597 24.9632 27.3918 25.1343 27.7108 25.4765C28.0298 25.8187 28.1893 26.303 28.1893 26.9294C28.1893 27.6022 27.9979 28.13 27.6151 28.5128C27.2381 28.8956 26.7248 29.087 26.0752 29.087C25.6518 29.087 25.269 28.9913 24.9268 28.7999C24.5846 28.6027 24.312 28.304 24.109 27.9038C23.906 27.4978 23.8045 26.9845 23.8045 26.3639ZM26.0491 28.0343C26.3043 28.0343 26.5131 27.9473 26.6755 27.7733C26.8379 27.5935 26.9191 27.318 26.9191 26.9468C26.9191 26.6452 26.8495 26.4074 26.7103 26.2334C26.5711 26.0594 26.3594 25.9724 26.0752 25.9724C25.8838 25.9724 25.7156 26.0159 25.5706 26.1029C25.4256 26.1841 25.3125 26.2914 25.2313 26.4248C25.1501 26.5582 25.1095 26.6945 25.1095 26.8337C25.1095 27.0251 25.1443 27.2136 25.2139 27.3992C25.2835 27.579 25.3879 27.7298 25.5271 27.8516C25.6721 27.9734 25.8461 28.0343 26.0491 28.0343Z" fill="white"/>
<path d="M11.5651 20.4947L9.49127 24.036L7.3704 20.487C7.17516 20.1603 6.8114 19.9728 6.43203 20.0032C6.05265 20.0336 5.72345 20.2768 5.58279 20.6304L2.35353 28.75H2C1.44772 28.75 1 29.1977 1 29.75V31C1 31.5523 1.44772 32 2 32H7.304H9.5H11.696H14.348H17C17.5523 32 18 31.5523 18 31V29.75C18 29.1977 17.5523 28.75 17 28.75H16.6422L13.355 20.625C13.2121 20.2716 12.8807 20.0303 12.5006 20.0026C12.1205 19.975 11.7577 20.1658 11.5651 20.4947Z" fill="white" stroke="white" stroke-width="2" stroke-linejoin="round"/>
<path d="M15.968 29.75L12.428 21L9.5 26L6.512 21L3.032 29.75H2V31H7.304V29.75H6.512L7.256 27.4266L9.5 30.8991L11.696 27.4266L12.488 29.75H11.696V31H17V29.75H15.968Z" fill="#F24D4F"/>
</g>
<defs>
<clipPath id="clip0">
<rect width="33" height="33" fill="white"/>
</clipPath>
</defs>
</svg>
