<svg width="33" height="33" viewBox="0 0 33 33" fill="none" xmlns="http://www.w3.org/2000/svg">
<g clip-path="url(#clip0)">
<path d="M32.5 26C32.5 29.5899 29.5899 32.5 26 32.5C22.4101 32.5 19.5 29.5899 19.5 26C19.5 22.4101 22.4101 19.5 26 19.5C29.5899 19.5 32.5 22.4101 32.5 26Z" fill="#2DC4F2" stroke="white"/>
<path d="M28.1285 27.7124H27.3803V29H26.1014V27.7124H23.4479V26.7989L26.171 22.7882H27.3803V26.6945H28.1285V27.7124ZM26.1014 25.6418C26.1014 25.5084 26.1043 25.346 26.1101 25.1546C26.1159 24.9632 26.1217 24.7863 26.1275 24.6239C26.1391 24.4557 26.1478 24.3455 26.1536 24.2933H26.1188C26.0666 24.4093 26.0115 24.5224 25.9535 24.6326C25.8955 24.7428 25.8259 24.8559 25.7447 24.9719L24.605 26.6945H26.1014V25.6418Z" fill="white"/>
<path d="M11.5651 20.4947L9.49127 24.036L7.3704 20.487C7.17516 20.1603 6.8114 19.9728 6.43203 20.0032C6.05265 20.0336 5.72345 20.2768 5.58279 20.6304L2.35353 28.75H2C1.44772 28.75 1 29.1977 1 29.75V31C1 31.5523 1.44772 32 2 32H7.304H9.5H11.696H14.348H17C17.5523 32 18 31.5523 18 31V29.75C18 29.1977 17.5523 28.75 17 28.75H16.6422L13.355 20.625C13.2121 20.2716 12.8807 20.0303 12.5006 20.0026C12.1205 19.975 11.7577 20.1658 11.5651 20.4947Z" fill="white" stroke="white" stroke-width="2" stroke-linejoin="round"/>
<path d="M15.968 29.75L12.428 21L9.5 26L6.512 21L3.032 29.75H2V31H7.304V29.75H6.512L7.256 27.4266L9.5 30.8991L11.696 27.4266L12.488 29.75H11.696V31H17V29.75H15.968Z" fill="#F24D4F"/>
</g>
<defs>
<clipPath id="clip0">
<rect width="33" height="33" fill="white"/>
</clipPath>
</defs>
</svg>
