<svg width="33" height="33" viewBox="0 0 33 33" fill="none" xmlns="http://www.w3.org/2000/svg">
<g clip-path="url(#clip0)">
<path d="M32.5 26C32.5 29.5899 29.5899 32.5 26 32.5C22.4101 32.5 19.5 29.5899 19.5 26C19.5 22.4101 22.4101 19.5 26 19.5C29.5899 19.5 32.5 22.4101 32.5 26Z" fill="#FFCC31" stroke="white"/>
<path d="M25.9882 22.7099C26.3478 22.7099 26.6755 22.765 26.9713 22.8752C27.2729 22.9854 27.5136 23.1507 27.6934 23.3711C27.879 23.5915 27.9718 23.8699 27.9718 24.2063C27.9718 24.5775 27.8645 24.8849 27.6499 25.1285C27.4411 25.3663 27.1772 25.5635 26.8582 25.7201C27.0786 25.8361 27.2874 25.9724 27.4846 26.129C27.6876 26.2798 27.85 26.4596 27.9718 26.6684C28.0994 26.8714 28.1632 27.1121 28.1632 27.3905C28.1632 27.7327 28.0704 28.0314 27.8848 28.2866C27.705 28.5418 27.4498 28.739 27.1192 28.8782C26.7944 29.0174 26.4174 29.087 25.9882 29.087C25.2922 29.087 24.7528 28.9391 24.37 28.6433C23.993 28.3475 23.8045 27.9415 23.8045 27.4253C23.8045 26.9961 23.9205 26.651 24.1525 26.39C24.3845 26.129 24.6658 25.9173 24.9964 25.7549C24.718 25.5809 24.4802 25.3721 24.283 25.1285C24.0916 24.8791 23.9959 24.5688 23.9959 24.1976C23.9959 23.867 24.0887 23.5915 24.2743 23.3711C24.4599 23.1507 24.7035 22.9854 25.0051 22.8752C25.3125 22.765 25.6402 22.7099 25.9882 22.7099ZM25.9795 23.6669C25.7649 23.6669 25.5851 23.722 25.4401 23.8322C25.3009 23.9424 25.2313 24.099 25.2313 24.302C25.2313 24.5166 25.3067 24.6906 25.4575 24.824C25.6083 24.9574 25.7852 25.0734 25.9882 25.172C26.1854 25.0792 26.3594 24.969 26.5102 24.8414C26.661 24.708 26.7364 24.5282 26.7364 24.302C26.7364 24.099 26.6639 23.9424 26.5189 23.8322C26.3797 23.722 26.1999 23.6669 25.9795 23.6669ZM25.0225 27.347C25.0225 27.5732 25.1008 27.7588 25.2574 27.9038C25.4198 28.0488 25.6576 28.1213 25.9708 28.1213C26.2956 28.1213 26.5392 28.0517 26.7016 27.9125C26.864 27.7733 26.9452 27.5877 26.9452 27.3557C26.9452 27.1991 26.8988 27.0628 26.806 26.9468C26.7132 26.825 26.5972 26.7177 26.458 26.6249C26.3246 26.5263 26.1854 26.4364 26.0404 26.3552L25.9273 26.2943C25.6605 26.4219 25.443 26.5698 25.2748 26.738C25.1066 26.9062 25.0225 27.1092 25.0225 27.347Z" fill="#565656" fill-opacity="0.8"/>
<path d="M11.5651 20.4947L9.49127 24.036L7.3704 20.487C7.17516 20.1603 6.8114 19.9728 6.43203 20.0032C6.05265 20.0336 5.72345 20.2768 5.58279 20.6304L2.35353 28.75H2C1.44772 28.75 1 29.1977 1 29.75V31C1 31.5523 1.44772 32 2 32H7.304H9.5H11.696H14.348H17C17.5523 32 18 31.5523 18 31V29.75C18 29.1977 17.5523 28.75 17 28.75H16.6422L13.355 20.625C13.2121 20.2716 12.8807 20.0303 12.5006 20.0026C12.1205 19.975 11.7577 20.1658 11.5651 20.4947Z" fill="white" stroke="white" stroke-width="2" stroke-linejoin="round"/>
<path d="M15.968 29.75L12.428 21L9.5 26L6.512 21L3.032 29.75H2V31H7.304V29.75H6.512L7.256 27.4266L9.5 30.8991L11.696 27.4266L12.488 29.75H11.696V31H17V29.75H15.968Z" fill="#F24D4F"/>
</g>
<defs>
<clipPath id="clip0">
<rect width="33" height="33" fill="white"/>
</clipPath>
</defs>
</svg>
