<svg width="33" height="33" viewBox="0 0 33 33" fill="none" xmlns="http://www.w3.org/2000/svg">
<g clip-path="url(#clip0)">
<path d="M32.5 26C32.5 29.5899 29.5899 32.5 26 32.5C22.4101 32.5 19.5 29.5899 19.5 26C19.5 22.4101 22.4101 19.5 26 19.5C29.5899 19.5 32.5 22.4101 32.5 26Z" fill="white" stroke="#EC0003"/>
<path d="M24.2933 29H22.9796V25.4069C22.9796 25.2561 22.9825 25.0589 22.9883 24.8153C22.9999 24.5717 23.0086 24.3571 23.0144 24.1715C22.9854 24.2063 22.9216 24.2701 22.823 24.3629C22.7302 24.4499 22.6432 24.5282 22.562 24.5978L21.8486 25.172L21.2135 24.3803L23.2145 22.7882H24.2933V29ZM30.5074 27.7124H29.7592V29H28.4803V27.7124H25.8268V26.7989L28.5499 22.7882H29.7592V26.6945H30.5074V27.7124ZM28.4803 25.6418C28.4803 25.5084 28.4832 25.346 28.489 25.1546C28.4948 24.9632 28.5006 24.7863 28.5064 24.6239C28.518 24.4557 28.5267 24.3455 28.5325 24.2933H28.4977C28.4455 24.4093 28.3904 24.5224 28.3324 24.6326C28.2744 24.7428 28.2048 24.8559 28.1236 24.9719L26.9839 26.6945H28.4803V25.6418Z" fill="#565656"/>
<path d="M11.5651 20.4947L9.49127 24.036L7.3704 20.487C7.17516 20.1603 6.8114 19.9728 6.43203 20.0032C6.05265 20.0336 5.72345 20.2768 5.58279 20.6304L2.35353 28.75H2C1.44772 28.75 1 29.1977 1 29.75V31C1 31.5523 1.44772 32 2 32H7.304H9.5H11.696H14.348H17C17.5523 32 18 31.5523 18 31V29.75C18 29.1977 17.5523 28.75 17 28.75H16.6422L13.355 20.625C13.2121 20.2716 12.8807 20.0303 12.5006 20.0026C12.1205 19.975 11.7577 20.1658 11.5651 20.4947Z" fill="white" stroke="white" stroke-width="2" stroke-linejoin="round"/>
<path d="M15.968 29.75L12.428 21L9.5 26L6.512 21L3.032 29.75H2V31H7.304V29.75H6.512L7.256 27.4266L9.5 30.8991L11.696 27.4266L12.488 29.75H11.696V31H17V29.75H15.968Z" fill="#F24D4F"/>
</g>
<defs>
<clipPath id="clip0">
<rect width="33" height="33" fill="white"/>
</clipPath>
</defs>
</svg>
