<svg width="33" height="33" viewBox="0 0 33 33" fill="none" xmlns="http://www.w3.org/2000/svg">
<g clip-path="url(#clip0)">
<path d="M32.5 26C32.5 29.5899 29.5899 32.5 26 32.5C22.4101 32.5 19.5 29.5899 19.5 26C19.5 22.4101 22.4101 19.5 26 19.5C29.5899 19.5 32.5 22.4101 32.5 26Z" fill="#ACBFE3" stroke="white"/>
<path d="M24.2933 29H22.9796V25.4069C22.9796 25.2561 22.9825 25.0589 22.9883 24.8153C22.9999 24.5717 23.0086 24.3571 23.0144 24.1715C22.9854 24.2063 22.9216 24.2701 22.823 24.3629C22.7302 24.4499 22.6432 24.5282 22.562 24.5978L21.8486 25.172L21.2135 24.3803L23.2145 22.7882H24.2933V29ZM30.3682 29H26.0269V28.0865L27.5842 26.5118C27.8974 26.187 28.1497 25.9173 28.3411 25.7027C28.5325 25.4823 28.6717 25.2851 28.7587 25.1111C28.8457 24.9313 28.8892 24.7399 28.8892 24.5369C28.8892 24.2875 28.8196 24.1019 28.6804 23.9801C28.547 23.8583 28.3643 23.7974 28.1323 23.7974C27.8945 23.7974 27.6625 23.8525 27.4363 23.9627C27.2101 24.0729 26.9723 24.2295 26.7229 24.4325L26.0095 23.5886C26.1893 23.432 26.3778 23.287 26.575 23.1536C26.778 23.0202 27.01 22.9129 27.271 22.8317C27.5378 22.7447 27.8568 22.7012 28.228 22.7012C28.634 22.7012 28.982 22.7766 29.272 22.9274C29.5678 23.0724 29.794 23.2725 29.9506 23.5277C30.113 23.7771 30.1942 24.0613 30.1942 24.3803C30.1942 24.7225 30.1246 25.0357 29.9854 25.3199C29.852 25.6041 29.6548 25.8854 29.3938 26.1638C29.1386 26.4422 28.8283 26.7496 28.4629 27.086L27.6625 27.8342V27.8951H30.3682V29Z" fill="white"/>
<path d="M11.5651 20.4947L9.49127 24.036L7.3704 20.487C7.17516 20.1603 6.8114 19.9728 6.43203 20.0032C6.05265 20.0336 5.72345 20.2768 5.58279 20.6304L2.35353 28.75H2C1.44772 28.75 1 29.1977 1 29.75V31C1 31.5523 1.44772 32 2 32H7.304H9.5H11.696H14.348H17C17.5523 32 18 31.5523 18 31V29.75C18 29.1977 17.5523 28.75 17 28.75H16.6422L13.355 20.625C13.2121 20.2716 12.8807 20.0303 12.5006 20.0026C12.1205 19.975 11.7577 20.1658 11.5651 20.4947Z" fill="white" stroke="white" stroke-width="2" stroke-linejoin="round"/>
<path d="M15.968 29.75L12.428 21L9.5 26L6.512 21L3.032 29.75H2V31H7.304V29.75H6.512L7.256 27.4266L9.5 30.8991L11.696 27.4266L12.488 29.75H11.696V31H17V29.75H15.968Z" fill="#F24D4F"/>
</g>
<defs>
<clipPath id="clip0">
<rect width="33" height="33" fill="white"/>
</clipPath>
</defs>
</svg>
