<svg width="33" height="33" viewBox="0 0 33 33" fill="none" xmlns="http://www.w3.org/2000/svg">
<g clip-path="url(#clip0)">
<path d="M32.5 26C32.5 29.5899 29.5899 32.5 26 32.5C22.4101 32.5 19.5 29.5899 19.5 26C19.5 22.4101 22.4101 19.5 26 19.5C29.5899 19.5 32.5 22.4101 32.5 26Z" fill="#9C9C9C" stroke="white"/>
<path d="M28.1632 25.4417C28.1632 25.7955 28.1371 26.1493 28.0849 26.5031C28.0327 26.8511 27.9399 27.1817 27.8065 27.4949C27.6789 27.8023 27.4962 28.0778 27.2584 28.3214C27.0264 28.5592 26.7277 28.7477 26.3623 28.8869C26.0027 29.0203 25.5648 29.087 25.0486 29.087C24.9268 29.087 24.7847 29.0812 24.6223 29.0696C24.4599 29.0638 24.3236 29.0493 24.2134 29.0261V27.9734C24.3294 27.9966 24.4512 28.0169 24.5788 28.0343C24.7064 28.0517 24.834 28.0604 24.9616 28.0604C25.4778 28.0604 25.8751 27.9792 26.1535 27.8168C26.4377 27.6486 26.6378 27.4195 26.7538 27.1295C26.8698 26.8395 26.9365 26.5031 26.9539 26.1203H26.9017C26.7799 26.3233 26.6175 26.4944 26.4145 26.6336C26.2173 26.7728 25.9215 26.8424 25.5271 26.8424C24.9993 26.8424 24.5759 26.6713 24.2569 26.3291C23.9379 25.9869 23.7784 25.5026 23.7784 24.8762C23.7784 24.2034 23.9669 23.6756 24.3439 23.2928C24.7267 22.91 25.2429 22.7186 25.8925 22.7186C26.3159 22.7186 26.6987 22.8172 27.0409 23.0144C27.3831 23.2058 27.6557 23.5045 27.8587 23.9105C28.0617 24.3107 28.1632 24.8211 28.1632 25.4417ZM25.9186 23.7713C25.6634 23.7713 25.4546 23.8583 25.2922 24.0323C25.1298 24.2063 25.0486 24.4818 25.0486 24.8588C25.0486 25.1604 25.1182 25.3982 25.2574 25.5722C25.3966 25.7462 25.6083 25.8332 25.8925 25.8332C26.0897 25.8332 26.2579 25.7897 26.3971 25.7027C26.5421 25.6157 26.6552 25.5084 26.7364 25.3808C26.8176 25.2474 26.8582 25.1111 26.8582 24.9719C26.8582 24.7805 26.8234 24.592 26.7538 24.4064C26.6842 24.2208 26.5798 24.07 26.4406 23.954C26.3014 23.8322 26.1274 23.7713 25.9186 23.7713Z" fill="white"/>
<path d="M11.5651 20.4947L9.49127 24.036L7.3704 20.487C7.17516 20.1603 6.8114 19.9728 6.43203 20.0032C6.05265 20.0336 5.72345 20.2768 5.58279 20.6304L2.35353 28.75H2C1.44772 28.75 1 29.1977 1 29.75V31C1 31.5523 1.44772 32 2 32H7.304H9.5H11.696H14.348H17C17.5523 32 18 31.5523 18 31V29.75C18 29.1977 17.5523 28.75 17 28.75H16.6422L13.355 20.625C13.2121 20.2716 12.8807 20.0303 12.5006 20.0026C12.1205 19.975 11.7577 20.1658 11.5651 20.4947Z" fill="white" stroke="white" stroke-width="2" stroke-linejoin="round"/>
<path d="M15.968 29.75L12.428 21L9.5 26L6.512 21L3.032 29.75H2V31H7.304V29.75H6.512L7.256 27.4266L9.5 30.8991L11.696 27.4266L12.488 29.75H11.696V31H17V29.75H15.968Z" fill="#F24D4F"/>
</g>
<defs>
<clipPath id="clip0">
<rect width="33" height="33" fill="white"/>
</clipPath>
</defs>
</svg>
