<svg width="16" height="16" viewBox="0 0 16 16" fill="none" xmlns="http://www.w3.org/2000/svg">
<path d="M9.88432 5.1316L7.99339 8.48483L6.06045 5.12592C5.9161 4.87508 5.64032 4.72968 5.3518 4.75229C5.06328 4.77491 4.81351 4.9615 4.71001 5.23176L1.87852 12.625H1.5C1.08579 12.625 0.75 12.9608 0.75 13.375V14.5C0.75 14.9142 1.08579 15.25 1.5 15.25H6.0968H8H9.9032H12.2016H14.5C14.9142 15.25 15.25 14.9142 15.25 14.5V13.375C15.25 12.9608 14.9142 12.625 14.5 12.625H14.1183L11.2364 5.22774C11.1312 4.9577 10.8799 4.77244 10.5908 4.75189C10.3017 4.73133 10.0267 4.87917 9.88432 5.1316Z" fill="white" stroke="white" stroke-width="1.5" stroke-linejoin="round"/>
<path d="M13.6056 13.375L10.5376 5.5L8 10L5.4104 5.5L2.3944 13.375H1.5V14.5H6.0968V13.375H5.4104L6.0552 11.2839L8 14.4092L9.9032 11.2839L10.5896 13.375H9.9032V14.5H14.5V13.375H13.6056Z" fill="#F24D4F"/>
</svg>
