<svg width="33" height="33" viewBox="0 0 33 33" fill="none" xmlns="http://www.w3.org/2000/svg">
<g clip-path="url(#clip0)">
<path d="M32.5 26C32.5 29.5899 29.5899 32.5 26 32.5C22.4101 32.5 19.5 29.5899 19.5 26C19.5 22.4101 22.4101 19.5 26 19.5C29.5899 19.5 32.5 22.4101 32.5 26Z" fill="#008FE4" stroke="white"/>
<path d="M27.9457 24.1802C27.9457 24.6094 27.8152 24.9516 27.5542 25.2068C27.299 25.462 26.9829 25.636 26.6059 25.7288V25.7549C27.1047 25.8129 27.4817 25.9637 27.7369 26.2073C27.9979 26.4509 28.1284 26.7786 28.1284 27.1904C28.1284 27.55 28.0385 27.8748 27.8587 28.1648C27.6847 28.449 27.4121 28.6752 27.0409 28.8434C26.6755 29.0058 26.2028 29.087 25.6228 29.087C24.95 29.087 24.3526 28.9739 23.8306 28.7477V27.6341C24.0974 27.7675 24.3758 27.869 24.6658 27.9386C24.9616 28.0082 25.2342 28.043 25.4836 28.043C25.9534 28.043 26.2811 27.9618 26.4667 27.7994C26.6581 27.637 26.7538 27.4079 26.7538 27.1121C26.7538 26.9381 26.7103 26.7931 26.6233 26.6771C26.5363 26.5553 26.3826 26.4654 26.1622 26.4074C25.9476 26.3436 25.646 26.3117 25.2574 26.3117H24.7876V25.3025H25.2661C25.6489 25.3025 25.9389 25.2677 26.1361 25.1981C26.3391 25.1227 26.4754 25.0241 26.545 24.9023C26.6204 24.7747 26.6581 24.6297 26.6581 24.4673C26.6581 24.2469 26.5885 24.0758 26.4493 23.954C26.3159 23.8264 26.0897 23.7626 25.7707 23.7626C25.4749 23.7626 25.2168 23.8148 24.9964 23.9192C24.7818 24.0178 24.5991 24.1164 24.4483 24.215L23.8393 23.3102C24.0829 23.1362 24.3671 22.9912 24.6919 22.8752C25.0225 22.7592 25.414 22.7012 25.8664 22.7012C26.5044 22.7012 27.009 22.8317 27.3802 23.0927C27.7572 23.3479 27.9457 23.7104 27.9457 24.1802Z" fill="white"/>
<path d="M11.5651 20.4947L9.49127 24.036L7.3704 20.487C7.17516 20.1603 6.8114 19.9728 6.43203 20.0032C6.05265 20.0336 5.72345 20.2768 5.58279 20.6304L2.35353 28.75H2C1.44772 28.75 1 29.1977 1 29.75V31C1 31.5523 1.44772 32 2 32H7.304H9.5H11.696H14.348H17C17.5523 32 18 31.5523 18 31V29.75C18 29.1977 17.5523 28.75 17 28.75H16.6422L13.355 20.625C13.2121 20.2716 12.8807 20.0303 12.5006 20.0026C12.1205 19.975 11.7577 20.1658 11.5651 20.4947Z" fill="white" stroke="white" stroke-width="2" stroke-linejoin="round"/>
<path d="M15.968 29.75L12.428 21L9.5 26L6.512 21L3.032 29.75H2V31H7.304V29.75H6.512L7.256 27.4266L9.5 30.8991L11.696 27.4266L12.488 29.75H11.696V31H17V29.75H15.968Z" fill="#F24D4F"/>
</g>
<defs>
<clipPath id="clip0">
<rect width="33" height="33" fill="white"/>
</clipPath>
</defs>
</svg>
