<svg width="33" height="33" viewBox="0 0 33 33" fill="none" xmlns="http://www.w3.org/2000/svg">
<g clip-path="url(#clip0)">
<path d="M32.5 26C32.5 29.5899 29.5899 32.5 26 32.5C22.4101 32.5 19.5 29.5899 19.5 26C19.5 22.4101 22.4101 19.5 26 19.5C29.5899 19.5 32.5 22.4101 32.5 26Z" fill="#E13B8F" stroke="white"/>
<path d="M24.2933 29H22.9796V25.4069C22.9796 25.2561 22.9825 25.0589 22.9883 24.8153C22.9999 24.5717 23.0086 24.3571 23.0144 24.1715C22.9854 24.2063 22.9216 24.2701 22.823 24.3629C22.7302 24.4499 22.6432 24.5282 22.562 24.5978L21.8486 25.172L21.2135 24.3803L23.2145 22.7882H24.2933V29ZM28.2889 25.0328C28.6659 25.0328 29.0023 25.1053 29.2981 25.2503C29.5939 25.3953 29.8259 25.607 29.9941 25.8854C30.1681 26.1638 30.2551 26.5089 30.2551 26.9207C30.2551 27.5935 30.0463 28.1242 29.6287 28.5128C29.2111 28.8956 28.5934 29.087 27.7756 29.087C27.4508 29.087 27.1434 29.058 26.8534 29C26.5692 28.942 26.3198 28.8579 26.1052 28.7477V27.6167C26.3198 27.7269 26.5779 27.8226 26.8795 27.9038C27.1811 27.9792 27.4653 28.0169 27.7321 28.0169C28.1207 28.0169 28.4165 27.9386 28.6195 27.782C28.8283 27.6196 28.9327 27.3702 28.9327 27.0338C28.9327 26.4074 28.518 26.0942 27.6886 26.0942C27.5262 26.0942 27.358 26.1116 27.184 26.1464C27.01 26.1754 26.865 26.2044 26.749 26.2334L26.227 25.955L26.4619 22.7882H29.8288V23.9018H27.6103L27.4972 25.1198C27.5958 25.1024 27.7002 25.085 27.8104 25.0676C27.9264 25.0444 28.0859 25.0328 28.2889 25.0328Z" fill="white"/>
<path d="M11.5651 20.4947L9.49127 24.036L7.3704 20.487C7.17516 20.1603 6.8114 19.9728 6.43203 20.0032C6.05265 20.0336 5.72345 20.2768 5.58279 20.6304L2.35353 28.75H2C1.44772 28.75 1 29.1977 1 29.75V31C1 31.5523 1.44772 32 2 32H7.304H9.5H11.696H14.348H17C17.5523 32 18 31.5523 18 31V29.75C18 29.1977 17.5523 28.75 17 28.75H16.6422L13.355 20.625C13.2121 20.2716 12.8807 20.0303 12.5006 20.0026C12.1205 19.975 11.7577 20.1658 11.5651 20.4947Z" fill="white" stroke="white" stroke-width="2" stroke-linejoin="round"/>
<path d="M15.968 29.75L12.428 21L9.5 26L6.512 21L3.032 29.75H2V31H7.304V29.75H6.512L7.256 27.4266L9.5 30.8991L11.696 27.4266L12.488 29.75H11.696V31H17V29.75H15.968Z" fill="#F24D4F"/>
</g>
<defs>
<clipPath id="clip0">
<rect width="33" height="33" fill="white"/>
</clipPath>
</defs>
</svg>
