<svg width="33" height="33" viewBox="0 0 33 33" fill="none" xmlns="http://www.w3.org/2000/svg">
<g clip-path="url(#clip0)">
<path d="M32.5 26C32.5 29.5899 29.5899 32.5 26 32.5C22.4101 32.5 19.5 29.5899 19.5 26C19.5 22.4101 22.4101 19.5 26 19.5C29.5899 19.5 32.5 22.4101 32.5 26Z" fill="#69D3D5" stroke="white"/>
<path d="M24.2931 29H22.9794V25.4069C22.9794 25.2561 22.9823 25.0589 22.9881 24.8153C22.9997 24.5717 23.0084 24.3571 23.0142 24.1715C22.9852 24.2063 22.9214 24.2701 22.8228 24.3629C22.73 24.4499 22.643 24.5282 22.5618 24.5978L21.8484 25.172L21.2133 24.3803L23.2143 22.7882H24.2931V29ZM29.2718 29H27.9581V25.4069C27.9581 25.2561 27.961 25.0589 27.9668 24.8153C27.9784 24.5717 27.9871 24.3571 27.9929 24.1715C27.9639 24.2063 27.9001 24.2701 27.8015 24.3629C27.7087 24.4499 27.6217 24.5282 27.5405 24.5978L26.8271 25.172L26.192 24.3803L28.193 22.7882H29.2718V29Z" fill="white"/>
<path d="M11.5651 20.4947L9.49127 24.036L7.3704 20.487C7.17516 20.1603 6.8114 19.9728 6.43203 20.0032C6.05265 20.0336 5.72345 20.2768 5.58279 20.6304L2.35353 28.75H2C1.44772 28.75 1 29.1977 1 29.75V31C1 31.5523 1.44772 32 2 32H7.304H9.5H11.696H14.348H17C17.5523 32 18 31.5523 18 31V29.75C18 29.1977 17.5523 28.75 17 28.75H16.6422L13.355 20.625C13.2121 20.2716 12.8807 20.0303 12.5006 20.0026C12.1205 19.975 11.7577 20.1658 11.5651 20.4947Z" fill="white" stroke="white" stroke-width="2" stroke-linejoin="round"/>
<path d="M15.968 29.75L12.428 21L9.5 26L6.512 21L3.032 29.75H2V31H7.304V29.75H6.512L7.256 27.4266L9.5 30.8991L11.696 27.4266L12.488 29.75H11.696V31H17V29.75H15.968Z" fill="#F24D4F"/>
</g>
<defs>
<clipPath id="clip0">
<rect width="33" height="33" fill="white"/>
</clipPath>
</defs>
</svg>
