<svg width="33" height="33" viewBox="0 0 33 33" fill="none" xmlns="http://www.w3.org/2000/svg">
<g clip-path="url(#clip0)">
<path d="M32.5 26C32.5 29.5899 29.5899 32.5 26 32.5C22.4101 32.5 19.5 29.5899 19.5 26C19.5 22.4101 22.4101 19.5 26 19.5C29.5899 19.5 32.5 22.4101 32.5 26Z" fill="#A144B3" stroke="white"/>
<path d="M24.4657 29L26.7973 23.8931H23.7349V22.7882H28.1893V23.6147L25.8403 29H24.4657Z" fill="white"/>
<path d="M11.5651 20.4947L9.49127 24.036L7.3704 20.487C7.17516 20.1603 6.8114 19.9728 6.43203 20.0032C6.05265 20.0336 5.72345 20.2768 5.58279 20.6304L2.35353 28.75H2C1.44772 28.75 1 29.1977 1 29.75V31C1 31.5523 1.44772 32 2 32H7.304H9.5H11.696H14.348H17C17.5523 32 18 31.5523 18 31V29.75C18 29.1977 17.5523 28.75 17 28.75H16.6422L13.355 20.625C13.2121 20.2716 12.8807 20.0303 12.5006 20.0026C12.1205 19.975 11.7577 20.1658 11.5651 20.4947Z" fill="white" stroke="white" stroke-width="2" stroke-linejoin="round"/>
<path d="M15.968 29.75L12.428 21L9.5 26L6.512 21L3.032 29.75H2V31H7.304V29.75H6.512L7.256 27.4266L9.5 30.8991L11.696 27.4266L12.488 29.75H11.696V31H17V29.75H15.968Z" fill="#F24D4F"/>
</g>
<defs>
<clipPath id="clip0">
<rect width="33" height="33" fill="white"/>
</clipPath>
</defs>
</svg>
