<svg width="33" height="33" viewBox="0 0 33 33" fill="none" xmlns="http://www.w3.org/2000/svg">
<g clip-path="url(#clip0)">
<path d="M32.5 26C32.5 29.5899 29.5899 32.5 26 32.5C22.4101 32.5 19.5 29.5899 19.5 26C19.5 22.4101 22.4101 19.5 26 19.5C29.5899 19.5 32.5 22.4101 32.5 26Z" fill="#29B247" stroke="white"/>
<path d="M28.1893 29H23.848V28.0865L25.4053 26.5118C25.7185 26.187 25.9708 25.9173 26.1622 25.7027C26.3536 25.4823 26.4928 25.2851 26.5798 25.1111C26.6668 24.9313 26.7103 24.7399 26.7103 24.5369C26.7103 24.2875 26.6407 24.1019 26.5015 23.9801C26.3681 23.8583 26.1854 23.7974 25.9534 23.7974C25.7156 23.7974 25.4836 23.8525 25.2574 23.9627C25.0312 24.0729 24.7934 24.2295 24.544 24.4325L23.8306 23.5886C24.0104 23.432 24.1989 23.287 24.3961 23.1536C24.5991 23.0202 24.8311 22.9129 25.0921 22.8317C25.3589 22.7447 25.6779 22.7012 26.0491 22.7012C26.4551 22.7012 26.8031 22.7766 27.0931 22.9274C27.3889 23.0724 27.6151 23.2725 27.7717 23.5277C27.9341 23.7771 28.0153 24.0613 28.0153 24.3803C28.0153 24.7225 27.9457 25.0357 27.8065 25.3199C27.6731 25.6041 27.4759 25.8854 27.2149 26.1638C26.9597 26.4422 26.6494 26.7496 26.284 27.086L25.4836 27.8342V27.8951H28.1893V29Z" fill="white"/>
<path d="M11.5651 20.4947L9.49127 24.036L7.3704 20.487C7.17516 20.1603 6.8114 19.9728 6.43203 20.0032C6.05265 20.0336 5.72345 20.2768 5.58279 20.6304L2.35353 28.75H2C1.44772 28.75 1 29.1977 1 29.75V31C1 31.5523 1.44772 32 2 32H7.304H9.5H11.696H14.348H17C17.5523 32 18 31.5523 18 31V29.75C18 29.1977 17.5523 28.75 17 28.75H16.6422L13.355 20.625C13.2121 20.2716 12.8807 20.0303 12.5006 20.0026C12.1205 19.975 11.7577 20.1658 11.5651 20.4947Z" fill="white" stroke="white" stroke-width="2" stroke-linejoin="round"/>
<path d="M15.968 29.75L12.428 21L9.5 26L6.512 21L3.032 29.75H2V31H7.304V29.75H6.512L7.256 27.4266L9.5 30.8991L11.696 27.4266L12.488 29.75H11.696V31H17V29.75H15.968Z" fill="#F24D4F"/>
</g>
<defs>
<clipPath id="clip0">
<rect width="33" height="33" fill="white"/>
</clipPath>
</defs>
</svg>
