<?xml version="1.0" encoding="UTF-8"?>
<svg width="72px" height="72px" viewBox="0 0 72 72" version="1.1" xmlns="http://www.w3.org/2000/svg" xmlns:xlink="http://www.w3.org/1999/xlink">
    <title>monorels_i_72</title>
    <g id="monorels_i_72" stroke="none" stroke-width="1" fill="none" fill-rule="evenodd">
        <g id="transport/72/bounding-i" fill="#EC0003">
            <rect id="transport/72/bounding" x="0" y="0" width="72" height="72" rx="15"></rect>
        </g>
        <g id="Page-1" transform="translate(15.000000, 9.000000)" fill="#FFFFFF">
            <path d="M0,6 L0,25 L5,25 L5,8 L37,8 L37,25 L42,25 L42,6 C42,5.7702381 35.0107059,0 21,0 C6.99547059,0 0,5.7702381 0,6" id="Fill-1"></path>
            <path d="M0,25 L0,43 C0,46.3132 2.76458824,49 6,49 L11,49 L11,44 C11.1176471,41.5492 13.3300588,39.4 16,39 L26,39 C28.6699412,39.4 30.8823529,41.5492 31,44 L31,49 L36,49 C39.2354118,49 42,46.3132 42,43 L42,25 L0,25 Z" id="Fill-3"></path>
            <path d="M24,44 L19,44 C17.12,44 16,45.12 16,47 L16,52 C16,52.88 17.12,54 19,54 L24,54 C24.88,54 26,52.88 26,52 L26,47 C26,45.12 24.88,44 24,44" id="Fill-5"></path>
        </g>
    </g>
</svg>