<?xml version="1.0" encoding="UTF-8"?>
<svg width="60px" height="60px" viewBox="0 0 60 60" version="1.1" xmlns="http://www.w3.org/2000/svg" xmlns:xlink="http://www.w3.org/1999/xlink">
    <title>poi_painball_7_i</title>
    <g id="poi_painball_7_i" stroke="none" stroke-width="1" fill="none" fill-rule="evenodd">
        <path d="M52,45 L46,45 C42.9725806,44.373544 40.8064516,42.2188223 40,39 C40.8064516,36.9018098 42.9725806,34.7470881 46,35 C47.9951613,34.7470881 50.1612903,32.5923663 50,30 L50,28 L50,24 L32,24 L36,18 L46,16 L46,10 C42.133871,7.75931877 37.5629032,6.38113116 32,7 L13,12 C14.0903226,15.3706366 16.266129,17.645689 20,18 L28,20 L25,24 L5,24 L5,30 L21.368432,30 L15,39 L19,42.2369555 L27.368432,30 L31,30 L31,35 L39,54 L55,47 L52,45 Z" id="Fill-1" stroke="#FFFFFF" stroke-width="5"></path>
        <path d="M52,45 L46,45 C42.9725806,44.373544 40.8064516,42.2188223 40,39 C40.8064516,36.9018098 42.9725806,34.7470881 46,35 C47.9951613,34.7470881 50.1612903,32.5923663 50,30 L50,28 L50,24 L32,24 L36,18 L46,16 L46,10 C42.133871,7.75931877 37.5629032,6.38113116 32,7 L13,12 C14.0903226,15.3706366 16.266129,17.645689 20,18 L28,20 L25,24 L5,24 L5,30 L21.368432,30 L15,39 L19,42.2369555 L27.368432,30 L31,30 L31,35 L39,54 L55,47 L52,45 Z" id="Fill-1" fill="#D91928"></path>
    </g>
</svg>