<?xml version="1.0" encoding="UTF-8"?>
<svg width="116px" height="116px" viewBox="0 0 116 116" version="1.1" xmlns="http://www.w3.org/2000/svg" xmlns:xlink="http://www.w3.org/1999/xlink">
    <!-- Generator: Sketch 63.1 (92452) - https://sketch.com -->
    <title>poi_carting</title>
    <desc>Created with Sketch.</desc>
    <g id="poi_carting" stroke="none" stroke-width="1" fill="none" fill-rule="evenodd">
        <g id="poi/100/bounding">
            <g>
                <circle id="Oval-Shadow-1" fill-opacity="0.02" fill="#000000" cx="58" cy="58" r="58"></circle>
                <circle id="Oval-Shadow-2" fill-opacity="0.02" fill="#000000" cx="58" cy="58" r="56"></circle>
                <circle id="Oval-Shadow-3" fill-opacity="0.02" fill="#000000" cx="58" cy="58" r="54"></circle>
                <circle id="Oval-Shadow-4" fill-opacity="0.02" fill="#000000" cx="58" cy="58" r="52"></circle>
                <circle id="Oval-2" fill="#FFFFFF" cx="58" cy="58" r="50"></circle>
            </g>
        </g>
        <g id="Page-1" transform="translate(23.000000, 35.000000)" fill="#F7B21B">
            <path d="M22.8571429,33.8333333 C22.8571429,29.8749444 19.5955714,26.6666667 15.5714286,26.6666667 C11.5472857,26.6666667 8.28571429,29.8749444 8.28571429,33.8333333 C8.28571429,37.7917222 11.5472857,41 15.5714286,41 C19.5955714,41 22.8571429,37.7917222 22.8571429,33.8333333" id="Fill-1"></path>
            <path d="M61.7142857,33.8333333 C61.7142857,29.8749444 58.4527143,26.6666667 54.4285714,26.6666667 C50.4044286,26.6666667 47.1428571,29.8749444 47.1428571,33.8333333 C47.1428571,37.7917222 50.4044286,41 54.4285714,41 C58.4527143,41 61.7142857,37.7917222 61.7142857,33.8333333" id="Fill-3"></path>
            <path d="M10.9632143,15.8438278 C5.01321429,17.79555 0.998785714,23.2732722 0.998785714,29.4413833 L0.998785714,33.9772477 L5.97787022,33.9772477 C5.97787022,28.7001921 10.2055,23.8896056 15.5702143,23.8896056 C20.9373571,23.8896056 25.0408062,28.7001921 25.0408062,33.9772477 L44.9670966,33.9772477 C44.9670966,28.7001921 49.0626429,23.8896056 54.4273571,23.8896056 C59.7945,23.8896056 64.0822622,28.7001921 64.0822622,33.9772477 L68.9987857,33.9772477 L68.9987857,14.047325 L54.0041993,14.047325 L54.0041993,9.04442844 L49.0665584,9.04442844 L34.9987857,24.0657685 L29.9662977,24.0657685 L29.9662977,14.047325 L25.0408062,9.04442844 L10.9632143,15.8438278 Z" id="Fill-5"></path>
            <polygon id="Fill-8" points="23.9840347 4.88521459 28.0446164 0.929336789 37.034054 10.027351 33.0526887 14.0111146"></polygon>
        </g>
    </g>
</svg>