<?xml version="1.0" encoding="UTF-8"?>
<svg width="116px" height="116px" viewBox="0 0 116 116" version="1.1" xmlns="http://www.w3.org/2000/svg" xmlns:xlink="http://www.w3.org/1999/xlink">
    <!-- Generator: Sketch 63.1 (92452) - https://sketch.com -->
    <title>poi_carservice</title>
    <desc>Created with Sketch.</desc>
    <g id="poi_carservice" stroke="none" stroke-width="1" fill="none" fill-rule="evenodd">
        <g id="poi/100/bounding">
            <g>
                <circle id="Oval-Shadow-1" fill-opacity="0.02" fill="#000000" cx="58" cy="58" r="58"></circle>
                <circle id="Oval-Shadow-2" fill-opacity="0.02" fill="#000000" cx="58" cy="58" r="56"></circle>
                <circle id="Oval-Shadow-3" fill-opacity="0.02" fill="#000000" cx="58" cy="58" r="54"></circle>
                <circle id="Oval-Shadow-4" fill-opacity="0.02" fill="#000000" cx="58" cy="58" r="52"></circle>
                <circle id="Oval-2" fill="#FFFFFF" cx="58" cy="58" r="50"></circle>
            </g>
        </g>
        <g id="Page-1" transform="translate(33.000000, 24.000000)" fill="#72B8EB">
            <path d="M41.4545455,48.5714286 C35.7312273,48.5714286 31.0909091,52.921 31.0909091,58.2857143 C31.0909091,63.6504286 35.7312273,68 41.4545455,68 C47.1778636,68 51.8181818,63.6504286 51.8181818,58.2857143 C51.8181818,52.921 47.1778636,48.5714286 41.4545455,48.5714286 M41.4545455,53.4285714 C44.3123182,53.4285714 46.6363636,55.607 46.6363636,58.2857143 C46.6363636,60.9644286 44.3123182,63.1428571 41.4545455,63.1428571 C38.5967727,63.1428571 36.2727273,60.9644286 36.2727273,58.2857143 C36.2727273,55.607 38.5967727,53.4285714 41.4545455,53.4285714" id="Fill-1"></path>
            <polygon id="Fill-3" points="37 53.0366537 45.8918894 53.0366537 46 19.0946534 37 19.0946534"></polygon>
            <path d="M55.9980955,9.52582857 L49.8913227,15.2499714 C48.2046409,16.8309714 45.4712318,16.8309714 43.7819591,15.2499714 L40.7298682,12.3891143 C39.0431864,10.8081143 39.0431864,8.24597143 40.7298682,6.66497143 L46.8366409,0.940828571 C47.0439136,0.746542857 47.3055955,0.6494 47.5361864,0.503685714 C46.4220955,0.209828571 45.2639591,0.000971428571 44.0462318,0.000971428571 C36.8901409,0.000971428571 31.0916864,5.43611429 31.0916864,12.1438286 C31.0916864,18.8491143 36.8901409,24.2866857 44.0462318,24.2866857 C51.1997318,24.2866857 57.0007773,18.8491143 57.0007773,12.1438286 C57.0007773,10.9999714 56.7779591,9.91682857 56.4644591,8.86768571 C56.3064136,9.08868571 56.2027773,9.33154286 55.9980955,9.52582857" id="Fill-5"></path>
            <polygon id="Fill-6" points="16.0586942 68 5.18181818 68 0 63.1404286 0 39.0289081 5.9519888 39.0289081 5.9519888 19.1788955 0 14.5714286 8.06733471 0 12.9545455 0 20.7272727 14.5714286 15.0389478 19.1788955 15.0389478 39.0289081 20.9572004 39.0289081 20.9572004 62.9543493"></polygon>
        </g>
    </g>
</svg>