<?xml version="1.0" encoding="UTF-8"?>
<svg width="64px" height="64px" viewBox="0 0 64 64" version="1.1" xmlns="http://www.w3.org/2000/svg" xmlns:xlink="http://www.w3.org/1999/xlink">
    <title>poi_beauty_i</title>
    <g id="poi_beauty_i" stroke="none" stroke-width="1" fill="none" fill-rule="evenodd">
        <g id="poi/52/bounding-green-i" transform="translate(2.000000, 2.000000)">
            <circle id="Oval-Shadow" fill-opacity="0.02" fill="#000000" cx="30" cy="30" r="30"></circle>
            <circle id="Oval-Shadow-2" fill-opacity="0.02" fill="#000000" cx="30" cy="30" r="29"></circle>
            <circle id="Oval-Shadow-3" fill-opacity="0.02" fill="#000000" cx="30" cy="30" r="28"></circle>
            <circle id="Oval-Shadow-4" fill-opacity="0.02" fill="#000000" cx="30" cy="30" r="27"></circle>
            <circle id="Oval-2" fill="#6DC234" cx="30" cy="30" r="26"></circle>
        </g>
        <g id="Page-1" transform="translate(19.000000, 12.000000)" fill="#FFFFFF">
            <path d="M5.2,27.1428571 C2.3296,27.1428571 0,29.5748571 0,32.5714286 C0,35.568 2.3296,38 5.2,38 C8.0704,38 10.4,35.568 10.4,32.5714286 C10.4,29.5748571 8.0704,27.1428571 5.2,27.1428571 M5.2,29.8571429 C6.6352,29.8571429 7.8,31.0731429 7.8,32.5714286 C7.8,34.0697143 6.6352,35.2857143 5.2,35.2857143 C3.7648,35.2857143 2.6,34.0697143 2.6,32.5714286 C2.6,31.0731429 3.7648,29.8571429 5.2,29.8571429" id="Fill-1"></path>
            <path d="M20.8,27.1428571 C17.9296,27.1428571 15.6,29.5748571 15.6,32.5714286 C15.6,35.568 17.9296,38 20.8,38 C23.6704,38 26,35.568 26,32.5714286 C26,29.5748571 23.6704,27.1428571 20.8,27.1428571 M20.8,29.8571429 C22.2352,29.8571429 23.4,31.0731429 23.4,32.5714286 C23.4,34.0697143 22.2352,35.2857143 20.8,35.2857143 C19.3648,35.2857143 18.2,34.0697143 18.2,32.5714286 C18.2,31.0731429 19.3648,29.8571429 20.8,29.8571429" id="Fill-3"></path>
            <polygon id="Fill-5" points="7.8 32.5714286 20.8 0 23.4 8.14285714 18.2 24.4285714 14.3 24.4285714 9.893 34.9138571"></polygon>
            <polygon id="Fill-7" points="18.2 32.5714286 5.2 0 2.6 8.14285714 7.8 24.4285714 11.7 24.4285714 16.107 34.9138571"></polygon>
        </g>
    </g>
</svg>