<?xml version="1.0" encoding="UTF-8"?>
<svg width="60px" height="60px" viewBox="0 0 60 60" version="1.1" xmlns="http://www.w3.org/2000/svg" xmlns:xlink="http://www.w3.org/1999/xlink">
    <title>poi_dog_7_i</title>
    <g id="poi_dog_7_i" stroke="none" stroke-width="1" fill="none" fill-rule="evenodd">
        <g id="Group" transform="translate(6.000000, 5.000000)" stroke="#FFFFFF" stroke-width="5">
            <path d="M0,12.140016 L2,11 L11,19 L21,19 L27,14 L36,21 L36,28 L33,35 L33,46 L28,46 L26,35 L15,35 L6,46 L1,46 C0.654545455,46 5.99956364,31.5813208 7,27 C5.99956364,19.4739623 0,13.4209434 0,13 L0,12.140016 Z" id="Fill-1"></path>
            <polygon id="Fill-4" points="36.0840636 16.6322346 29 11 39 0 40 7 49 11 47 17 40 15"></polygon>
        </g>
        <g id="Group" transform="translate(6.000000, 5.000000)" fill="#D91928">
            <path d="M0,13 L2,11 L11,19 L21,19 L27,14 L36,21 L36,28 L33,35 L33,46 L28,46 L26,35 L15,35 L6,46 L1,46 C0.654545455,46 5.99956364,31.5813208 7,27 C5.99956364,19.4739623 0,13.4209434 0,13" id="Fill-1"></path>
            <polygon id="Fill-4" points="36.0840636 16.6322346 29 11 39 0 40 7 49 11 47 17 40 15"></polygon>
        </g>
    </g>
</svg>