<?xml version="1.0" encoding="UTF-8"?>
<svg width="14px" height="14px" viewBox="0 0 14 14" version="1.1" xmlns="http://www.w3.org/2000/svg" xmlns:xlink="http://www.w3.org/1999/xlink">
    <title>poi_airplane</title>
    <g id="poi_airplane" stroke="none" stroke-width="1" fill="none" fill-rule="evenodd">
        <g id="poi_airplane_1" transform="translate(-0.340000, 0.660000)" fill-rule="nonzero">
            <path d="M0.939360244,6.98161401 C1.38449524,6.53647401 2.01322524,6.32689401 2.63641524,6.41592401 L3.81956524,6.58494401 L4.48879524,5.74841401 L0.641041244,4.26851401 C0.325096244,4.14699401 0.0920755436,3.87388401 0.0218043436,3.54275401 C-0.0484669564,3.21162401 0.0535522436,2.86741401 0.292913244,2.62805401 L0.601244244,2.31972401 C1.25586524,1.66510401 2.17604524,1.34938401 3.09466524,1.46421401 L7.86096524,2.06000401 L8.98389524,0.937074009 C9.29688524,0.624084009 9.67845524,0.388254009 10.0984152,0.248284009 L10.5130152,0.110088009 C11.2834152,-0.146731991 12.1328152,0.0537920095 12.7071152,0.628054009 C13.2814152,1.20232401 13.4819152,2.05175401 13.2251152,2.82221401 L13.0869152,3.23680401 C12.9469152,3.65672401 12.7111152,4.03829401 12.3981152,4.35128401 L11.2752152,5.47421401 L11.8710152,10.240544 C11.9858152,11.159144 11.6701152,12.079344 11.0154152,12.733944 L10.7071152,13.042244 C10.4677152,13.281644 10.1235152,13.383644 9.79242524,13.313344 C9.46129524,13.243144 9.18819524,13.010044 9.06667524,12.694144 L7.58676524,8.84639401 L6.75023524,9.51564401 L6.91925524,10.698744 C7.00828524,11.321944 6.79870524,11.950644 6.35357524,12.395844 L5.70712524,13.042244 C5.46205524,13.287344 5.10757524,13.388044 4.77026524,13.308444 C4.43296524,13.228744 4.16093524,12.980144 4.05133524,12.651344 L3.68818524,11.561944 C3.18549524,11.598144 2.67292524,11.422244 2.29291524,11.042244 C1.91289524,10.662244 1.73704524,10.149644 1.77325524,9.64704401 L0.683792244,9.28384401 C0.355000244,9.17425401 0.106398244,8.90222401 0.0267709436,8.56491401 C-0.0528563564,8.22761401 0.0478457436,7.87312401 0.292913244,7.62805401 L0.939360244,6.98161401 Z" id="Path" fill="#FFFFFF"></path>
            <path d="M1.00001524,3.33513401 L6.12354524,5.30572401 L4.24360524,7.65565401 L2.49498524,7.40584401 C2.18339524,7.36133401 1.86902524,7.46612401 1.64646524,7.68869401 L1.00001524,8.33513401 L3.13159524,9.04566401 L2.94174524,9.28297401 C2.69026524,9.59734401 2.71536524,10.050444 3.00001524,10.335144 C3.28466524,10.619744 3.73782524,10.644844 4.05217524,10.393444 L4.28948524,10.203544 L5.00001524,12.335144 L5.64646524,11.688644 C5.86902524,11.466144 5.97381524,11.151744 5.92930524,10.840144 L5.67950524,9.09154401 L8.02942524,7.21160401 L10.0000152,12.335144 L10.3083152,12.026844 C10.7447152,11.590344 10.9552152,10.976944 10.8787152,10.364544 L10.2222152,5.11291401 L11.6910152,3.64415401 C11.8942152,3.44093401 12.0473152,3.19319401 12.1382152,2.92054401 L12.2764152,2.50595401 C12.4134152,2.09483401 12.3064152,1.64157401 12.0000152,1.33513401 C11.6936152,1.02870401 11.2403152,0.921704009 10.8292152,1.05874401 L10.4146152,1.19694401 C10.1419152,1.28782401 9.89421524,1.44093401 9.69099524,1.64415401 L8.22223524,3.11291401 L2.97062524,2.45646401 C2.35821524,2.37991401 1.74475524,2.59039401 1.30834524,3.02680401 L1.00001524,3.33513401 Z" id="Path" fill="#646464"></path>
        </g>
    </g>
</svg>