<?xml version="1.0" encoding="UTF-8"?>
<svg width="116px" height="116px" viewBox="0 0 116 116" version="1.1" xmlns="http://www.w3.org/2000/svg" xmlns:xlink="http://www.w3.org/1999/xlink">
    <!-- Generator: Sketch 63.1 (92452) - https://sketch.com -->
    <title>poi_gas_station</title>
    <desc>Created with Sketch.</desc>
    <g id="poi_gas_station" stroke="none" stroke-width="1" fill="none" fill-rule="evenodd">
        <g id="poi/100/bounding">
            <g>
                <circle id="Oval-Shadow-1" fill-opacity="0.02" fill="#000000" cx="58" cy="58" r="58"></circle>
                <circle id="Oval-Shadow-2" fill-opacity="0.02" fill="#000000" cx="58" cy="58" r="56"></circle>
                <circle id="Oval-Shadow-3" fill-opacity="0.02" fill="#000000" cx="58" cy="58" r="54"></circle>
                <circle id="Oval-Shadow-4" fill-opacity="0.02" fill="#000000" cx="58" cy="58" r="52"></circle>
                <circle id="Oval-2" fill="#FFFFFF" cx="58" cy="58" r="50"></circle>
            </g>
        </g>
        <g id="Page-1" transform="translate(35.000000, 25.000000)" fill="#6DC234">
            <path d="M0,5.2 L0,26 L5,26 L5,10.059273 L25,10.059273 L25,26 L30,26 L30,5.2 C30,5.2 25,-3.55271368e-15 15,-3.55271368e-15 C5,-3.55271368e-15 0,5.2 0,5.2 Z" id="Fill-1"></path>
            <polyline id="Fill-3" points="30 26 30 31 35 31 35 52 40 56.9971076 45 56.9971076 50 52 50 15.997541 40 15.997541 40 20.8 45 26 45 52 40 52 40 31 35 26"></polyline>
            <polygon id="Fill-5" points="0 60 30 60 30 24 0 24"></polygon>
            <polygon id="Fill-7" points="39.987874 4.98959465 45 4.98959465 50.0294186 15.9819573 45 15.9819573"></polygon>
        </g>
    </g>
</svg>