<?xml version="1.0" encoding="UTF-8"?>
<svg width="60px" height="60px" viewBox="0 0 60 60" version="1.1" xmlns="http://www.w3.org/2000/svg" xmlns:xlink="http://www.w3.org/1999/xlink">
    <title>poi_skiing_7</title>
    <g id="poi_skiing_7" stroke="none" stroke-width="1" fill="none" fill-rule="evenodd">
        <g id="Group" transform="translate(5.000000, 4.000000)" stroke="#FFFFFF" stroke-width="5">
            <path d="M27.6653943,7.9999121 C22.7877337,10.3598646 21.6946367,14.2204544 21.6946367,14.2204544 L35.9333635,26.0005274 L38,6 C38,6 31.7986673,6 27.6653943,7.9999121 L27.6653943,7.9999121 Z M20.2713334,19.8460862 L16.0014233,17.0332703 L16.0014233,22.0021096 L26.3331824,28.0004395 L16,34.0001758 L22.1999094,38 L34.504367,29.6909419 L21.6946367,18.4396783 L20.2713334,19.8460862 Z" id="Fill-1"></path>
            <polygon id="Fill-3" points="10.4444444 4 9 6.88888889 20.5555556 17 22 14.1111111"></polygon>
            <path d="M39.6124609,24.0007032 L33.1527446,18 L31,22.0009375 C31,22.0009375 35.3025239,25.9990625 37.4597163,28.0002344 C39.0638965,29.4895113 38.8815359,30 41.7652054,30 C44.6459098,30 43.91795,26.0004688 43.91795,26.0004688 L39.6124609,24.0007032 Z" id="Fill-5"></path>
            <path d="M47.3143139,46.8414425 C43.6100256,46.8414425 39.9142367,47.6430759 34.9704639,44.7650805 C22.1719003,37.3050709 0,24 0,24 L0,28.4447581 C0,28.4447581 29.7093831,46.0719328 30.8567917,46.8414425 C35.3600162,49.3354132 42.0985627,51.1153607 45.2574777,50.9941666 C50.4009846,50.7970436 49.37115,46.8414425 47.3143139,46.8414425" id="Fill-7"></path>
            <path d="M50,5 C50,7.76239269 47.761318,10 45.0006922,10 C42.2400665,10 40,7.76239269 40,5 C40,2.23760731 42.2400665,0 45.0006922,0 C47.761318,0 50,2.23760731 50,5" id="Fill-9"></path>
        </g>
        <g id="Group" transform="translate(5.000000, 4.000000)" fill="#646464">
            <path d="M27.6653943,7.9999121 C22.7877337,10.3598646 21.6946367,14.2204544 21.6946367,14.2204544 L35.9333635,26.0005274 L38,6 C38,6 31.7986673,6 27.6653943,7.9999121 L27.6653943,7.9999121 Z M20.2713334,19.8460862 L16.0014233,17.0332703 L16.0014233,22.0021096 L26.3331824,28.0004395 L16,34.0001758 L22.1999094,38 L34.504367,29.6909419 L21.6946367,18.4396783 L20.2713334,19.8460862 Z" id="Fill-1"></path>
            <polygon id="Fill-3" points="10.4444444 4 9 6.88888889 20.5555556 17 22 14.1111111"></polygon>
            <path d="M43.91795,26.0004688 L39.6124609,24.0007032 L33.1527446,18 L31,22.0009375 C31,22.0009375 35.3025239,25.9990625 37.4597163,28.0002344 C39.0638965,29.4895113 38.8815359,30 41.7652054,30 C44.6459098,30 43.91795,26.0004688 43.91795,26.0004688" id="Fill-5"></path>
            <path d="M47.3143139,46.8414425 C43.6100256,46.8414425 39.9142367,47.6430759 34.9704639,44.7650805 C22.1719003,37.3050709 0,24 0,24 L0,28.4447581 C0,28.4447581 29.7093831,46.0719328 30.8567917,46.8414425 C35.3600162,49.3354132 42.0985627,51.1153607 45.2574777,50.9941666 C50.4009846,50.7970436 49.37115,46.8414425 47.3143139,46.8414425" id="Fill-7"></path>
            <path d="M50,5 C50,7.76239269 47.761318,10 45.0006922,10 C42.2400665,10 40,7.76239269 40,5 C40,2.23760731 42.2400665,0 45.0006922,0 C47.761318,0 50,2.23760731 50,5" id="Fill-9"></path>
        </g>
    </g>
</svg>