<?xml version="1.0" encoding="UTF-8"?>
<svg width="60px" height="60px" viewBox="0 0 60 60" version="1.1" xmlns="http://www.w3.org/2000/svg" xmlns:xlink="http://www.w3.org/1999/xlink">
    <title>poi_lifeguard_7</title>
    <g id="poi_lifeguard_7" stroke="none" stroke-width="1" fill="none" fill-rule="evenodd">
        <path d="M30,49 L30,40.6875 C36.1211667,41.0833333 41.0833333,36.1211667 40.6875,30 L49,30 C49,40.4769167 40.4769167,49 30,49 M30,11 L30,19.3125 C23.8788333,18.9166667 18.9166667,23.8788333 19.3125,30 L11,30 C11,19.5230833 19.5230833,11 30,11 M24,30.5454545 C24,26.691 26.6925,24 30.5454545,24 C33.3075,24 36,26.691 36,30.5454545 C36,33.3075 33.3075,36 30.5454545,36 C26.6925,36 24,33.3075 24,30.5454545 M30,6 C16.7456,6 6,16.7456 6,30 C6,43.2544 16.7456,54 30,54 C43.2544,54 54,43.2544 54,30 C54,16.7456 43.2544,6 30,6" id="Fill-1" stroke="#FFFFFF" stroke-width="5"></path>
        <path d="M30,49 L30,40.6875 C36.1211667,41.0833333 41.0833333,36.1211667 40.6875,30 L49,30 C49,40.4769167 40.4769167,49 30,49 M30,11 L30,19.3125 C23.8788333,18.9166667 18.9166667,23.8788333 19.3125,30 L11,30 C11,19.5230833 19.5230833,11 30,11 M24,30.5454545 C24,26.691 26.6925,24 30.5454545,24 C33.3075,24 36,26.691 36,30.5454545 C36,33.3075 33.3075,36 30.5454545,36 C26.6925,36 24,33.3075 24,30.5454545 M30,6 C16.7456,6 6,16.7456 6,30 C6,43.2544 16.7456,54 30,54 C43.2544,54 54,43.2544 54,30 C54,16.7456 43.2544,6 30,6" id="Fill-1" fill="#646464"></path>
    </g>
</svg>