<?xml version="1.0" encoding="UTF-8"?>
<svg width="60px" height="60px" viewBox="0 0 60 60" version="1.1" xmlns="http://www.w3.org/2000/svg" xmlns:xlink="http://www.w3.org/1999/xlink">
    <title>poi_forest_7_i</title>
    <g id="poi_forest_7_i" stroke="none" stroke-width="1" fill="none" fill-rule="evenodd">
        <g id="Group" transform="translate(12.000000, 11.000000)">
            <path d="M7.6,15.2 C13.5714286,27.1428571 27.0777143,27.1591429 38,27.1428571 L38,21.7142857 C38,10.3142857 27.2107143,5.95242857 19,8.14285714 C10.8571429,10.3142857 3.80271429,3.8 0,0 C0,19 0,38 19,38 C26.6,38 30.9455714,34.7428571 35.2857143,29.8571429 C23.8857143,29.8571429 11.4,30.4 7.6,15.2" id="Fill-1" stroke="#FFFFFF" stroke-width="5"></path>
            <path d="M7.6,15.2 C13.5714286,27.1428571 27.0777143,27.1591429 38,27.1428571 L38,21.7142857 C38,10.3142857 27.2107143,5.95242857 19,8.14285714 C10.8571429,10.3142857 3.80271429,3.8 0,0 C0,19 0,38 19,38 C26.6,38 30.9455714,34.7428571 35.2857143,29.8571429 C23.8857143,29.8571429 11.4,30.4 7.6,15.2" id="Fill-1" fill="#D91928"></path>
        </g>
    </g>
</svg>