<?xml version="1.0" encoding="UTF-8"?>
<svg width="116px" height="116px" viewBox="0 0 116 116" version="1.1" xmlns="http://www.w3.org/2000/svg" xmlns:xlink="http://www.w3.org/1999/xlink">
    <!-- Generator: Sketch 63.1 (92452) - https://sketch.com -->
    <title>poi_cinema</title>
    <desc>Created with Sketch.</desc>
    <g id="poi_cinema" stroke="none" stroke-width="1" fill="none" fill-rule="evenodd">
        <g id="poi/100/bounding">
            <g>
                <circle id="Oval-Shadow-1" fill-opacity="0.02" fill="#000000" cx="58" cy="58" r="58"></circle>
                <circle id="Oval-Shadow-2" fill-opacity="0.02" fill="#000000" cx="58" cy="58" r="56"></circle>
                <circle id="Oval-Shadow-3" fill-opacity="0.02" fill="#000000" cx="58" cy="58" r="54"></circle>
                <circle id="Oval-Shadow-4" fill-opacity="0.02" fill="#000000" cx="58" cy="58" r="52"></circle>
                <circle id="Oval-2" fill="#FFFFFF" cx="58" cy="58" r="50"></circle>
            </g>
        </g>
        <g id="Page-1" transform="translate(24.000000, 24.000000)" fill="#F7B21B">
            <path d="M19.0644765,53.9344839 C13.6997622,53.9344839 9.0908521,49.2941092 9.0908521,43.9293949 L9.0908521,39.1177656 L48.9667804,24.0384987 L48.9667804,43.9293949 C48.9667804,49.2941092 44.2708269,53.9344839 38.9061126,53.9344839 L19.0644765,53.9344839 Z" id="Fill-1"></path>
            <polygon id="Fill-3" points="53.9993065 43.9398401 68 48.9980279 68 28.979597 53.9993065 34"></polygon>
            <path d="M12.1428571,9.71428571 C5.43514286,9.71428571 0,15.1518571 0,21.8571429 C0,28.5624286 5.43514286,34 12.1428571,34 C18.8505714,34 24.2857143,28.5624286 24.2857143,21.8571429 C24.2857143,15.1518571 18.8505714,9.71428571 12.1428571,9.71428571 M12.1428571,14.5714286 C16.1597143,14.5714286 19.4285714,17.8402857 19.4285714,21.8571429 C19.4285714,25.874 16.1597143,29.1428571 12.1428571,29.1428571 C8.126,29.1428571 4.85714286,25.874 4.85714286,21.8571429 C4.85714286,17.8402857 8.126,14.5714286 12.1428571,14.5714286" id="Fill-5"></path>
            <path d="M36.4285714,0 C29.7208571,0 24.2857143,5.43757143 24.2857143,12.1428571 C24.2857143,18.8481429 29.7208571,24.2857143 36.4285714,24.2857143 C43.1362857,24.2857143 48.5714286,18.8481429 48.5714286,12.1428571 C48.5714286,5.43757143 43.1362857,0 36.4285714,0 M36.4285714,4.85714286 C40.4454286,4.85714286 43.7142857,8.126 43.7142857,12.1428571 C43.7142857,16.1597143 40.4454286,19.4285714 36.4285714,19.4285714 C32.4117143,19.4285714 29.1428571,16.1597143 29.1428571,12.1428571 C29.1428571,8.126 32.4117143,4.85714286 36.4285714,4.85714286" id="Fill-7"></path>
            <polygon id="Fill-9" points="31.5714286 53.4285714 24.2857143 53.4285714 14.5714286 68 21.8571429 68"></polygon>
            <polygon id="Fill-11" points="26.7142857 53.4285714 34 53.4285714 43.7142857 68 36.4285714 68"></polygon>
        </g>
    </g>
</svg>