<?xml version="1.0" encoding="UTF-8"?>
<svg width="116px" height="117px" viewBox="0 0 116 117" version="1.1" xmlns="http://www.w3.org/2000/svg" xmlns:xlink="http://www.w3.org/1999/xlink">
    <!-- Generator: Sketch 63.1 (92452) - https://sketch.com -->
    <title>poi_kindergarten</title>
    <desc>Created with Sketch.</desc>
    <g id="poi_kindergarten" stroke="none" stroke-width="1" fill="none" fill-rule="evenodd" transform="translate(0.000000, 1.000000)">
        <g id="poi/100/bounding">
            <g>
                <circle id="Oval-Shadow-1" fill-opacity="0.02" fill="#000000" cx="58" cy="58" r="58"></circle>
                <circle id="Oval-Shadow-2" fill-opacity="0.02" fill="#000000" cx="58" cy="58" r="56"></circle>
                <circle id="Oval-Shadow-3" fill-opacity="0.02" fill="#000000" cx="58" cy="58" r="54"></circle>
                <circle id="Oval-Shadow-4" fill-opacity="0.02" fill="#000000" cx="58" cy="58" r="52"></circle>
                <circle id="Oval-2" fill="#FFFFFF" cx="58" cy="58" r="50"></circle>
            </g>
        </g>
        <g id="Page-1" transform="translate(24.000000, 25.000000)" fill="#72B8EB">
            <path d="M58,50 C53.5014286,54.944 41.072,58 34,58 C26.928,58 14.4985714,54.944 10,50 L0,50 C4.85714286,60.6666667 19.4285714,66 34,66 C48.5714286,66 63.1428571,60.6666667 68,50 L58,50 Z" id="Fill-1"></path>
            <path d="M0,23 L0,16 L9,7 L9,0 C29.5,0 29,19.96511 29,23 L50,23 C54.929331,22.8 59,25.3675909 59,32 L59,57 L50,57 L50,50 C49.9230769,45.800275 45.3459736,41.04 41,41 L29,41 C21.5953555,41.04 18.1538462,45.4724228 18,50 L18,57 L9,57 L9,23 L0,23 Z" id="Fill-3"></path>
        </g>
    </g>
</svg>