<?xml version="1.0" encoding="UTF-8"?>
<svg width="117px" height="116px" viewBox="0 0 117 116" version="1.1" xmlns="http://www.w3.org/2000/svg" xmlns:xlink="http://www.w3.org/1999/xlink">
    <!-- Generator: Sketch 63.1 (92452) - https://sketch.com -->
    <title>poi_buddhism</title>
    <desc>Created with Sketch.</desc>
    <g id="poi_buddhism" stroke="none" stroke-width="1" fill="none" fill-rule="evenodd" transform="translate(1.000000, 0.000000)">
        <g id="poi/100/bounding">
            <g>
                <circle id="Oval-Shadow-1" fill-opacity="0.02" fill="#000000" cx="58" cy="58" r="58"></circle>
                <circle id="Oval-Shadow-2" fill-opacity="0.02" fill="#000000" cx="58" cy="58" r="56"></circle>
                <circle id="Oval-Shadow-3" fill-opacity="0.02" fill="#000000" cx="58" cy="58" r="54"></circle>
                <circle id="Oval-Shadow-4" fill-opacity="0.02" fill="#000000" cx="58" cy="58" r="52"></circle>
                <circle id="Oval-2" fill="#FFFFFF" cx="58" cy="58" r="50"></circle>
            </g>
        </g>
        <g id="Page-1" transform="translate(24.000000, 24.000000)" fill="#72B8EB">
            <path d="M34,24.2857143 C28.6352857,24.2857143 24.2857143,28.6352857 24.2857143,34 C24.2857143,39.3647143 28.6352857,43.7142857 34,43.7142857 C39.3647143,43.7142857 43.7142857,39.3647143 43.7142857,34 C43.7142857,28.6352857 39.3647143,24.2857143 34,24.2857143 M34,29.1428571 C36.6787143,29.1428571 38.8571429,31.3212857 38.8571429,34 C38.8571429,36.6787143 36.6787143,38.8571429 34,38.8571429 C31.3212857,38.8571429 29.1428571,36.6787143 29.1428571,34 C29.1428571,31.3212857 31.3212857,29.1428571 34,29.1428571" id="Fill-1"></path>
            <path d="M34,4.85714286 C17.9058571,4.85714286 4.85714286,17.9058571 4.85714286,34 C4.85714286,50.0941429 17.9058571,63.1428571 34,63.1428571 C50.0941429,63.1428571 63.1428571,50.0941429 63.1428571,34 C63.1428571,17.9058571 50.0941429,4.85714286 34,4.85714286 M34,9.71428571 C47.3911429,9.71428571 58.2857143,20.6088571 58.2857143,34 C58.2857143,47.3911429 47.3911429,58.2857143 34,58.2857143 C20.6088571,58.2857143 9.71428571,47.3911429 9.71428571,34 C9.71428571,20.6088571 20.6088571,9.71428571 34,9.71428571" id="Fill-3"></path>
            <path d="M34,9.71428571 L34,9.71428571 C31.3188571,9.71428571 29.1428571,7.53828571 29.1428571,4.85714286 C29.1428571,2.176 31.3188571,0 34,0 C36.6811429,0 38.8571429,2.176 38.8571429,4.85714286 C38.8571429,7.53828571 36.6811429,9.71428571 34,9.71428571" id="Fill-5"></path>
            <path d="M14.5714286,19.4285714 L14.5714286,19.4285714 C11.8902857,19.4285714 9.71428571,17.2525714 9.71428571,14.5714286 C9.71428571,11.8902857 11.8902857,9.71428571 14.5714286,9.71428571 C17.2525714,9.71428571 19.4285714,11.8902857 19.4285714,14.5714286 C19.4285714,17.2525714 17.2525714,19.4285714 14.5714286,19.4285714" id="Fill-7"></path>
            <path d="M53.4285714,19.4285714 L53.4285714,19.4285714 C50.7474286,19.4285714 48.5714286,17.2525714 48.5714286,14.5714286 C48.5714286,11.8902857 50.7474286,9.71428571 53.4285714,9.71428571 C56.1097143,9.71428571 58.2857143,11.8902857 58.2857143,14.5714286 C58.2857143,17.2525714 56.1097143,19.4285714 53.4285714,19.4285714" id="Fill-9"></path>
            <path d="M14.5714286,58.2857143 L14.5714286,58.2857143 C11.8902857,58.2857143 9.71428571,56.1097143 9.71428571,53.4285714 C9.71428571,50.7474286 11.8902857,48.5714286 14.5714286,48.5714286 C17.2525714,48.5714286 19.4285714,50.7474286 19.4285714,53.4285714 C19.4285714,56.1097143 17.2525714,58.2857143 14.5714286,58.2857143" id="Fill-11"></path>
            <path d="M53.4285714,58.2857143 L53.4285714,58.2857143 C50.7474286,58.2857143 48.5714286,56.1097143 48.5714286,53.4285714 C48.5714286,50.7474286 50.7474286,48.5714286 53.4285714,48.5714286 C56.1097143,48.5714286 58.2857143,50.7474286 58.2857143,53.4285714 C58.2857143,56.1097143 56.1097143,58.2857143 53.4285714,58.2857143" id="Fill-13"></path>
            <path d="M63.1428571,38.8571429 L63.1428571,38.8571429 C65.824,38.8571429 68,36.6811429 68,34 C68,31.3188571 65.824,29.1428571 63.1428571,29.1428571 C60.4617143,29.1428571 58.2857143,31.3188571 58.2857143,34 C58.2857143,36.6811429 60.4617143,38.8571429 63.1428571,38.8571429" id="Fill-15"></path>
            <path d="M34,58.2857143 L34,58.2857143 C31.3188571,58.2857143 29.1428571,60.4617143 29.1428571,63.1428571 C29.1428571,65.824 31.3188571,68 34,68 C36.6811429,68 38.8571429,65.824 38.8571429,63.1428571 C38.8571429,60.4617143 36.6811429,58.2857143 34,58.2857143" id="Fill-17"></path>
            <path d="M4.85714286,38.8571429 L4.85714286,38.8571429 C2.176,38.8571429 0,36.6811429 0,34 C0,31.3188571 2.176,29.1428571 4.85714286,29.1428571 C7.53828571,29.1428571 9.71428571,31.3188571 9.71428571,34 C9.71428571,36.6811429 7.53828571,38.8571429 4.85714286,38.8571429" id="Fill-19"></path>
            <polygon id="Fill-21" points="4.85714286 36.4285714 29.1428571 36.4285714 29.1428571 31.5714286 4.85714286 31.5714286"></polygon>
            <polygon id="Fill-23" points="38.8571429 36.4285714 63.1428571 36.4285714 63.1428571 31.5714286 38.8571429 31.5714286"></polygon>
            <polygon id="Fill-24" points="31.5714286 29.1428571 36.4285714 29.1428571 36.4285714 4.85714286 31.5714286 4.85714286"></polygon>
            <polygon id="Fill-25" points="31.5714286 63.1428571 36.4285714 63.1428571 36.4285714 38.8571429 31.5714286 38.8571429"></polygon>
            <polygon id="Fill-26" points="52.8901571 11.6756 35.7177286 28.8480286 39.1517286 32.2820286 56.3241571 15.1096"></polygon>
            <polygon id="Fill-27" points="28.8487571 35.717 11.6763286 52.8894286 15.1103286 56.3234286 32.2827571 39.151"></polygon>
            <polygon id="Fill-28" points="56.3244 52.8901571 39.1519714 35.7177286 35.7179714 39.1517286 52.8904 56.3241571"></polygon>
            <polygon id="Fill-29" points="32.283 28.8487571 15.1105714 11.6763286 11.6765714 15.1103286 28.849 32.2827571"></polygon>
        </g>
    </g>
</svg>