<?xml version="1.0" encoding="UTF-8"?>
<svg width="14px" height="14px" viewBox="0 0 14 14" version="1.1" xmlns="http://www.w3.org/2000/svg" xmlns:xlink="http://www.w3.org/1999/xlink">
    <title>poi_diving_1_i copy</title>
    <g id="poi_diving_1_i-copy" stroke="none" stroke-width="1" fill="none" fill-rule="evenodd">
        <g id="poi_diving_1_i" transform="translate(0.000000, 1.000000)">
            <path d="M10,1 C10,0.44772 10.4477,0 11,0 L12,0 C12.5523,0 13,0.44772 13,1 L13,6.5 C13,9.5376 10.5376,12 7.5,12 L5.5,12 C4.11929,12 3,10.8807 3,9.5 L3,9 C1.34315,9 0,7.65685 0,6 L0,4.5 C0,3.11943 1.11899,2 2.49984,2 L8.50016,2 C9.06295,2 9.58224,2.18595 10,2.49974 L10,1 Z" id="Path" fill="#FFFFFF" fill-rule="nonzero"></path>
            <path d="M12,1 L12,6.5 C12,8.98528 9.98528,11 7.5,11 L5.5,11 C4.67157,11 4,10.3284 4,9.5 L4,9 L7,9 L7,10 L7.5,10 C9.433,10 11,8.433 11,6.5 L11,1 L12,1 Z" id="Path" fill="#D91928" fill-rule="nonzero"></path>
            <path d="M2.49984,3 C1.67141,3 1,3.67157 1,4.5 L1,6 C1,7.10457 1.89543,8 3,8 L3.77721,8 C4.202,8 4.57228,7.7109 4.6753,7.29879 L4.87873,6.48507 C4.95,6.19999 5.20615,6 5.5,6 C5.79385,6 6.05,6.19999 6.12127,6.48507 L6.3247,7.29879 C6.42772,7.7109 6.798,8 7.22279,8 L8,8 C9.10457,8 10,7.10457 10,6 L10,4.5 C10,3.67157 9.32859,3 8.50016,3 L2.49984,3 Z M2.5,4 L5,4 C5,4 4.5,5 3,5 L2.49994,5 C2.2238,5 2,4.77614 2,4.5 C2,4.22386 2.22386,4 2.5,4 Z" id="Shape" fill="#D91928"></path>
        </g>
    </g>
</svg>