<svg width="50" height="50" viewBox="0 0 50 50" fill="none" xmlns="http://www.w3.org/2000/svg">
<path d="M0 10C0 4.47715 4.47715 0 10 0H40C45.5228 0 50 4.47715 50 10V40C50 45.5228 45.5228 50 40 50H10C4.47715 50 0 45.5228 0 40V10Z" fill="#3D89F5"/>
<path d="M13 15.5C13 14.1193 14.1193 13 15.5 13C16.8807 13 18 14.1193 18 15.5V18H20.8229L18.8229 22H18V38H13V22H15.1771L17.1771 18H13.8229L11.8229 22H9V18H13V15.5Z" fill="white"/>
<path d="M31.1771 18H34.8229L32.8229 22H29.1771L31.1771 18Z" fill="white"/>
<path d="M42 22H36.1771L38.1771 18H42V22Z" fill="white"/>
<path d="M27.8229 18H24.1771L22.1771 22H25.8229L27.8229 18Z" fill="white"/>
</svg>
