<?xml version="1.0" encoding="UTF-8"?>
<svg width="60px" height="60px" viewBox="0 0 60 60" version="1.1" xmlns="http://www.w3.org/2000/svg" xmlns:xlink="http://www.w3.org/1999/xlink">
    <title>poi_bench_7_i</title>
    <g id="poi_bench_7_i" stroke="none" stroke-width="1" fill="none" fill-rule="evenodd">
        <g id="Group" transform="translate(5.000000, 14.000000)" stroke="#FFFFFF" stroke-width="5">
            <polygon id="Fill-1" points="0 22 50 22 50 17 0 17"></polygon>
            <polygon id="Fill-2" points="7 29 12 29 12 22 7 22"></polygon>
            <polygon id="Fill-3" points="38 29 43 29 43 22 38 22"></polygon>
            <polygon id="Fill-4" points="5 13 45 13 45 0 5 0"></polygon>
        </g>
        <g id="Group" transform="translate(5.000000, 14.000000)" fill="#D91928">
            <polygon id="Fill-1" points="0 22 50 22 50 17 0 17"></polygon>
            <polygon id="Fill-2" points="7 29 12 29 12 22 7 22"></polygon>
            <polygon id="Fill-3" points="38 29 43 29 43 22 38 22"></polygon>
            <polygon id="Fill-4" points="5 13 45 13 45 0 5 0"></polygon>
        </g>
    </g>
</svg>