<?xml version="1.0" encoding="UTF-8"?>
<svg width="64px" height="64px" viewBox="0 0 64 64" version="1.1" xmlns="http://www.w3.org/2000/svg" xmlns:xlink="http://www.w3.org/1999/xlink">
    <title>poi_cafe_i</title>
    <g id="poi_cafe_i" stroke="none" stroke-width="1" fill="none" fill-rule="evenodd">
        <g id="poi/52/bounding-orange-i" transform="translate(2.000000, 2.000000)">
            <circle id="Oval-Shadow" fill-opacity="0.02" fill="#000000" cx="30" cy="30" r="30"></circle>
            <circle id="Oval-Shadow-2" fill-opacity="0.02" fill="#000000" cx="30" cy="30" r="29"></circle>
            <circle id="Oval-Shadow-3" fill-opacity="0.02" fill="#000000" cx="30" cy="30" r="28"></circle>
            <circle id="Oval-Shadow-4" fill-opacity="0.02" fill="#000000" cx="30" cy="30" r="27"></circle>
            <circle id="Oval-2" fill="#F28B3D" cx="30" cy="30" r="26"></circle>
        </g>
        <g id="Page-1" transform="translate(15.000000, 19.000000)" fill="#FFFFFF">
            <path d="M27.4615385,10.4 L23.5384615,10.4 L23.5384615,7.8 L27.4615385,7.8 C29.6244615,7.8 31.3846154,6.0502 31.3846154,3.9 L31.3846154,2.6 L23.5384615,2.6 L23.5384615,0 L34,0 L34,3.9 C34,7.4841 31.0681538,10.4 27.4615385,10.4" id="Fill-1"></path>
            <line x1="11.7692308" y1="18.2" x2="19.6153846" y2="18.2" id="Fill-3"></line>
            <path d="M0.0125440068,21.0647698 C0.0125440068,23.9364698 2.34207692,26 5.23076923,26 L26.1538462,26 C29.0425385,26 30.936552,23.9364698 30.936552,21.0647698 L0.0125440068,21.0647698 Z" id="Fill-5"></path>
            <path d="M2.61538462,0 L6.76207692,14.4287 C7.40415385,16.6608 9.64612813,17.9954041 11.9829743,17.9954041 L19.056932,17.9954041 C21.3937782,17.9954041 23.9804615,16.6608 24.6225385,14.4287 L28.7692308,0 L2.61538462,0 Z" id="Fill-7"></path>
        </g>
    </g>
</svg>