<?xml version="1.0" encoding="UTF-8"?>
<svg width="14px" height="14px" viewBox="0 0 14 14" version="1.1" xmlns="http://www.w3.org/2000/svg" xmlns:xlink="http://www.w3.org/1999/xlink">
    <title>poi_bower_1_i</title>
    <g id="poi_bower_1_i" stroke="none" stroke-width="1" fill="none" fill-rule="evenodd">
        <g id="Group" transform="translate(3.000000, 2.000000)" stroke="#FFFFFF" stroke-width="2">
            <polygon id="Fill-1" points="2.9997 1.9999 -0.0003 3.9999 -0.0003 4.9999 7.9997 4.9999 7.9997 3.9999 5.0007 1.9999"></polygon>
            <polygon id="Fill-2" points="3.9996 0.0001 2.9996 1.0001 2.9996 2.0001 5.0006 2.0001 5.0006 1.0001"></polygon>
            <polygon id="Fill-3" points="2 9 3 9 3 4.999 2 4.999"></polygon>
            <polygon id="Fill-4" points="5 9 6 9 6 4.999 5 4.999"></polygon>
            <polygon id="Fill-5" points="0 9 1 9 1 4.999 0 4.999"></polygon>
            <polygon id="Fill-6" points="7 9 8 9 8 4.999 7 4.999"></polygon>
            <polygon id="Fill-7" points="0 10 8 10 8 8 0 8"></polygon>
        </g>
        <g id="Group" transform="translate(3.000000, 2.000000)" fill="#D91928">
            <polygon id="Fill-1" points="2.9997 1.9999 -0.0003 3.9999 -0.0003 4.9999 7.9997 4.9999 7.9997 3.9999 5.0007 1.9999"></polygon>
            <polygon id="Fill-2" points="3.9996 0.0001 2.9996 1.0001 2.9996 2.0001 5.0006 2.0001 5.0006 1.0001"></polygon>
            <polygon id="Fill-3" points="2 9 3 9 3 4.999 2 4.999"></polygon>
            <polygon id="Fill-4" points="5 9 6 9 6 4.999 5 4.999"></polygon>
            <polygon id="Fill-5" points="0 9 1 9 1 4.999 0 4.999"></polygon>
            <polygon id="Fill-6" points="7 9 8 9 8 4.999 7 4.999"></polygon>
            <polygon id="Fill-7" points="0 10 8 10 8 8 0 8"></polygon>
        </g>
    </g>
</svg>