<?xml version="1.0" encoding="UTF-8"?>
<svg width="14px" height="14px" viewBox="0 0 14 14" version="1.1" xmlns="http://www.w3.org/2000/svg" xmlns:xlink="http://www.w3.org/1999/xlink">
    <title>poi_shower_1_i</title>
    <g id="poi_shower_1_i" stroke="none" stroke-width="1" fill="none" fill-rule="evenodd">
        <g id="Group" transform="translate(3.000000, 1.000000)" stroke="#FFFFFF" stroke-width="2">
            <path d="M1,12 L1,3 C1,1.897 1.897,1 3,1 C4.103,1 5,1.897 5,3 L6,3 C6,1.343 4.656,0 3,0 C1.344,0 0,1.343 0,3 L0,12 L1,12 Z" id="Fill-1"></path>
            <path d="M6,3 L5,3 C3.896,3 3,3.896 3,5 L3,6 L8,6 L8,5 C8,3.896 7.104,3 6,3" id="Fill-3"></path>
            <polygon id="Fill-5" points="3 12 4 12 4 11 3 11"></polygon>
            <polygon id="Fill-7" points="5 12 6 12 6 11 5 11"></polygon>
            <polygon id="Fill-8" points="7 12 8 12 8 11 7 11"></polygon>
            <polygon id="Fill-9" points="3 10 4 10 4 9 3 9"></polygon>
            <polygon id="Fill-10" points="5 10 6 10 6 9 5 9"></polygon>
            <polygon id="Fill-11" points="7 10 8 10 8 9 7 9"></polygon>
            <polygon id="Fill-12" points="3 8 8 8 8 7 3 7"></polygon>
        </g>
        <g id="Group" transform="translate(3.000000, 1.000000)" fill="#D91928">
            <path d="M1,12 L1,3 C1,1.897 1.897,1 3,1 C4.103,1 5,1.897 5,3 L6,3 C6,1.343 4.656,0 3,0 C1.344,0 0,1.343 0,3 L0,12 L1,12 Z" id="Fill-1"></path>
            <path d="M6,3 L5,3 C3.896,3 3,3.896 3,5 L3,6 L8,6 L8,5 C8,3.896 7.104,3 6,3" id="Fill-3"></path>
            <polygon id="Fill-5" points="3 12 4 12 4 11 3 11"></polygon>
            <polygon id="Fill-7" points="5 12 6 12 6 11 5 11"></polygon>
            <polygon id="Fill-8" points="7 12 8 12 8 11 7 11"></polygon>
            <polygon id="Fill-9" points="3 10 4 10 4 9 3 9"></polygon>
            <polygon id="Fill-10" points="5 10 6 10 6 9 5 9"></polygon>
            <polygon id="Fill-11" points="7 10 8 10 8 9 7 9"></polygon>
            <polygon id="Fill-12" points="3 8 8 8 8 7 3 7"></polygon>
        </g>
    </g>
</svg>