<?xml version="1.0" encoding="UTF-8"?>
<svg width="116px" height="116px" viewBox="0 0 116 116" version="1.1" xmlns="http://www.w3.org/2000/svg" xmlns:xlink="http://www.w3.org/1999/xlink">
    <!-- Generator: Sketch 63.1 (92452) - https://sketch.com -->
    <title>poi_cityhall</title>
    <desc>Created with Sketch.</desc>
    <g id="poi_cityhall" stroke="none" stroke-width="1" fill="none" fill-rule="evenodd">
        <g id="poi/100/bounding">
            <g>
                <circle id="Oval-Shadow-1" fill-opacity="0.02" fill="#000000" cx="58" cy="58" r="58"></circle>
                <circle id="Oval-Shadow-2" fill-opacity="0.02" fill="#000000" cx="58" cy="58" r="56"></circle>
                <circle id="Oval-Shadow-3" fill-opacity="0.02" fill="#000000" cx="58" cy="58" r="54"></circle>
                <circle id="Oval-Shadow-4" fill-opacity="0.02" fill="#000000" cx="58" cy="58" r="52"></circle>
                <circle id="Oval-2" fill="#FFFFFF" cx="58" cy="58" r="50"></circle>
            </g>
        </g>
        <g id="Page-1" transform="translate(29.000000, 23.000000)" fill="#72B8EB">
            <polygon id="Fill-1" points="25 15.2307692 34 15.2307692 34 0 25 0"></polygon>
            <path d="M29.5,10.1538462 L29.5,10.1538462 C18.6390833,10.1538462 9.83333333,19.2466154 9.83333333,30.4615385 L49.1666667,30.4615385 C49.1666667,19.2466154 40.3609167,10.1538462 29.5,10.1538462" id="Fill-2"></path>
            <polygon id="Fill-4" points="0 30.0276999 0 61.0292258 14.9806211 61.0292258 14.9806211 45.9752813 29.5 33 44.0237019 45.9752813 44.0237019 60.9230769 59 60.9230769 59 30.0276999"></polygon>
            <polygon id="Fill-6" points="38.9702783 48.0316688 29.4795645 39.9937095 19.9888508 48.0316688 19.9888508 66 38.9702783 66"></polygon>
        </g>
    </g>
</svg>