<?xml version="1.0" encoding="UTF-8"?>
<svg width="64px" height="64px" viewBox="0 0 64 64" version="1.1" xmlns="http://www.w3.org/2000/svg" xmlns:xlink="http://www.w3.org/1999/xlink">
    <title>poi_close_i</title>
    <g id="poi_close_i" stroke="none" stroke-width="1" fill="none" fill-rule="evenodd">
        <g id="poi/52/bounding-green-i" transform="translate(2.000000, 2.000000)">
            <circle id="Oval-Shadow" fill-opacity="0.02" fill="#000000" cx="30" cy="30" r="30"></circle>
            <circle id="Oval-Shadow-2" fill-opacity="0.02" fill="#000000" cx="30" cy="30" r="29"></circle>
            <circle id="Oval-Shadow-3" fill-opacity="0.02" fill="#000000" cx="30" cy="30" r="28"></circle>
            <circle id="Oval-Shadow-4" fill-opacity="0.02" fill="#000000" cx="30" cy="30" r="27"></circle>
            <circle id="Oval-2" fill="#6DC234" cx="30" cy="30" r="26"></circle>
        </g>
        <g id="Page-1" transform="translate(14.000000, 15.000000)" fill="#FFFFFF">
            <path d="M10.2857143,7.90909091 C10.2857143,10.5454545 14.1428571,10.5454545 14.1428571,7.90909091 C14.1428571,5.27272727 15.4285714,3.95454545 18,3.95454545 C19.818,3.95454545 21.8571429,5.27272727 21.8571429,7.90909091 C21.8571429,10.8565455 14.1428571,13.1818182 14.1428571,18.4545455 C14.1428571,19.7727273 18.9745714,19.7331818 19.2857143,18.4545455 C20.5714286,13.1818182 25.7142857,13.1818182 25.7142857,7.90909091 C25.7142857,2.63636364 23.1428571,0 18,0 C12.8571429,0 10.2857143,2.63636364 10.2857143,7.90909091" id="Fill-1"></path>
            <path d="M2.96016619,26.0789823 C2.96016619,26.0789823 7.70667614,20.963086 17.9923904,20.963086 C28.2781047,20.963086 33.0246147,26.0789823 33.0246147,26.0789823 L2.96016619,26.0789823 Z M0,26.3636364 C0,29 2.57142857,29 2.57142857,29 L33.4285714,29 C33.4285714,29 36,28.3409091 36,26.3636364 C36,21.0909091 28.2857143,15.8181818 18,15.8181818 C7.71428571,15.8181818 0,21.5654545 0,26.3636364 Z" id="Fill-3"></path>
        </g>
    </g>
</svg>