<?xml version="1.0" encoding="UTF-8"?>
<svg width="64px" height="64px" viewBox="0 0 64 64" version="1.1" xmlns="http://www.w3.org/2000/svg" xmlns:xlink="http://www.w3.org/1999/xlink">
    <title>poi_kindergarten_i</title>
    <g id="poi_kindergarten_i" stroke="none" stroke-width="1" fill="none" fill-rule="evenodd">
        <g id="poi/52/bounding-blue-i" transform="translate(2.000000, 2.000000)">
            <circle id="Oval-Shadow" fill-opacity="0.02" fill="#000000" cx="30" cy="30" r="30"></circle>
            <circle id="Oval-Shadow-2" fill-opacity="0.02" fill="#000000" cx="30" cy="30" r="29"></circle>
            <circle id="Oval-Shadow-3" fill-opacity="0.02" fill="#000000" cx="30" cy="30" r="28"></circle>
            <circle id="Oval-Shadow-4" fill-opacity="0.02" fill="#000000" cx="30" cy="30" r="27"></circle>
            <circle id="Oval-2" fill="#72B8EB" cx="30" cy="30" r="26"></circle>
        </g>
        <g id="Page-1" transform="translate(14.000000, 15.000000)" fill="#FFFFFF">
            <path d="M30.8571429,26 C28.3242857,28.472 21.744,30 18,30 C14.256,30 7.67571429,28.472 5.14285714,26 L0,26 C2.57142857,31.3333333 10.2857143,34 18,34 C25.7142857,34 33.4285714,31.3333333 36,26 L30.8571429,26 Z" id="Fill-1"></path>
            <path d="M0,11 L0,8 L5,3 L5,0 C15.5,0 15.0667356,9.95991445 15.0667356,11 L26,11 C28.686625,10.5454545 31,12.9063182 31,16 L31,29 L26,29 L26,26 C25.8333333,23.4517727 23.5199583,21.0909091 21,21 L16,21 C12.6467083,21.0909091 10.3333333,23.4517727 10,26 L10,29 L5,29 L5,11 L0,11 Z" id="Fill-3"></path>
        </g>
    </g>
</svg>