<?xml version="1.0" encoding="UTF-8"?>
<svg width="64px" height="64px" viewBox="0 0 64 64" version="1.1" xmlns="http://www.w3.org/2000/svg" xmlns:xlink="http://www.w3.org/1999/xlink">
    <title>poi_police_i</title>
    <g id="poi_police_i" stroke="none" stroke-width="1" fill="none" fill-rule="evenodd">
        <g id="poi/52/bounding-red-i" transform="translate(2.000000, 2.000000)">
            <circle id="Oval-Shadow" fill-opacity="0.02" fill="#000000" cx="30" cy="30" r="30"></circle>
            <circle id="Oval-Shadow-2" fill-opacity="0.02" fill="#000000" cx="30" cy="30" r="29"></circle>
            <circle id="Oval-Shadow-3" fill-opacity="0.02" fill="#000000" cx="30" cy="30" r="28"></circle>
            <circle id="Oval-Shadow-4" fill-opacity="0.02" fill="#000000" cx="30" cy="30" r="27"></circle>
            <circle id="Oval-2" fill="#EB7967" cx="30" cy="30" r="26"></circle>
        </g>
        <g id="Page-1" transform="translate(17.000000, 18.000000)" fill="#FFFFFF">
            <path d="M25,21 L15,21 L5,21 L5,23.6666667 C5,23.6666667 7.5,29 15,29 C22.5,29 25,23.6666667 25,23.6666667 L25,21 Z" id="Fill-1"></path>
            <path d="M15,14 C12.792,14 11,12.2093333 11,10 C11,7.79066667 12.792,6 15,6 C17.2093333,6 19,7.79066667 19,10 C19,12.2093333 17.2093333,14 15,14 M0,10.2857143 C0,15.4285714 5,18 5,18 L25,18 C25,18 30,15.4285714 30,10.2857143 C30,5.14285714 25,0 15,0 C5,0 0,5.14285714 0,10.2857143 Z" id="Fill-3"></path>
        </g>
    </g>
</svg>