<?xml version="1.0" encoding="UTF-8"?>
<svg width="60px" height="60px" viewBox="0 0 60 60" version="1.1" xmlns="http://www.w3.org/2000/svg" xmlns:xlink="http://www.w3.org/1999/xlink">
    <title>poi_traffic_light_7</title>
    <g id="poi_traffic_light_7" stroke="none" stroke-width="1" fill="none" fill-rule="evenodd">
        <g id="Group" transform="translate(19.000000, 5.000000)">
            <path d="M20,50 L2,50 C0.9,50 0,49.1666667 0,48.1481481 L0,1.85185185 C0,0.833333333 0.9,0 2,0 L20,0 C21.1,0 22,0.833333333 22,1.85185185 L22,48.1481481 C22,49.1666667 21.1,50 20,50" id="Fill-1" stroke="#FFFFFF" stroke-width="5"></path>
            <path d="M20,50 L2,50 C0.9,50 0,49.1666667 0,48.1481481 L0,1.85185185 C0,0.833333333 0.9,0 2,0 L20,0 C21.1,0 22,0.833333333 22,1.85185185 L22,48.1481481 C22,49.1666667 21.1,50 20,50" id="Fill-1" fill="#848177"></path>
            <path d="M17,11 C17,14.3137143 14.3137143,17 11,17 C7.68628571,17 5,14.3137143 5,11 C5,7.68628571 7.68628571,5 11,5 C14.3137143,5 17,7.68628571 17,11" id="Fill-3" fill="#F4D7D7"></path>
            <path d="M17,25 C17,28.3137143 14.3137143,31 11,31 C7.68628571,31 5,28.3137143 5,25 C5,21.6862857 7.68628571,19 11,19 C14.3137143,19 17,21.6862857 17,25" id="Fill-5" fill="#F9EEC0"></path>
            <path d="M17,39 C17,42.3137143 14.3137143,45 11,45 C7.68628571,45 5,42.3137143 5,39 C5,35.6862857 7.68628571,33 11,33 C14.3137143,33 17,35.6862857 17,39" id="Fill-7" fill="#E4EAC5"></path>
        </g>
    </g>
</svg>