<?xml version="1.0" encoding="UTF-8"?>
<svg width="64px" height="64px" viewBox="0 0 64 64" version="1.1" xmlns="http://www.w3.org/2000/svg" xmlns:xlink="http://www.w3.org/1999/xlink">
    <title>poi_buddhism_i</title>
    <g id="poi_buddhism_i" stroke="none" stroke-width="1" fill="none" fill-rule="evenodd">
        <g id="poi/52/bounding-blue-i" transform="translate(2.000000, 2.000000)">
            <circle id="Oval-Shadow" fill-opacity="0.02" fill="#000000" cx="30" cy="30" r="30"></circle>
            <circle id="Oval-Shadow-2" fill-opacity="0.02" fill="#000000" cx="30" cy="30" r="29"></circle>
            <circle id="Oval-Shadow-3" fill-opacity="0.02" fill="#000000" cx="30" cy="30" r="28"></circle>
            <circle id="Oval-Shadow-4" fill-opacity="0.02" fill="#000000" cx="30" cy="30" r="27"></circle>
            <circle id="Oval-2" fill="#72B8EB" cx="30" cy="30" r="26"></circle>
        </g>
        <g id="Page-1" transform="translate(14.000000, 14.000000)" fill="#FFFFFF">
            <path d="M18,12.8571429 C15.1598571,12.8571429 12.8571429,15.1598571 12.8571429,18 C12.8571429,20.8401429 15.1598571,23.1428571 18,23.1428571 C20.8401429,23.1428571 23.1428571,20.8401429 23.1428571,18 C23.1428571,15.1598571 20.8401429,12.8571429 18,12.8571429 M18,15.4285714 C19.4181429,15.4285714 20.5714286,16.5818571 20.5714286,18 C20.5714286,19.4181429 19.4181429,20.5714286 18,20.5714286 C16.5818571,20.5714286 15.4285714,19.4181429 15.4285714,18 C15.4285714,16.5818571 16.5818571,15.4285714 18,15.4285714" id="Fill-1"></path>
            <path d="M18,2.57142857 C9.47957143,2.57142857 2.57142857,9.47957143 2.57142857,18 C2.57142857,26.5204286 9.47957143,33.4285714 18,33.4285714 C26.5204286,33.4285714 33.4285714,26.5204286 33.4285714,18 C33.4285714,9.47957143 26.5204286,2.57142857 18,2.57142857 M18,5.14285714 C25.0894286,5.14285714 30.8571429,10.9105714 30.8571429,18 C30.8571429,25.0894286 25.0894286,30.8571429 18,30.8571429 C10.9105714,30.8571429 5.14285714,25.0894286 5.14285714,18 C5.14285714,10.9105714 10.9105714,5.14285714 18,5.14285714" id="Fill-3"></path>
            <path d="M18,5.14285714 L18,5.14285714 C16.5805714,5.14285714 15.4285714,3.99085714 15.4285714,2.57142857 C15.4285714,1.152 16.5805714,0 18,0 C19.4194286,0 20.5714286,1.152 20.5714286,2.57142857 C20.5714286,3.99085714 19.4194286,5.14285714 18,5.14285714" id="Fill-5"></path>
            <path d="M7.71428571,10.2857143 L7.71428571,10.2857143 C6.29485714,10.2857143 5.14285714,9.13371429 5.14285714,7.71428571 C5.14285714,6.29485714 6.29485714,5.14285714 7.71428571,5.14285714 C9.13371429,5.14285714 10.2857143,6.29485714 10.2857143,7.71428571 C10.2857143,9.13371429 9.13371429,10.2857143 7.71428571,10.2857143" id="Fill-7"></path>
            <path d="M28.2857143,10.2857143 L28.2857143,10.2857143 C26.8662857,10.2857143 25.7142857,9.13371429 25.7142857,7.71428571 C25.7142857,6.29485714 26.8662857,5.14285714 28.2857143,5.14285714 C29.7051429,5.14285714 30.8571429,6.29485714 30.8571429,7.71428571 C30.8571429,9.13371429 29.7051429,10.2857143 28.2857143,10.2857143" id="Fill-9"></path>
            <path d="M7.71428571,30.8571429 L7.71428571,30.8571429 C6.29485714,30.8571429 5.14285714,29.7051429 5.14285714,28.2857143 C5.14285714,26.8662857 6.29485714,25.7142857 7.71428571,25.7142857 C9.13371429,25.7142857 10.2857143,26.8662857 10.2857143,28.2857143 C10.2857143,29.7051429 9.13371429,30.8571429 7.71428571,30.8571429" id="Fill-11"></path>
            <path d="M28.2857143,30.8571429 L28.2857143,30.8571429 C26.8662857,30.8571429 25.7142857,29.7051429 25.7142857,28.2857143 C25.7142857,26.8662857 26.8662857,25.7142857 28.2857143,25.7142857 C29.7051429,25.7142857 30.8571429,26.8662857 30.8571429,28.2857143 C30.8571429,29.7051429 29.7051429,30.8571429 28.2857143,30.8571429" id="Fill-13"></path>
            <path d="M33.4285714,20.5714286 L33.4285714,20.5714286 C34.848,20.5714286 36,19.4194286 36,18 C36,16.5805714 34.848,15.4285714 33.4285714,15.4285714 C32.0091429,15.4285714 30.8571429,16.5805714 30.8571429,18 C30.8571429,19.4194286 32.0091429,20.5714286 33.4285714,20.5714286" id="Fill-15"></path>
            <path d="M18,30.8571429 L18,30.8571429 C16.5805714,30.8571429 15.4285714,32.0091429 15.4285714,33.4285714 C15.4285714,34.848 16.5805714,36 18,36 C19.4194286,36 20.5714286,34.848 20.5714286,33.4285714 C20.5714286,32.0091429 19.4194286,30.8571429 18,30.8571429" id="Fill-17"></path>
            <path d="M2.57142857,20.5714286 L2.57142857,20.5714286 C1.152,20.5714286 0,19.4194286 0,18 C0,16.5805714 1.152,15.4285714 2.57142857,15.4285714 C3.99085714,15.4285714 5.14285714,16.5805714 5.14285714,18 C5.14285714,19.4194286 3.99085714,20.5714286 2.57142857,20.5714286" id="Fill-19"></path>
            <polygon id="Fill-21" points="2.57142857 19.2857143 15.4285714 19.2857143 15.4285714 16.7142857 2.57142857 16.7142857"></polygon>
            <polygon id="Fill-23" points="20.5714286 19.2857143 33.4285714 19.2857143 33.4285714 16.7142857 20.5714286 16.7142857"></polygon>
            <polygon id="Fill-24" points="16.7142857 15.4285714 19.2857143 15.4285714 19.2857143 2.57142857 16.7142857 2.57142857"></polygon>
            <polygon id="Fill-25" points="16.7142857 33.4285714 19.2857143 33.4285714 19.2857143 20.5714286 16.7142857 20.5714286"></polygon>
            <polygon id="Fill-26" points="28.0006714 6.1812 18.9093857 15.2724857 20.7273857 17.0904857 29.8186714 7.9992"></polygon>
            <polygon id="Fill-27" points="15.2728714 18.909 6.18158571 28.0002857 7.99958571 29.8182857 17.0908714 20.727"></polygon>
            <polygon id="Fill-28" points="29.8188 28.0006714 20.7275143 18.9093857 18.9095143 20.7273857 28.0008 29.8186714"></polygon>
            <polygon id="Fill-29" points="17.091 15.2728714 7.99971429 6.18158571 6.18171429 7.99958571 15.273 17.0908714"></polygon>
        </g>
    </g>
</svg>