<svg width="40" height="40" viewBox="0 0 40 40" fill="none" xmlns="http://www.w3.org/2000/svg">
<path fill-rule="evenodd" clip-rule="evenodd" d="M0 0H12.5C18.299 0 23 4.70101 23 10.5C23 16.299 18.299 21 12.5 21H10V23.1707C10.3128 23.0602 10.6494 23 11 23H36C37.6569 23 39 24.3431 39 26V36C39 37.6569 37.6569 39 36 39H11C9.34315 39 8 37.6569 8 36V28H0V0Z" fill="white" fill-opacity="0.7"/>
<path fill-rule="evenodd" clip-rule="evenodd" d="M3 3H7H12.5C16.6421 3 20 6.35786 20 10.5C20 14.6421 16.6421 18 12.5 18H7V25H3V3ZM7 14V7H12.5C14.433 7 16 8.567 16 10.5C16 12.433 14.433 14 12.5 14H7ZM31 26H26V31H21V26H16V31H11V36H16V31H21V36H26V31H31V36H36V31H31V26Z" fill="#72B8EB"/>
</svg>
