<?xml version="1.0" encoding="UTF-8"?>
<svg width="116px" height="116px" viewBox="0 0 116 116" version="1.1" xmlns="http://www.w3.org/2000/svg" xmlns:xlink="http://www.w3.org/1999/xlink">
    <!-- Generator: Sketch 63.1 (92452) - https://sketch.com -->
    <title>poi_hospital</title>
    <desc>Created with Sketch.</desc>
    <g id="poi_hospital" stroke="none" stroke-width="1" fill="none" fill-rule="evenodd">
        <g id="poi/100/bounding">
            <g>
                <circle id="Oval-Shadow-1" fill-opacity="0.02" fill="#000000" cx="58" cy="58" r="58"></circle>
                <circle id="Oval-Shadow-2" fill-opacity="0.02" fill="#000000" cx="58" cy="58" r="56"></circle>
                <circle id="Oval-Shadow-3" fill-opacity="0.02" fill="#000000" cx="58" cy="58" r="54"></circle>
                <circle id="Oval-Shadow-4" fill-opacity="0.02" fill="#000000" cx="58" cy="58" r="52"></circle>
                <circle id="Oval-2" fill="#FFFFFF" cx="58" cy="58" r="50"></circle>
            </g>
        </g>
        <path d="M73,56 L73,66 L63,66 L63,76 L53,76 L53,66 L43,66 L43,56 L53,56 L53,46 L63,46 L63,56 L73,56 Z M58,27 L27,43 L27,45 L34,45 L34,77 C34,82.9812227 36.1981798,86 43,86 L73,86 C79.8018202,86 82,82.9767763 82,77 L82,45 L89,45 L89,43 L58,27 Z" id="Page-1" fill="#EB7967"></path>
    </g>
</svg>