<?xml version="1.0" encoding="UTF-8"?>
<svg width="14px" height="14px" viewBox="0 0 14 14" version="1.1" xmlns="http://www.w3.org/2000/svg" xmlns:xlink="http://www.w3.org/1999/xlink">
    <title>poi_atractions_1_i</title>
    <g id="poi_atractions_1_i" stroke="none" stroke-width="1" fill="none" fill-rule="evenodd">
        <g id="Group" transform="translate(2.000000, 3.000000)" fill="#646464" stroke="#FFFFFF" stroke-width="2">
            <polygon id="Fill-3" points="0 5 9 5 9 4 0 4"></polygon>
            <polygon id="Fill-5" points="0 7 1 7 1 5 0 5"></polygon>
            <polygon id="Fill-6" points="2 7 3 7 3 5 2 5"></polygon>
            <polygon id="Fill-7" points="4 7 5 7 5 5 4 5"></polygon>
            <polygon id="Fill-8" points="6 7 7 7 7 5 6 5"></polygon>
            <polygon id="Fill-9" points="8 7 9 7 9 5 8 5"></polygon>
            <path d="M9,2 C9,2 6,2 4.5,0 C3,2 0,2 0,2 L0,3 L9,3 L9,2 Z" id="Fill-10"></path>
            <rect id="Rectangle-4" x="0" y="7" width="9" height="2"></rect>
        </g>
        <g id="Group" transform="translate(2.000000, 3.000000)" fill="#D91928">
            <polygon id="Fill-3" points="0 5 9 5 9 4 0 4"></polygon>
            <polygon id="Fill-5" points="0 7 1 7 1 5 0 5"></polygon>
            <polygon id="Fill-6" points="2 7 3 7 3 5 2 5"></polygon>
            <polygon id="Fill-7" points="4 7 5 7 5 5 4 5"></polygon>
            <polygon id="Fill-8" points="6 7 7 7 7 5 6 5"></polygon>
            <polygon id="Fill-9" points="8 7 9 7 9 5 8 5"></polygon>
            <path d="M9,2 C9,2 6,2 4.5,0 C3,2 0,2 0,2 L0,3 L9,3 L9,2 Z" id="Fill-10"></path>
            <rect id="Rectangle-4" x="0" y="8" width="9" height="1"></rect>
        </g>
    </g>
</svg>