<svg width="60" height="60" viewBox="0 0 60 60" fill="none" xmlns="http://www.w3.org/2000/svg">
<path d="M1.91988 42.6132C1.40845 43.3804 1.36077 44.3667 1.79582 45.1796C2.23087 45.9925 3.07802 46.5 4 46.5H56C56.922 46.5 57.7691 45.9925 58.2042 45.1796C58.6392 44.3667 58.5916 43.3804 58.0801 42.6132L42 18.4931L36 27.4931L24 9.49306L1.91988 42.6132Z" fill="white"/>
<path fill-rule="evenodd" clip-rule="evenodd" d="M24 14L4 44H44L24 14ZM25 28L21 30L24 18.5069L31 29L29 30L25 28Z" fill="#D91928"/>
<path d="M47.0046 44H56.0001L42.0001 23L37.5023 29.7466L47.0046 44Z" fill="#D91928"/>
</svg>
