<svg width="40" height="40" viewBox="0 0 40 40" fill="none" xmlns="http://www.w3.org/2000/svg">
<path fill-rule="evenodd" clip-rule="evenodd" d="M0 0H12.5C18.299 0 23 4.70101 23 10.5C23 16.299 18.299 21 12.5 21H10V26.6736C10.9093 26.2417 11.9264 26 13 26C15.7924 26 18.2029 27.6351 19.3264 30H23V29.772C23 27.2024 24.594 24.9023 27 24L26.5 22H23V14H33L34.5207 26.1656C37.6555 26.8601 40 29.6562 40 33C40 36.866 36.866 40 33 40C31.0927 40 29.3636 39.2372 28.101 38H17.899C16.6364 39.2372 14.9073 40 13 40C9.13401 40 6 36.866 6 33C6 31.0413 6.80447 29.2705 8.10102 28H0V0Z" fill="white" fill-opacity="0.7"/>
<path fill-rule="evenodd" clip-rule="evenodd" d="M3 3H7H12.5C16.6421 3 20 6.35786 20 10.5C20 14.6421 16.6421 18 12.5 18H7V25H3V3ZM7 14V7H12.5C14.433 7 16 8.567 16 10.5C16 12.433 14.433 14 12.5 14H7ZM29.1529 17H26V19H29.1529L30.34 26.1226C27.8595 26.6551 26 28.8604 26 31.5V32.0909C26 32.593 25.593 33 25.0909 33H17C17 30.7909 15.2091 29 13 29C10.7909 29 9 30.7909 9 33C9 35.2091 10.7909 37 13 37C14.4806 37 15.7733 36.1956 16.4649 35H25.0909C26.6976 35 28 33.6976 28 32.0909V31.5C28 29.8532 29.1373 28.472 30.6694 28.0991L30.917 29.5845C29.7673 30.2872 29 31.554 29 33C29 35.2091 30.7909 37 33 37C35.2091 37 37 35.2091 37 33C37 30.7909 35.2091 29 33 29C32.949 29 32.8982 29.001 32.8476 29.0028L31.1257 18.6712C30.9649 17.7068 30.1306 17 29.1529 17ZM13 35C14.1046 35 15 34.1046 15 33C15 31.8954 14.1046 31 13 31C11.8954 31 11 31.8954 11 33C11 34.1046 11.8954 35 13 35ZM33 35C34.1046 35 35 34.1046 35 33C35 31.8954 34.1046 31 33 31C31.8954 31 31 31.8954 31 33C31 34.1046 31.8954 35 33 35Z" fill="#72B8EB"/>
</svg>
