<?xml version="1.0" encoding="UTF-8"?>
<svg width="22px" height="22px" viewBox="0 0 22 22" version="1.1" xmlns="http://www.w3.org/2000/svg" xmlns:xlink="http://www.w3.org/1999/xlink">
    <title>poi_police_2_i</title>
    <g id="poi_police_2_i" stroke="none" stroke-width="1" fill="none" fill-rule="evenodd">
        <g id="Page-1" transform="translate(4.000000, 5.000000)">
            <path d="M12,9 L7,9 L2,9 L2,10.3333333 C2,10.3333333 3.25,13 7,13 C10.75,13 12,10.3333333 12,10.3333333 L12,9 Z" id="Fill-1" stroke="#FFFFFF" stroke-width="2"></path>
            <circle id="Oval" fill="#FFFFFF" cx="6.5" cy="5.5" r="2.5"></circle>
            <path d="M7,7 C5.896,7 5,6.10533333 5,5 C5,3.89466667 5.896,3 7,3 C8.104,3 9,3.89466667 9,5 C9,6.10533333 8.104,7 7,7 M7,0 C2.33333333,0 0,2.28571429 0,4.57142857 C0,6.85714286 2.33333333,8 2.33333333,8 L11.6666667,8 C11.6666667,8 14,6.85714286 14,4.57142857 C14,2.28571429 11.6666667,0 7,0" id="Fill-3" stroke="#FFFFFF" stroke-width="2" fill="#646464"></path>
        </g>
        <g id="Page-1" transform="translate(4.000000, 5.000000)" fill="#D91928">
            <path d="M12,9 L7,9 L2,9 L2,10.3333333 C2,10.3333333 3.25,13 7,13 C10.75,13 12,10.3333333 12,10.3333333 L12,9 Z" id="Fill-1"></path>
            <path d="M7,7 C5.896,7 5,6.10533333 5,5 C5,3.89466667 5.896,3 7,3 C8.104,3 9,3.89466667 9,5 C9,6.10533333 8.104,7 7,7 M7,0 C2.33333333,0 0,2.28571429 0,4.57142857 C0,6.85714286 2.33333333,8 2.33333333,8 L11.6666667,8 C11.6666667,8 14,6.85714286 14,4.57142857 C14,2.28571429 11.6666667,0 7,0" id="Fill-3"></path>
        </g>
    </g>
</svg>