<?xml version="1.0" encoding="UTF-8"?>
<svg width="14px" height="14px" viewBox="0 0 14 14" version="1.1" xmlns="http://www.w3.org/2000/svg" xmlns:xlink="http://www.w3.org/1999/xlink">
    <title>poi_waterfall_1_i</title>
    <g id="poi_waterfall_1_i" stroke="none" stroke-width="1" fill="none" fill-rule="evenodd">
        <g id="Group" transform="translate(2.000000, 1.000000)" stroke="#FFFFFF" stroke-width="2">
            <path d="M2,1 C2.552,1 3,1.449 3,2 L3,5 L4,5 L4,2 C4,0.896 3.104,0 2,0 L0,0 L0,1 L2,1 Z" id="Fill-1"></path>
            <path d="M4,1 C4.552,1 5,1.449 5,2 L5,5 L6,5 L6,2 C6,0.896 5.104,0 4,0 L2,0 L2,1 L4,1 Z" id="Fill-3"></path>
            <path d="M6,1 C6.552,1 7,1.449 7,2 L7,5 L8,5 L8,2 C8,0.896 7.104,0 6,0 L4,0 L4,1 L6,1 Z" id="Fill-5"></path>
            <path d="M2,8 L2,8 C0.896,8 0,8.896 0,10 C0,11.104 0.896,12 2,12 L4,12 L4,10 C4,8.896 3.104,8 2,8" id="Fill-7"></path>
            <path d="M9,8 L9,8 C7.896,8 7,8.896 7,10 L7,12 L9,12 C10.104,12 11,11.104 11,10 C11,8.896 10.104,8 9,8" id="Fill-9"></path>
            <polygon id="Fill-11" points="3 12 3 2 4 2 4 10 5 10 5 2 6 2 6 10 7 10 7 2 8 2 8 12"></polygon>
        </g>
        <g id="Group" transform="translate(2.000000, 1.000000)" fill="#D91928">
            <path d="M2,1 C2.552,1 3,1.449 3,2 L3,5 L4,5 L4,2 C4,0.896 3.104,0 2,0 L0,0 L0,1 L2,1 Z" id="Fill-1"></path>
            <path d="M4,1 C4.552,1 5,1.449 5,2 L5,5 L6,5 L6,2 C6,0.896 5.104,0 4,0 L2,0 L2,1 L4,1 Z" id="Fill-3"></path>
            <path d="M6,1 C6.552,1 7,1.449 7,2 L7,5 L8,5 L8,2 C8,0.896 7.104,0 6,0 L4,0 L4,1 L6,1 Z" id="Fill-5"></path>
            <path d="M2,8 L2,8 C0.896,8 0,8.896 0,10 C0,11.104 0.896,12 2,12 L4,12 L4,10 C4,8.896 3.104,8 2,8" id="Fill-7"></path>
            <path d="M9,8 L9,8 C7.896,8 7,8.896 7,10 L7,12 L9,12 C10.104,12 11,11.104 11,10 C11,8.896 10.104,8 9,8" id="Fill-9"></path>
            <polygon id="Fill-11" points="3 12 3 2 4 2 4 10 5 10 5 2 6 2 6 10 7 10 7 2 8 2 8 12"></polygon>
        </g>
    </g>
</svg>