<?xml version="1.0" encoding="UTF-8"?>
<svg width="60px" height="60px" viewBox="0 0 60 60" version="1.1" xmlns="http://www.w3.org/2000/svg" xmlns:xlink="http://www.w3.org/1999/xlink">
    <title>poi_bookcrossing_7_i</title>
    <g id="poi_bookcrossing_7_i" stroke="none" stroke-width="1" fill="none" fill-rule="evenodd">
        <path d="M41,13 L41,46 L37,46 L21,46 C20.0952381,46.5 18.5714286,45 19,44 C18.5714286,42 20.0952381,40.5 21,41 L37,41 L37,9 L20,9 C16.7291429,9 14,11.6865 14,15 L14,45 C14,48.3135 16.7291429,51 20,51 L37,51 L46,51 L46,46 L46,13 L41,13 Z" id="Fill-1" stroke="#FFFFFF" stroke-width="5"></path>
        <path d="M41,13 L41,46 L37,46 L21,46 C20.0952381,46.5 18.5714286,45 19,44 C18.5714286,42 20.0952381,40.5 21,41 L37,41 L37,9 L20,9 C16.7291429,9 14,11.6865 14,15 L14,45 C14,48.3135 16.7291429,51 20,51 L37,51 L46,51 L46,46 L46,13 L41,13 Z" id="Fill-1" fill="#D91928"></path>
    </g>
</svg>