<?xml version="1.0" encoding="UTF-8"?>
<svg width="14px" height="14px" viewBox="0 0 14 14" version="1.1" xmlns="http://www.w3.org/2000/svg" xmlns:xlink="http://www.w3.org/1999/xlink">
    <title>poi_winact</title>
    <g id="poi_winact" stroke="none" stroke-width="1" fill="none" fill-rule="evenodd">
        <g id="poi_winact_1" transform="translate(0.200000, 0.500000)">
            <path d="M8.35668372,0.445411584 L9.10291372,1.56475158 L10.4454437,1.65133158 C10.9965437,1.68688158 11.4145437,2.16248158 11.3790437,2.71362158 L11.3273437,3.51473158 L12.0469437,3.87054158 C12.5420437,4.11533158 12.7449437,4.71510158 12.5001437,5.21018158 L11.9038437,6.41617158 L12.5001437,7.62208158 C12.7448437,8.11715158 12.5419437,8.71693158 12.0469437,8.96171158 L11.3273437,9.31752158 L11.3789437,10.1186516 C11.4145437,10.6697516 10.9965437,11.1453516 10.4454437,11.1809516 L9.10290372,11.2675516 L8.35667372,12.3868516 C8.05032372,12.8463516 7.42945372,12.9705516 6.96992372,12.6641516 L6.30197372,12.2188516 L5.63402372,12.6641516 C5.17450372,12.9705516 4.55363372,12.8463516 4.24727372,12.3868516 L3.50102372,11.2674516 L2.15854372,11.1808516 C1.60740372,11.1453516 1.18943372,10.6697516 1.22498372,10.1186516 L1.27664372,9.31749158 L0.557029723,8.96168158 C0.0619567226,8.71689158 -0.140940577,8.11712158 0.103846723,7.62205158 L0.700095723,6.41615158 L0.103812723,5.21020158 C-0.140974377,4.71512158 0.0619227226,4.11535158 0.556995723,3.87056158 L1.27661372,3.51475158 L1.22494372,2.71364158 C1.18940372,2.16250158 1.60737372,1.68689158 2.15851372,1.65135158 L3.50104372,1.56477158 L4.24728372,0.445401584 C4.55363372,-0.0141224159 5.17450372,-0.138296416 5.63403372,0.168056584 L6.30198372,0.613351584 L6.96993372,0.168056584 C7.42946372,-0.138296416 8.05033372,-0.0141224159 8.35668372,0.445411584 Z" id="Path" fill="#FFFFFF" fill-rule="nonzero"></path>
            <polygon id="Path" fill="#646464" points="4.52459372 1.83218158 5.80194372 2.68375158 5.80194372 5.55015158 3.31956372 4.11695158 3.22076372 2.58495158 2.22283372 2.64931158 2.31740372 4.11570158 1.00018372 4.76700158 1.44341372 5.66341158 2.81956372 4.98297158 5.30192372 6.41616158 2.81960372 7.84933158 1.44344372 7.16889158 1.00022372 8.06530158 2.31744372 8.71660158 2.22287372 10.1829516 3.22079372 10.2473516 3.31960372 8.71536158 5.80194372 7.28217158 5.80194372 10.1485516 4.52459372 11.0001516 5.07929372 11.8321516 6.30194372 11.0170516 7.52459372 11.8321516 8.07929372 11.0001516 6.80194372 10.1485516 6.80194372 7.28220158 9.28427372 8.71537158 9.38307372 10.2473516 10.3810437 10.1830516 10.2864437 8.71663158 11.6036437 8.06533158 11.1604437 7.16892158 9.78428372 7.84935158 7.30192372 6.41616158 9.78431372 4.98295158 11.1604437 5.66339158 11.6037437 4.76698158 10.2864437 4.11568158 10.3810437 2.64929158 9.38311372 2.58493158 9.28431372 4.11693158 6.80194372 5.55012158 6.80194372 2.68375158 8.07929372 1.83218158 7.52459372 1.00013158 6.30194372 1.81523158 5.07929372 1.00013158"></polygon>
        </g>
    </g>
</svg>