<?xml version="1.0" encoding="UTF-8"?>
<svg width="48px" height="48px" viewBox="0 0 48 48" version="1.1" xmlns="http://www.w3.org/2000/svg" xmlns:xlink="http://www.w3.org/1999/xlink">
    <title>poi_barrier_6_i</title>
    <g id="poi_barrier_6_i" stroke="none" stroke-width="1" fill="none" fill-rule="evenodd">
        <g id="Group" transform="translate(0.000000, 5.000000)">
            <polygon id="Fill-1" fill="#FFFFFF" points="5 37 17 37 17 9 5 9"></polygon>
            <path d="M4,8 L46,8 L46,8 L46,20 L4,20 C1.790861,20 2.705415e-16,18.209139 0,16 L0,12 C-2.705415e-16,9.790861 1.790861,8 4,8 Z" id="Rectangle-3" fill="#FFFFFF"></path>
            <path d="M9,0 L13,0 C15.209139,-4.05812251e-16 17,1.790861 17,4 L17,11 L17,11 L5,11 L5,4 C5,1.790861 6.790861,4.05812251e-16 9,0 Z" id="Rectangle-2" fill="#FFFFFF"></path>
            <path d="M6,10 L44,10 L44,10 L44,18 L6,18 C3.790861,18 2,16.209139 2,14 C2,11.790861 3.790861,10 6,10 Z" id="Rectangle-3" fill="#D91928"></path>
            <line x1="41.5" y1="10.5" x2="34.5" y2="17.5" id="Line-2" stroke="#FFFFFF" stroke-width="4" stroke-linecap="square"></line>
            <line x1="31.5" y1="10.5" x2="24.5" y2="17.5" id="Line-2" stroke="#FFFFFF" stroke-width="4" stroke-linecap="square"></line>
            <line x1="21.5" y1="10.5" x2="14.5" y2="17.5" id="Line-2" stroke="#FFFFFF" stroke-width="4" stroke-linecap="square"></line>
            <line x1="11.5" y1="10.5" x2="4.5" y2="17.5" id="Line-2" stroke="#FFFFFF" stroke-width="4" stroke-linecap="square"></line>
            <polygon id="Fill-1" fill="#D91928" points="7 35 15 35 15 18 7 18"></polygon>
            <polygon id="Fill-1" fill="#D91928" points="7 10 15 10 15 7 7 7"></polygon>
            <path d="M11,3 C11.8284271,3 12.5784271,3.33578644 13.1213203,3.87867966 C13.6642136,4.42157288 14,5.17157288 14,6 L14,6 L14,8 L8,8 L8,6 C8,5.17157288 8.33578644,4.42157288 8.87867966,3.87867966 C9.42157288,3.33578644 10.1715729,3 11,3 L11,3 Z" id="Rectangle-2" stroke="#D91928" stroke-width="2" fill="#FFFFFF"></path>
        </g>
    </g>
</svg>