<?xml version="1.0" encoding="UTF-8"?>
<svg width="22px" height="22px" viewBox="0 0 22 22" version="1.1" xmlns="http://www.w3.org/2000/svg" xmlns:xlink="http://www.w3.org/1999/xlink">
    <title>poi_fountain_2_i</title>
    <g id="poi_fountain_2_i" stroke="none" stroke-width="1" fill="none" fill-rule="evenodd">
        <g id="Group" transform="translate(3.000000, 3.000000)" stroke="#FFFFFF" stroke-width="2">
            <path d="M12,16 L4,16 C1.791,16 0,14.209 0,12 L16,12 C16,14.209 14.209,16 12,16" id="Fill-1"></path>
            <path d="M10,11 L6,11 C4.343,11 3,9.657 3,8 L13,8 C13,9.657 11.657,11 10,11" id="Fill-3"></path>
            <path d="M13.4961,2.9673 C13.3381,2.9673 13.1731,2.9783 13.0001,3.0003 C11.0171,3.2533 9.0001,5.0003 9.0001,7.0003 C9.6661,6.0003 10.2791,5.6663 10.8551,5.6663 C12.0081,5.6663 13.0111,7.0003 14.0001,7.0003 C15.0001,7.0003 16.0001,6.0003 16.0001,5.0003 C16.0001,4.1323 15.1661,2.9673 13.4961,2.9673 M13.4961,3.9673 C14.5581,3.9673 15.0001,4.6403 15.0001,5.0003 C15.0001,5.4483 14.4481,6.0003 14.0001,6.0003 C13.8181,6.0003 13.3961,5.7283 13.0901,5.5303 C12.6091,5.2213 12.0351,4.8523 11.3661,4.7183 C11.9001,4.3323 12.5281,4.0683 13.1271,3.9913 C13.2561,3.9753 13.3791,3.9673 13.4961,3.9673" id="Fill-5"></path>
            <path d="M2.5039,2.9673 C0.8339,2.9673 -0.0001,4.1323 -0.0001,5.0003 C-0.0001,6.0003 0.9999,7.0003 1.9999,7.0003 C2.9889,7.0003 3.9919,5.6663 5.1449,5.6663 C5.7209,5.6663 6.3339,6.0003 6.9999,7.0003 C6.9999,5.0003 4.9829,3.2533 2.9999,3.0003 C2.8269,2.9783 2.6619,2.9673 2.5039,2.9673 M2.5039,3.9673 L2.5039,3.9673 C2.6209,3.9673 2.7439,3.9753 2.8729,3.9913 C3.4719,4.0683 4.0999,4.3323 4.6339,4.7183 C3.9649,4.8523 3.3909,5.2213 2.9099,5.5303 C2.6029,5.7283 2.1819,6.0003 1.9999,6.0003 C1.5519,6.0003 0.9999,5.4483 0.9999,5.0003 C0.9999,4.6403 1.4419,3.9673 2.5039,3.9673" id="Fill-8"></path>
            <path d="M8,0 C6.896,0 6,0.896 6,2 C6,3.104 8,5 8,7 C8,5 10,3.104 10,2 C10,0.896 9.104,0 8,0 M8,1 C8.552,1 9,1.449 9,1.998 C8.99,2.215 8.609,2.857 8.358,3.282 C8.242,3.478 8.121,3.684 8,3.898 C7.879,3.684 7.758,3.478 7.642,3.282 C7.391,2.857 7.01,2.215 7,2 C7,1.449 7.448,1 8,1" id="Fill-11"></path>
        </g>
        <g id="Group" transform="translate(3.000000, 3.000000)" fill="#D91928">
            <path d="M12,16 L4,16 C1.791,16 0,14.209 0,12 L16,12 C16,14.209 14.209,16 12,16" id="Fill-1"></path>
            <path d="M10,11 L6,11 C4.343,11 3,9.657 3,8 L13,8 C13,9.657 11.657,11 10,11" id="Fill-3"></path>
            <path d="M13.4961,2.9673 C13.3381,2.9673 13.1731,2.9783 13.0001,3.0003 C11.0171,3.2533 9.0001,5.0003 9.0001,7.0003 C9.6661,6.0003 10.2791,5.6663 10.8551,5.6663 C12.0081,5.6663 13.0111,7.0003 14.0001,7.0003 C15.0001,7.0003 16.0001,6.0003 16.0001,5.0003 C16.0001,4.1323 15.1661,2.9673 13.4961,2.9673 M13.4961,3.9673 C14.5581,3.9673 15.0001,4.6403 15.0001,5.0003 C15.0001,5.4483 14.4481,6.0003 14.0001,6.0003 C13.8181,6.0003 13.3961,5.7283 13.0901,5.5303 C12.6091,5.2213 12.0351,4.8523 11.3661,4.7183 C11.9001,4.3323 12.5281,4.0683 13.1271,3.9913 C13.2561,3.9753 13.3791,3.9673 13.4961,3.9673" id="Fill-5"></path>
            <path d="M2.5039,2.9673 C0.8339,2.9673 -0.0001,4.1323 -0.0001,5.0003 C-0.0001,6.0003 0.9999,7.0003 1.9999,7.0003 C2.9889,7.0003 3.9919,5.6663 5.1449,5.6663 C5.7209,5.6663 6.3339,6.0003 6.9999,7.0003 C6.9999,5.0003 4.9829,3.2533 2.9999,3.0003 C2.8269,2.9783 2.6619,2.9673 2.5039,2.9673 M2.5039,3.9673 L2.5039,3.9673 C2.6209,3.9673 2.7439,3.9753 2.8729,3.9913 C3.4719,4.0683 4.0999,4.3323 4.6339,4.7183 C3.9649,4.8523 3.3909,5.2213 2.9099,5.5303 C2.6029,5.7283 2.1819,6.0003 1.9999,6.0003 C1.5519,6.0003 0.9999,5.4483 0.9999,5.0003 C0.9999,4.6403 1.4419,3.9673 2.5039,3.9673" id="Fill-8"></path>
            <path d="M8,0 C6.896,0 6,0.896 6,2 C6,3.104 8,5 8,7 C8,5 10,3.104 10,2 C10,0.896 9.104,0 8,0 M8,1 C8.552,1 9,1.449 9,1.998 C8.99,2.215 8.609,2.857 8.358,3.282 C8.242,3.478 8.121,3.684 8,3.898 C7.879,3.684 7.758,3.478 7.642,3.282 C7.391,2.857 7.01,2.215 7,2 C7,1.449 7.448,1 8,1" id="Fill-11"></path>
        </g>
    </g>
</svg>