<?xml version="1.0" encoding="UTF-8"?>
<svg width="60px" height="60px" viewBox="0 0 60 60" version="1.1" xmlns="http://www.w3.org/2000/svg" xmlns:xlink="http://www.w3.org/1999/xlink">
    <title>poi_music_7_i</title>
    <g id="poi_music_7_i" stroke="none" stroke-width="1" fill="none" fill-rule="evenodd">
        <g id="Group" transform="translate(11.000000, 5.000000)" stroke="#FFFFFF" stroke-width="5">
            <path d="M18.5,31 L18.5,31 C13.8065833,31 10,26.83515 10,21.7 L10,9.3 C10,4.16485 13.8065833,0 18.5,0 C23.1934167,0 27,4.16485 27,9.3 L27,21.7 C27,26.83515 23.1934167,31 18.5,31" id="Fill-1"></path>
            <path d="M32.0666667,17 L32.0666667,23 C32.375,30.4445 26.1512917,36.5 18.5,36.2 C10.8487083,36.5 4.625,30.4445 4.93333333,23 L4.93333333,17 L0,17 L0,23 C0,32.9405 8.28183333,41 18.5,41 C28.716625,41 37,32.9405 37,23 L37,17 L32.0666667,17 Z" id="Fill-3"></path>
            <polygon id="Fill-6" points="16 44 22 44 22 39 16 39"></polygon>
            <path d="M23.8235294,44 L15.1764706,44 C11.6865,44 9,46.6865 9,50 L30,50 C30,46.6865 27.3135,44 23.8235294,44" id="Fill-8"></path>
        </g>
        <g id="Group" transform="translate(11.000000, 5.000000)" fill="#D91928">
            <path d="M18.5,31 L18.5,31 C13.8065833,31 10,26.83515 10,21.7 L10,9.3 C10,4.16485 13.8065833,0 18.5,0 C23.1934167,0 27,4.16485 27,9.3 L27,21.7 C27,26.83515 23.1934167,31 18.5,31" id="Fill-1"></path>
            <path d="M32.0666667,17 L32.0666667,23 C32.375,30.4445 26.1512917,36.5 18.5,36.2 C10.8487083,36.5 4.625,30.4445 4.93333333,23 L4.93333333,17 L0,17 L0,23 C0,32.9405 8.28183333,41 18.5,41 C28.716625,41 37,32.9405 37,23 L37,17 L32.0666667,17 Z" id="Fill-3"></path>
            <polygon id="Fill-6" points="16 44 22 44 22 39 16 39"></polygon>
            <path d="M23.8235294,44 L15.1764706,44 C11.6865,44 9,46.6865 9,50 L30,50 C30,46.6865 27.3135,44 23.8235294,44" id="Fill-8"></path>
        </g>
    </g>
</svg>