<svg width="40" height="40" viewBox="0 0 40 40" fill="none" xmlns="http://www.w3.org/2000/svg">
<path fill-rule="evenodd" clip-rule="evenodd" d="M21.5811 1.25654L20 0.729492L18.4189 1.25654L0.418861 7.25654L3.58114 16.7434L8 15.2704V40H20V33H21.5C27.8513 33 33 27.8512 33 21.5C33 19.0499 32.2338 16.7787 30.9279 14.9131L36.4189 16.7434L39.5811 7.25654L21.5811 1.25654Z" fill="white" fill-opacity="0.7"/>
<path fill-rule="evenodd" clip-rule="evenodd" d="M20.6324 4.10266L20 3.89185L19.3675 4.10266L4.36754 9.10266L5.63245 12.8974L20 8.10822L34.3675 12.8974L35.6325 9.10266L20.6324 4.10266ZM12 14H16H21.5C25.6421 14 29 17.3578 29 21.5C29 25.6421 25.6421 29 21.5 29H16V36H12V14ZM16 25V18H21.5C23.433 18 25 19.567 25 21.5C25 23.433 23.433 25 21.5 25H16Z" fill="#D91928"/>
</svg>
