<?xml version="1.0" encoding="UTF-8"?>
<svg width="64px" height="64px" viewBox="0 0 64 64" version="1.1" xmlns="http://www.w3.org/2000/svg" xmlns:xlink="http://www.w3.org/1999/xlink">
    <title>poi_hippodrome_i</title>
    <g id="poi_hippodrome_i" stroke="none" stroke-width="1" fill="none" fill-rule="evenodd">
        <g id="poi/52/bounding-yellow-i" transform="translate(2.000000, 2.000000)">
            <circle id="Oval-Shadow" fill-opacity="0.02" fill="#000000" cx="30" cy="30" r="30"></circle>
            <circle id="Oval-Shadow-2" fill-opacity="0.02" fill="#000000" cx="30" cy="30" r="29"></circle>
            <circle id="Oval-Shadow-3" fill-opacity="0.02" fill="#000000" cx="30" cy="30" r="28"></circle>
            <circle id="Oval-Shadow-4" fill-opacity="0.02" fill="#000000" cx="30" cy="30" r="27"></circle>
            <circle id="Oval-2" fill="#F7B21B" cx="30" cy="30" r="26"></circle>
        </g>
        <g id="Page1" transform="translate(15.000000, 14.000000)" fill="#FFFFFF">
            <polygon id="Page-1" points="7.84615385 -0.000132 5.88461538 2.639868 0.653846154 3.961188 0 6.599868 1.30769231 7.261188 1.30769231 6.599868 3.92176923 6.599868 5.23076923 7.919868 7.84615385 7.261188 7.84615385 10.559868 5.23076923 17.161188 5.23076923 19.799868 3.92176923 22.439868 2.61407692 23.759868 3.90084615 24.990108 7.31523077 28.654428 9.15384615 29.041188 9.15384615 27.721188 7.84615385 27.721188 5.23076923 25.081188 7.84615385 21.119868 10.4615385 19.799868 11.7692308 26.401188 11.7692308 31.679868 11.7692308 32.999868 13.0769231 32.999868 13.0769231 31.679868 13.0769231 29.041188 14.3833077 22.439868 17 19.799868 19.6153846 19.799868 22.8846154 25.739868 20.9230769 31.679868 20.9230769 32.999868 22.2307692 32.999868 22.2307692 31.679868 24.8461538 26.401188 24.8461538 25.081188 23.5384615 19.799868 26.1525385 25.081188 28.7692308 26.401188 28.7692308 32.999868 30.0769231 32.999868 30.0769231 31.679868 30.0769231 25.081188 28.7692308 23.759868 27.4602308 19.799868 28.7692308 17.161188 28.7692308 14.519868 27.4602308 13.201188 28.7692308 11.879868 30.2220769 13.932468 30.2220769 19.653348 34 23.466828 34 17.161188 32.6923077 11.879868 28.7692308 10.559868 26.1525385 11.879868 23.5384615 11.221188 20.9230769 11.879868 15.691 11.879868 13.0769231 10.559868 11.1153846 4.619868 7.84615385 2.639868"></polygon>
        </g>
    </g>
</svg>