<svg width="40" height="40" viewBox="0 0 40 40" fill="none" xmlns="http://www.w3.org/2000/svg">
<path fill-rule="evenodd" clip-rule="evenodd" d="M12.5 0H0V28H10V30H14V40H24V30H40V21H23.9C23.5402 19.2275 22.2428 17.7955 20.548 17.2442C22.0784 15.4199 23 13.0676 23 10.5C23 4.70101 18.299 0 12.5 0ZM14.1 21C14.1085 20.958 14.1176 20.9163 14.1271 20.8747C13.5969 20.9572 13.0534 21 12.5 21H14.1Z" fill="white" fill-opacity="0.7"/>
<path fill-rule="evenodd" clip-rule="evenodd" d="M3 3H7H12.5C16.6421 3 20 6.35786 20 10.5C20 14.6421 16.6421 18 12.5 18H7V25H3V3ZM7 14V7H12.5C14.433 7 16 8.567 16 10.5C16 12.433 14.433 14 12.5 14H7ZM19 20C17.8954 20 17 20.8954 17 22V24H18.9058L18.1558 27H17V37H21V27H21.0942L21.8442 24H21V22C21 20.8954 20.1046 20 19 20ZM33.1558 27H37V24H33.9058L33.1558 27ZM31.8442 24H28.9058L28.1558 27H31.0942L31.8442 24ZM23.9058 24H26.8442L26.0942 27H23.1558L23.9058 24ZM13 24H16.8442L16.0942 27H13V24Z" fill="#D91928"/>
</svg>
