<svg width="60" height="60" viewBox="0 0 60 60" xmlns="http://www.w3.org/2000/svg" xmlns:xlink="http://www.w3.org/1999/xlink"><title>poi_wc_7_i</title><g id="poi_wc_7_i" stroke="none" stroke-width="1" fill="none" fill-rule="evenodd"><g id="Group" transform="translate(6.000000, 9.000000)" stroke="#fff" stroke-width="5"><path d="M19 6.5C19 10.089625 16.089625 13 12.5 13 8.910375 13 6 10.089625 6 6.5 6 2.910375 8.910375.0 12.5.0 16.089625.0 19 2.910375 19 6.5" id="Fill-1"/><path d="M42 6.5C42 10.089625 39.089625 13 35.5 13 31.910375 13 29 10.089625 29 6.5 29 2.910375 31.910375.0 35.5.0 39.089625.0 42 2.910375 42 6.5" id="Fill-3"/><path d="M20.2089484 42H4.79119682C1.3746001 42-.93981719 38.46075.372908812 35.24975L9.62738787 16H16.0075872L24.6272364 35.24975C25.9399624 38.46075 23.62395 42 20.2089484 42" id="Fill-5"/><path d="M27.7911968 16H43.2089484C46.62395 16 48.9399624 19.53925 47.6272364 22.75025L39.0075872 42H32.6273879L23.3729088 22.75025C22.0601828 19.53925 24.3746001 16 27.7911968 16" id="Fill-8"/></g><g id="Group" transform="translate(6.000000, 9.000000)" fill="#d91928"><path d="M19 6.5C19 10.089625 16.089625 13 12.5 13 8.910375 13 6 10.089625 6 6.5 6 2.910375 8.910375.0 12.5.0 16.089625.0 19 2.910375 19 6.5" id="Fill-1"/><path d="M42 6.5C42 10.089625 39.089625 13 35.5 13 31.910375 13 29 10.089625 29 6.5 29 2.910375 31.910375.0 35.5.0 39.089625.0 42 2.910375 42 6.5" id="Fill-3"/><path d="M20.2089484 42H4.79119682C1.3746001 42-.93981719 38.46075.372908812 35.24975L9.62738787 16H16.0075872L24.6272364 35.24975C25.9399624 38.46075 23.62395 42 20.2089484 42" id="Fill-5"/><path d="M27.7911968 16H43.2089484C46.62395 16 48.9399624 19.53925 47.6272364 22.75025L39.0075872 42H32.6273879L23.3729088 22.75025C22.0601828 19.53925 24.3746001 16 27.7911968 16" id="Fill-8"/></g></g></svg>