<?xml version="1.0" encoding="UTF-8"?>
<svg width="64px" height="64px" viewBox="0 0 64 64" version="1.1" xmlns="http://www.w3.org/2000/svg" xmlns:xlink="http://www.w3.org/1999/xlink">
    <title>poi_cinema_i</title>
    <g id="poi_cinema_i" stroke="none" stroke-width="1" fill="none" fill-rule="evenodd">
        <g id="poi/52/bounding-yellow-i" transform="translate(2.000000, 2.000000)">
            <circle id="Oval-Shadow" fill-opacity="0.02" fill="#000000" cx="30" cy="30" r="30"></circle>
            <circle id="Oval-Shadow-2" fill-opacity="0.02" fill="#000000" cx="30" cy="30" r="29"></circle>
            <circle id="Oval-Shadow-3" fill-opacity="0.02" fill="#000000" cx="30" cy="30" r="28"></circle>
            <circle id="Oval-Shadow-4" fill-opacity="0.02" fill="#000000" cx="30" cy="30" r="27"></circle>
            <circle id="Oval-2" fill="#F7B21B" cx="30" cy="30" r="26"></circle>
        </g>
        <g id="Page-1" transform="translate(14.000000, 14.000000)" fill="#FFFFFF">
            <path d="M10.0481425,28.003474 C7.20799969,28.003474 4.99768233,25.8536754 4.99768233,23.0135325 L4.99768233,20.9646513 L25.9570404,12.9929345 L25.9570404,23.1428571 C25.9570404,25.983 23.8515221,28.003474 21.0113792,28.003474 L10.0481425,28.003474 Z" id="Fill-1"></path>
            <polygon id="Fill-3" points="28.0747465 22.9032593 36 25.9787654 36 15.0742993 28.0747465 18"></polygon>
            <path d="M6.42857143,5.14285714 C2.87742857,5.14285714 0,8.02157143 0,11.5714286 C0,15.1212857 2.87742857,18 6.42857143,18 C9.97971429,18 12.8571429,15.1212857 12.8571429,11.5714286 C12.8571429,8.02157143 9.97971429,5.14285714 6.42857143,5.14285714 M6.42857143,7.71428571 C8.55514286,7.71428571 10.2857143,9.44485714 10.2857143,11.5714286 C10.2857143,13.698 8.55514286,15.4285714 6.42857143,15.4285714 C4.302,15.4285714 2.57142857,13.698 2.57142857,11.5714286 C2.57142857,9.44485714 4.302,7.71428571 6.42857143,7.71428571" id="Fill-5"></path>
            <path d="M19.2857143,0 C15.7345714,0 12.8571429,2.87871429 12.8571429,6.42857143 C12.8571429,9.97842857 15.7345714,12.8571429 19.2857143,12.8571429 C22.8368571,12.8571429 25.7142857,9.97842857 25.7142857,6.42857143 C25.7142857,2.87871429 22.8368571,0 19.2857143,0 M19.2857143,2.57142857 C21.4122857,2.57142857 23.1428571,4.302 23.1428571,6.42857143 C23.1428571,8.55514286 21.4122857,10.2857143 19.2857143,10.2857143 C17.1591429,10.2857143 15.4285714,8.55514286 15.4285714,6.42857143 C15.4285714,4.302 17.1591429,2.57142857 19.2857143,2.57142857" id="Fill-7"></path>
            <polygon id="Fill-9" points="17.0358684 27.9969148 13.022064 27.9969148 7.71428571 36 11.5714286 36"></polygon>
            <polygon id="Fill-11" points="14.0655822 27.9917957 18 27.9917957 23.1428571 36 19.2857143 36"></polygon>
        </g>
    </g>
</svg>