<?xml version="1.0" encoding="UTF-8"?>
<svg width="116px" height="116px" viewBox="0 0 116 116" version="1.1" xmlns="http://www.w3.org/2000/svg" xmlns:xlink="http://www.w3.org/1999/xlink">
    <!-- Generator: Sketch 63.1 (92452) - https://sketch.com -->
    <title>poi_bar</title>
    <desc>Created with Sketch.</desc>
    <g id="poi_bar" stroke="none" stroke-width="1" fill="none" fill-rule="evenodd">
        <g id="poi/100/bounding">
            <g>
                <circle id="Oval-Shadow-1" fill-opacity="0.02" fill="#000000" cx="58" cy="58" r="58"></circle>
                <circle id="Oval-Shadow-2" fill-opacity="0.02" fill="#000000" cx="58" cy="58" r="56"></circle>
                <circle id="Oval-Shadow-3" fill-opacity="0.02" fill="#000000" cx="58" cy="58" r="54"></circle>
                <circle id="Oval-Shadow-4" fill-opacity="0.02" fill="#000000" cx="58" cy="58" r="52"></circle>
                <circle id="Oval-2" fill="#FFFFFF" cx="58" cy="58" r="50"></circle>
            </g>
        </g>
        <g id="Page-1" transform="translate(26.000000, 18.000000)" fill="#F28B3D">
            <path d="M15.9045738,66 C11.8815997,66 8,69.755468 8,74 L51,74 C51,69.755468 47.0804682,66 43.0574941,66 L15.9045738,66 Z" id="Fill-1"></path>
            <polygon id="Fill-3" points="46.6153846 0 54 0 29.3846154 36 22 36"></polygon>
            <path d="M16.8744607,30 L10,21 L49,21 L41.8793139,30 L16.8744607,30 Z M0,16 L25.0100632,49.9790898 L25.0100632,66 L33.9999643,66 L33.9999643,49.9790898 L59,16 L0,16 Z" id="Fill-5"></path>
        </g>
    </g>
</svg>