<?xml version="1.0" encoding="UTF-8"?>
<svg width="116px" height="116px" viewBox="0 0 116 116" version="1.1" xmlns="http://www.w3.org/2000/svg" xmlns:xlink="http://www.w3.org/1999/xlink">
    <!-- Generator: Sketch 63.1 (92452) - https://sketch.com -->
    <title>poi_bank</title>
    <desc>Created with Sketch.</desc>
    <g id="poi_bank" stroke="none" stroke-width="1" fill="none" fill-rule="evenodd">
        <g id="poi/100/bounding">
            <g>
                <circle id="Oval-Shadow-1" fill-opacity="0.02" fill="#000000" cx="58" cy="58" r="58"></circle>
                <circle id="Oval-Shadow-2" fill-opacity="0.02" fill="#000000" cx="58" cy="58" r="56"></circle>
                <circle id="Oval-Shadow-3" fill-opacity="0.02" fill="#000000" cx="58" cy="58" r="54"></circle>
                <circle id="Oval-Shadow-4" fill-opacity="0.02" fill="#000000" cx="58" cy="58" r="52"></circle>
                <circle id="Oval-2" fill="#FFFFFF" cx="58" cy="58" r="50"></circle>
            </g>
        </g>
        <path d="M29,74 L87,74 L87,63 L29,63 L29,74 Z M87.1428571,33 L28.8571429,33 C26.176,33 24,35.24 24,38 L24,78 C24,80.76 26.176,83 28.8571429,83 L87.1428571,83 C89.824,83 92,80.76 92,78 L92,38 C92,35.24 89.824,33 87.1428571,33 L87.1428571,33 Z" id="Page-1" fill="#6DC234"></path>
    </g>
</svg>