<?xml version="1.0" encoding="UTF-8"?>
<svg width="64px" height="64px" viewBox="0 0 64 64" version="1.1" xmlns="http://www.w3.org/2000/svg" xmlns:xlink="http://www.w3.org/1999/xlink">
    <title>poi_carservice_i</title>
    <g id="poi_carservice_i" stroke="none" stroke-width="1" fill="none" fill-rule="evenodd">
        <g id="poi/52/bounding-blue-i" transform="translate(2.000000, 2.000000)">
            <circle id="Oval-Shadow" fill-opacity="0.02" fill="#000000" cx="30" cy="30" r="30"></circle>
            <circle id="Oval-Shadow-2" fill-opacity="0.02" fill="#000000" cx="30" cy="30" r="29"></circle>
            <circle id="Oval-Shadow-3" fill-opacity="0.02" fill="#000000" cx="30" cy="30" r="28"></circle>
            <circle id="Oval-Shadow-4" fill-opacity="0.02" fill="#000000" cx="30" cy="30" r="27"></circle>
            <circle id="Oval-2" fill="#72B8EB" cx="30" cy="30" r="26"></circle>
        </g>
        <g id="Page-1" transform="translate(19.000000, 14.000000)" fill="#FFFFFF">
            <path d="M21.0909091,25.7142857 C18.1790455,25.7142857 15.8181818,28.017 15.8181818,30.8571429 C15.8181818,33.6972857 18.1790455,36 21.0909091,36 C24.0027727,36 26.3636364,33.6972857 26.3636364,30.8571429 C26.3636364,28.017 24.0027727,25.7142857 21.0909091,25.7142857 M21.0909091,28.2857143 C22.5448636,28.2857143 23.7272727,29.439 23.7272727,30.8571429 C23.7272727,32.2752857 22.5448636,33.4285714 21.0909091,33.4285714 C19.6369545,33.4285714 18.4545455,32.2752857 18.4545455,30.8571429 C18.4545455,29.439 19.6369545,28.2857143 21.0909091,28.2857143" id="Fill-1"></path>
            <polygon id="Fill-3" points="19.0876441 27.9097256 23.0625843 27.9097256 23.0625843 10.0384426 19.0876441 10.0384426"></polygon>
            <path d="M28.4902591,5.04308571 L25.3833045,8.07351429 C24.5251682,8.91051429 23.1344864,8.91051429 22.2750318,8.07351429 L20.7222136,6.55894286 C19.8640773,5.72194286 19.8640773,4.36551429 20.7222136,3.52851429 L23.8291682,0.498085714 C23.9346227,0.395228571 24.0677591,0.3438 24.1850773,0.266657143 C23.6182591,0.111085714 23.0290318,0.000514285714 22.4094864,0.000514285714 C18.7686682,0.000514285714 15.8185773,2.87794286 15.8185773,6.42908571 C15.8185773,9.97894286 18.7686682,12.8576571 22.4094864,12.8576571 C26.0489864,12.8576571 29.0003955,9.97894286 29.0003955,6.42908571 C29.0003955,5.82351429 28.8870318,5.25008571 28.7275318,4.69465714 C28.6471227,4.81165714 28.5943955,4.94022857 28.4902591,5.04308571" id="Fill-5"></path>
            <polygon id="Fill-6" points="7.06018118 36 2.63636364 36 0 33.4272857 0 21.0884326 3.00467388 21.0884326 3.00467388 10.0288455 0 7.02319742 3.95454545 0 6.09006228 0 10.0549104 7.02319742 7.06018118 10.0288455 7.06018118 21.0884326 10.0549104 21.0884326 10.0549104 33.0726436"></polygon>
        </g>
    </g>
</svg>