<?xml version="1.0" encoding="UTF-8"?>
<svg width="60px" height="60px" viewBox="0 0 60 60" version="1.1" xmlns="http://www.w3.org/2000/svg" xmlns:xlink="http://www.w3.org/1999/xlink">
    <title>poi_ruins_7_i</title>
    <g id="poi_ruins_7_i" stroke="none" stroke-width="1" fill="none" fill-rule="evenodd">
        <g id="Group" transform="translate(12.000000, 5.000000)" stroke="#FFFFFF" stroke-width="5">
            <polygon id="Fill-1" points="0 50 35 50 35 45 0 45"></polygon>
            <path d="M24,38 L10,38 L10,27.0256524 C10,23.7082956 12.9435114,21 17,21 C21.0564886,21 24,23.7082956 24,27.0256524 L24,38 Z M31.019103,15.033226 L31.019103,4.05547529 L26.1422825,4.05547529 L22.0107375,10.0409007 L13.0538186,10.0409007 L9.48318202,14.1388152 L6.03448276,10.0409007 L6.03448276,0 L0,0 L0,42 L35,42 L35,15.033226 L31.019103,15.033226 Z" id="Fill-2"></path>
        </g>
        <g id="Group" transform="translate(12.000000, 5.000000)" fill="#D91928">
            <polygon id="Fill-1" points="0 50 35 50 35 45 0 45"></polygon>
            <path d="M24,38 L10,38 L10,27.0256524 C10,23.7082956 12.9435114,21 17,21 C21.0564886,21 24,23.7082956 24,27.0256524 L24,38 Z M31.019103,15.033226 L31.019103,4.05547529 L26.1422825,4.05547529 L22.0107375,10.0409007 L13.0538186,10.0409007 L9.48318202,14.1388152 L6.03448276,10.0409007 L6.03448276,0 L0,0 L0,42 L35,42 L35,15.033226 L31.019103,15.033226 Z" id="Fill-2"></path>
        </g>
    </g>
</svg>