<?xml version="1.0" encoding="UTF-8"?>
<svg width="116px" height="117px" viewBox="0 0 116 117" version="1.1" xmlns="http://www.w3.org/2000/svg" xmlns:xlink="http://www.w3.org/1999/xlink">
    <!-- Generator: Sketch 63.1 (92452) - https://sketch.com -->
    <title>poi_mall</title>
    <desc>Created with Sketch.</desc>
    <g id="poi_mall" stroke="none" stroke-width="1" fill="none" fill-rule="evenodd" transform="translate(0.000000, 1.000000)">
        <g id="poi/100/bounding">
            <g>
                <circle id="Oval-Shadow-1" fill-opacity="0.02" fill="#000000" cx="58" cy="58" r="58"></circle>
                <circle id="Oval-Shadow-2" fill-opacity="0.02" fill="#000000" cx="58" cy="58" r="56"></circle>
                <circle id="Oval-Shadow-3" fill-opacity="0.02" fill="#000000" cx="58" cy="58" r="54"></circle>
                <circle id="Oval-Shadow-4" fill-opacity="0.02" fill="#000000" cx="58" cy="58" r="52"></circle>
                <circle id="Oval-2" fill="#FFFFFF" cx="58" cy="58" r="50"></circle>
            </g>
        </g>
        <g id="Group-5" transform="translate(28.000000, 28.000000)">
            <path d="M44,21 L16,21 L16,15.75 C16,7.053375 22.2696667,0 30,0 C37.7303333,0 44,7.053375 44,15.75 L44,21 Z" id="Stroke-1" stroke="#6DC234" stroke-width="5"></path>
            <path d="M50,60 L10,60 C4.4775,60 0,55.622 0,50.2222222 L5,16 L55,16 L60,50.2222222 C60,55.622 55.5225,60 50,60" id="Fill-3" fill="#6DC234"></path>
        </g>
    </g>
</svg>