<?xml version="1.0" encoding="UTF-8"?>
<svg width="64px" height="64px" viewBox="0 0 64 64" version="1.1" xmlns="http://www.w3.org/2000/svg" xmlns:xlink="http://www.w3.org/1999/xlink">
    <title>poi_buisness_center_i</title>
    <g id="poi_buisness_center_i" stroke="none" stroke-width="1" fill="none" fill-rule="evenodd">
        <g id="poi/52/bounding-green-i" transform="translate(2.000000, 2.000000)">
            <circle id="Oval-Shadow" fill-opacity="0.02" fill="#000000" cx="30" cy="30" r="30"></circle>
            <circle id="Oval-Shadow-2" fill-opacity="0.02" fill="#000000" cx="30" cy="30" r="29"></circle>
            <circle id="Oval-Shadow-3" fill-opacity="0.02" fill="#000000" cx="30" cy="30" r="28"></circle>
            <circle id="Oval-Shadow-4" fill-opacity="0.02" fill="#000000" cx="30" cy="30" r="27"></circle>
            <circle id="Oval-2" fill="#6DC234" cx="30" cy="30" r="26"></circle>
        </g>
        <path d="M18,47 L24,47 L24,31 L18,31 L18,47 Z M38,45 L29,45 L29,47 L26,47 L26,17 L27,17 L27,15 L37,15 L37,17 L38,17 L38,21 L29,21 L29,23 L46,23 L46,47 L48,47 L48,49 L16,49 L16,47 L38,47 L38,45 Z M38,39 L29,39 L29,41 L38,41 L38,39 Z M38,33 L29,33 L29,35 L38,35 L38,33 Z M38,27 L29,27 L29,29 L38,29 L38,27 Z" id="Rectangle-Copy-7" fill="#FFFFFF"></path>
    </g>
</svg>