<?xml version="1.0" encoding="UTF-8"?>
<svg width="116px" height="117px" viewBox="0 0 116 117" version="1.1" xmlns="http://www.w3.org/2000/svg" xmlns:xlink="http://www.w3.org/1999/xlink">
    <!-- Generator: Sketch 63.1 (92452) - https://sketch.com -->
    <title>poi_buisness_center</title>
    <desc>Created with Sketch.</desc>
    <g id="poi_buisness_center" stroke="none" stroke-width="1" fill="none" fill-rule="evenodd" transform="translate(0.000000, 1.000000)">
        <g id="poi/100/bounding">
            <g>
                <circle id="Oval-Shadow-1" fill-opacity="0.02" fill="#000000" cx="58" cy="58" r="58"></circle>
                <circle id="Oval-Shadow-2" fill-opacity="0.02" fill="#000000" cx="58" cy="58" r="56"></circle>
                <circle id="Oval-Shadow-3" fill-opacity="0.02" fill="#000000" cx="58" cy="58" r="54"></circle>
                <circle id="Oval-Shadow-4" fill-opacity="0.02" fill="#000000" cx="58" cy="58" r="52"></circle>
                <circle id="Oval-2" fill="#FFFFFF" cx="58" cy="58" r="50"></circle>
            </g>
        </g>
        <path d="M32,86 L44,86 L44,62 L32,62 L32,86 Z M72,80 L56,80 L56,86 L48,86 L48,26 L52,26 L52,22 L68,22 L68,26 L72,26 L72,32 L56,32 L56,38 L72,38 L72,44 L56,44 L56,50 L84,50 L84,86 L86,86 L86,90 L30,90 L30,86 L72,86 L72,80 Z M72,68 L56,68 L56,74 L72,74 L72,68 Z M72,56 L56,56 L56,62 L72,62 L72,56 Z" id="Rectangle-Copy-7" fill="#6DC234"></path>
    </g>
</svg>