<?xml version="1.0" encoding="UTF-8"?>
<svg width="14px" height="14px" viewBox="0 0 14 14" version="1.1" xmlns="http://www.w3.org/2000/svg" xmlns:xlink="http://www.w3.org/1999/xlink">
    <title>poi_bicycle_1_i</title>
    <g id="poi_bicycle_1_i" stroke="none" stroke-width="1" fill="none" fill-rule="evenodd">
        <g id="Group" transform="translate(2.000000, 2.000000)" stroke="#FFFFFF" stroke-width="2">
            <path d="M2.5,5 C1.119,5 0,6.119 0,7.5 C0,8.881 1.119,10 2.5,10 C3.881,10 5,8.881 5,7.5 C5,6.119 3.881,5 2.5,5 M2.5,6 C3.327,6 4,6.673 4,7.5 C4,8.327 3.327,9 2.5,9 C1.673,9 1,8.327 1,7.5 C1,6.673 1.673,6 2.5,6" id="Fill-1"></path>
            <path d="M8.5,5 C7.119,5 6,6.119 6,7.5 C6,8.881 7.119,10 8.5,10 C9.881,10 11,8.881 11,7.5 C11,6.119 9.881,5 8.5,5 M8.5,6 C9.327,6 10,6.673 10,7.5 C10,8.327 9.327,9 8.5,9 C7.673,9 7,8.327 7,7.5 C7,6.673 7.673,6 8.5,6" id="Fill-3"></path>
            <path d="M3.9824,5.6309 L3.0144,5.3789 C3.0394,5.2819 3.6594,2.9999 8.0004,2.9999 L8.0004,3.9999 C4.5024,3.9999 4.0024,5.5639 3.9824,5.6309" id="Fill-5"></path>
            <polygon id="Fill-7" points="8.0146 5.6211 7.0146 1.6211 7.9856 1.3791 8.9856 5.3791"></polygon>
            <path d="M4.1475,4.854 C3.9075,4.617 3.1455,4 2.5005,4 L2.5005,3 C3.6725,3 4.7365,4.029 4.8535,4.146 L4.1475,4.854 Z" id="Fill-9"></path>
            <polygon id="Fill-11" points="8 2 5 2 5 0"></polygon>
            <polygon id="Fill-13" points="7 2 10 2 10 0"></polygon>
            <polygon id="Fill-15" points="2 8 3 8 3 7 2 7"></polygon>
            <polygon id="Fill-17" points="8 8 9 8 9 7 8 7"></polygon>
        </g>
        <g id="Group" transform="translate(2.000000, 2.000000)" fill="#D91928">
            <path d="M2.5,5 C1.119,5 0,6.119 0,7.5 C0,8.881 1.119,10 2.5,10 C3.881,10 5,8.881 5,7.5 C5,6.119 3.881,5 2.5,5 M2.5,6 C3.327,6 4,6.673 4,7.5 C4,8.327 3.327,9 2.5,9 C1.673,9 1,8.327 1,7.5 C1,6.673 1.673,6 2.5,6" id="Fill-1"></path>
            <path d="M8.5,5 C7.119,5 6,6.119 6,7.5 C6,8.881 7.119,10 8.5,10 C9.881,10 11,8.881 11,7.5 C11,6.119 9.881,5 8.5,5 M8.5,6 C9.327,6 10,6.673 10,7.5 C10,8.327 9.327,9 8.5,9 C7.673,9 7,8.327 7,7.5 C7,6.673 7.673,6 8.5,6" id="Fill-3"></path>
            <path d="M3.9824,5.6309 L3.0144,5.3789 C3.0394,5.2819 3.6594,2.9999 8.0004,2.9999 L8.0004,3.9999 C4.5024,3.9999 4.0024,5.5639 3.9824,5.6309" id="Fill-5"></path>
            <polygon id="Fill-7" points="8.0146 5.6211 7.0146 1.6211 7.9856 1.3791 8.9856 5.3791"></polygon>
            <path d="M4.1475,4.854 C3.9075,4.617 3.1455,4 2.5005,4 L2.5005,3 C3.6725,3 4.7365,4.029 4.8535,4.146 L4.1475,4.854 Z" id="Fill-9"></path>
            <polygon id="Fill-11" points="8 2 5 2 5 0"></polygon>
            <polygon id="Fill-13" points="7 2 10 2 10 0"></polygon>
            <polygon id="Fill-15" points="2 8 3 8 3 7 2 7"></polygon>
            <polygon id="Fill-17" points="8 8 9 8 9 7 8 7"></polygon>
        </g>
    </g>
</svg>