<?xml version="1.0" encoding="UTF-8"?>
<svg width="60px" height="60px" viewBox="0 0 60 60" version="1.1" xmlns="http://www.w3.org/2000/svg" xmlns:xlink="http://www.w3.org/1999/xlink">
    <title>poi_boats_7_i</title>
    <g id="poi_boats_7_i" stroke="none" stroke-width="1" fill="none" fill-rule="evenodd">
        <g id="Group" transform="translate(3.000000, 14.000000)" stroke="#FFFFFF" stroke-width="5">
            <path d="M0,13 L38,13 L38,17 L42,17 L42,29 L21,29 C11.0528065,29 0,20.8095238 0,14 L0,13 Z" id="Fill-1"></path>
            <polygon id="Stroke-3" fill-rule="nonzero" points="17.5357994 6.30173394 11.3839622 15 6 15 17 0 34 15 29.1182963 16.6773381"></polygon>
            <polygon id="Fill-5" points="41 8.31699234 43.8888889 6 49.6666667 6 54 11.3333333 54 14 41 14"></polygon>
            <polygon id="Fill-7" points="51 14 45 14 45 29 49.5 29"></polygon>
        </g>
        <g id="Group" transform="translate(3.000000, 14.000000)" fill="#D91928">
            <path d="M0,13 L38,13 L38,17 L42,17 L42,29 L21,29 C11.0528065,29 0,20.8095238 0,14 L0,13 Z" id="Fill-1"></path>
            <polygon id="Stroke-3" fill-rule="nonzero" points="17.5357994 6.30173394 11.3839622 15 6 15 17 0 34 15 29.1182963 16.6773381"></polygon>
            <polygon id="Fill-5" points="41 8.31699234 43.8888889 6 49.6666667 6 54 11.3333333 54 14 41 14"></polygon>
            <polygon id="Fill-7" points="51 14 45 14 45 29 49.5 29"></polygon>
        </g>
    </g>
</svg>