<?xml version="1.0" encoding="UTF-8"?>
<svg width="60px" height="60px" viewBox="0 0 60 60" version="1.1" xmlns="http://www.w3.org/2000/svg" xmlns:xlink="http://www.w3.org/1999/xlink">
    <title>poi_playground_7</title>
    <g id="poi_playground_7" stroke="none" stroke-width="1" fill="none" fill-rule="evenodd">
        <g id="Group" transform="translate(8.000000, 6.000000)" stroke="#FFFFFF" stroke-width="5">
            <path d="M43,37 L0,37 L0,41.7142857 C0,45.1855714 2.85233333,48 6.37037037,48 L36.6296296,48 C40.1476667,48 43,45.1855714 43,41.7142857 L43,37 Z" id="Fill-1"></path>
            <polygon id="Fill-3" points="19 37 24 37 24 18 19 18"></polygon>
            <polygon id="Fill-5" points="43 13.5 21.5 0 0 13.5 0 18 43 18"></polygon>
        </g>
        <g id="Group" transform="translate(8.000000, 6.000000)" fill="#646464">
            <path d="M43,37 L0,37 L0,41.7142857 C0,45.1855714 2.85233333,48 6.37037037,48 L36.6296296,48 C40.1476667,48 43,45.1855714 43,41.7142857 L43,37 Z" id="Fill-1"></path>
            <polygon id="Fill-3" points="19 37 24 37 24 18 19 18"></polygon>
            <polygon id="Fill-5" points="43 13.5 21.5 0 0 13.5 0 18 43 18"></polygon>
        </g>
    </g>
</svg>