<?xml version="1.0" encoding="UTF-8"?>
<svg width="60px" height="60px" viewBox="0 0 60 60" version="1.1" xmlns="http://www.w3.org/2000/svg" xmlns:xlink="http://www.w3.org/1999/xlink">
    <title>poi_gym_7_i</title>
    <g id="poi_gym_7_i" stroke="none" stroke-width="1" fill="none" fill-rule="evenodd">
        <g id="Page-1" transform="translate(4.000000, 4.000000)" stroke="#FFFFFF" stroke-width="5">
            <polygon id="Fill-1" points="3.71428571 29.7142857 11.1428571 22.2857143 29.7142857 40.8571429 22.2857143 48.2857143"></polygon>
            <polygon id="Fill-2" points="22.2857143 11.1428571 29.7142857 3.71428571 48.2857143 22.2857143 40.8571429 29.7142857"></polygon>
            <polygon id="Fill-3" points="31.5714286 14.8571429 37.1428571 20.4285714 18.5714286 39 13 33.4285714"></polygon>
            <polygon id="Fill-4" points="39.2498143 0.000185714286 35 4.25 47.7515678 16.9994429 51.9992571 12.7496286"></polygon>
            <polygon id="Fill-5" points="0 39.2498607 12.7495821 51.9994429 16.9994429 47.7517071 4.24986071 35"></polygon>
        </g>
        <g id="Page-1" transform="translate(4.000000, 4.000000)" fill="#D91928">
            <polygon id="Fill-1" points="3.71428571 29.7142857 11.1428571 22.2857143 29.7142857 40.8571429 22.2857143 48.2857143"></polygon>
            <polygon id="Fill-2" points="22.2857143 11.1428571 29.7142857 3.71428571 48.2857143 22.2857143 40.8571429 29.7142857"></polygon>
            <polygon id="Fill-3" points="31.5714286 14.8571429 37.1428571 20.4285714 18.5714286 39 13 33.4285714"></polygon>
            <polygon id="Fill-4" points="39.2498143 0.000185714286 35 4.25 47.7515678 16.9994429 51.9992571 12.7496286"></polygon>
            <polygon id="Fill-5" points="0 39.2498607 12.7495821 51.9994429 16.9994429 47.7517071 4.24986071 35"></polygon>
        </g>
    </g>
</svg>