<?xml version="1.0" encoding="UTF-8"?>
<svg width="60px" height="60px" viewBox="0 0 60 60" version="1.1" xmlns="http://www.w3.org/2000/svg" xmlns:xlink="http://www.w3.org/1999/xlink">
    <title>poi_beach_cabin_7_i</title>
    <g id="poi_beach_cabin_7_i" stroke="none" stroke-width="1" fill="none" fill-rule="evenodd">
        <g id="Group-3" transform="translate(6.000000, 4.000000)" stroke="#FFFFFF" stroke-width="5">
            <path d="M41.3770849,38.2217124 L6.62445177,38.2217124 C5.61641643,38.2217124 4.80046099,37.4064668 4.80046099,36.4061466 C4.80046099,33.932878 6.11736082,31.59115 8.24099625,30.2986874 L23.9992317,20.6901078 L39.7590037,30.2986874 C41.8826392,31.59115 43.2010756,33.932878 43.2010756,36.4061466 C43.2010756,37.4064668 42.3835836,38.2217124 41.3770849,38.2217124 M42.2621891,26.2239889 L28.5999296,17.8925764 C31.5656433,16.2682033 33.6001537,13.1647636 33.6001537,9.55504571 C33.6001537,4.27812756 29.3021737,0 23.9992317,0 C18.6978263,0 14.3998463,4.27812756 14.3998463,9.55504571 L19.2003073,9.55504571 C19.2003073,6.92117526 21.3531389,4.77675808 23.9992317,4.77675808 C26.6468611,4.77675808 28.7996927,6.92117526 28.7996927,9.55504571 C28.7996927,11.4363817 27.63953,12.9582755 26.0844511,13.8117597 C20.8568044,16.6750614 5.73781093,26.2239889 5.73781093,26.2239889 C2.19893076,28.3760538 0,32.2779141 0,36.4061466 C0,40.0403372 2.97186029,43 6.62445177,43 L41.3770849,43 C45.0281397,43 48,40.0403372 48,36.4061466 C48,32.2779141 45.8010692,28.3760538 42.2621891,26.2239889" id="Fill-1"></path>
            <path d="M33.5789474,34 L14.4210526,34 C11.9791579,34 10,36.1264167 10,38.75 L10,53 L38,53 L38,38.75 C38,36.1264167 36.0208421,34 33.5789474,34" id="Fill-4"></path>
        </g>
        <g id="Group-3" transform="translate(6.000000, 4.000000)" fill="#D91928">
            <path d="M41.3770849,38.2217124 L6.62445177,38.2217124 C5.61641643,38.2217124 4.80046099,37.4064668 4.80046099,36.4061466 C4.80046099,33.932878 6.11736082,31.59115 8.24099625,30.2986874 L23.9992317,20.6901078 L39.7590037,30.2986874 C41.8826392,31.59115 43.2010756,33.932878 43.2010756,36.4061466 C43.2010756,37.4064668 42.3835836,38.2217124 41.3770849,38.2217124 M42.2621891,26.2239889 L28.5999296,17.8925764 C31.5656433,16.2682033 33.6001537,13.1647636 33.6001537,9.55504571 C33.6001537,4.27812756 29.3021737,0 23.9992317,0 C18.6978263,0 14.3998463,4.27812756 14.3998463,9.55504571 L19.2003073,9.55504571 C19.2003073,6.92117526 21.3531389,4.77675808 23.9992317,4.77675808 C26.6468611,4.77675808 28.7996927,6.92117526 28.7996927,9.55504571 C28.7996927,11.4363817 27.63953,12.9582755 26.0844511,13.8117597 C20.8568044,16.6750614 5.73781093,26.2239889 5.73781093,26.2239889 C2.19893076,28.3760538 0,32.2779141 0,36.4061466 C0,40.0403372 2.97186029,43 6.62445177,43 L41.3770849,43 C45.0281397,43 48,40.0403372 48,36.4061466 C48,32.2779141 45.8010692,28.3760538 42.2621891,26.2239889" id="Fill-1"></path>
            <path d="M33.5789474,34 L14.4210526,34 C11.9791579,34 10,36.1264167 10,38.75 L10,53 L38,53 L38,38.75 C38,36.1264167 36.0208421,34 33.5789474,34" id="Fill-4"></path>
        </g>
    </g>
</svg>