<?xml version="1.0" encoding="UTF-8"?>
<svg width="30px" height="30px" viewBox="0 0 30 30" version="1.1" xmlns="http://www.w3.org/2000/svg" xmlns:xlink="http://www.w3.org/1999/xlink">
    <title>poi_flower_3_i</title>
    <g id="poi_flower_3_i" stroke="none" stroke-width="1" fill="none" fill-rule="evenodd">
        <g id="Group-14" transform="translate(5.000000, 4.000000)" stroke="#FFFFFF" stroke-width="2">
            <path d="M20,14.6001 L18,14.6001 C14.687,14.6001 12,17.2861 12,20.6001 L12,21.0001 L14,21.0001 C17.313,21.0001 20,18.3131 20,15.0001 L20,14.6001 Z" id="Fill-2"></path>
            <path d="M0,14.6001 L2,14.6001 C5.313,14.6001 8,17.2861 8,20.6001 L8,21.0001 L6,21.0001 C2.687,21.0001 0,18.3131 0,15.0001 L0,14.6001 Z" id="Fill-5"></path>
            <path d="M11,0 L9,0 L7,5 L7,8 C7,9.104 7.896,10 9,10 L11,10 C12.104,10 13,9.104 13,8 L13,5 L11,0 Z" id="Fill-8"></path>
            <path d="M14,0 L12,0 L14,5 L14,8 C14,9.104 13.104,10 12,10 L14,10 C15.104,10 16,9.104 16,8 L16,5 L14,0 Z" id="Fill-10"></path>
            <path d="M6,8 L6,5 L8,0 L6,0 L4,5 L4,8 C4,9.104 4.896,10 6,10 L8,10 C6.896,10 6,9.104 6,8" id="Fill-12"></path>
            <polygon id="Fill-1" points="9 21 11 21 11 10 9 10"></polygon>
        </g>
        <g id="Group-14" transform="translate(5.000000, 4.000000)" fill="#D91928">
            <path d="M20,14.6001 L18,14.6001 C14.687,14.6001 12,17.2861 12,20.6001 L12,21.0001 L14,21.0001 C17.313,21.0001 20,18.3131 20,15.0001 L20,14.6001 Z" id="Fill-2"></path>
            <path d="M0,14.6001 L2,14.6001 C5.313,14.6001 8,17.2861 8,20.6001 L8,21.0001 L6,21.0001 C2.687,21.0001 0,18.3131 0,15.0001 L0,14.6001 Z" id="Fill-5"></path>
            <path d="M11,0 L9,0 L7,5 L7,8 C7,9.104 7.896,10 9,10 L11,10 C12.104,10 13,9.104 13,8 L13,5 L11,0 Z" id="Fill-8"></path>
            <path d="M14,0 L12,0 L14,5 L14,8 C14,9.104 13.104,10 12,10 L14,10 C15.104,10 16,9.104 16,8 L16,5 L14,0 Z" id="Fill-10"></path>
            <path d="M6,8 L6,5 L8,0 L6,0 L4,5 L4,8 C4,9.104 4.896,10 6,10 L8,10 C6.896,10 6,9.104 6,8" id="Fill-12"></path>
            <polygon id="Fill-1" points="9 21 11 21 11 10 9 10"></polygon>
        </g>
    </g>
</svg>