<?xml version="1.0" encoding="UTF-8"?>
<svg width="64px" height="64px" viewBox="0 0 64 64" version="1.1" xmlns="http://www.w3.org/2000/svg" xmlns:xlink="http://www.w3.org/1999/xlink">
    <title>poi_school_i</title>
    <g id="poi_school_i" stroke="none" stroke-width="1" fill="none" fill-rule="evenodd">
        <g id="poi/52/bounding-blue-i" transform="translate(2.000000, 2.000000)">
            <circle id="Oval-Shadow" fill-opacity="0.02" fill="#000000" cx="30" cy="30" r="30"></circle>
            <circle id="Oval-Shadow-2" fill-opacity="0.02" fill="#000000" cx="30" cy="30" r="29"></circle>
            <circle id="Oval-Shadow-3" fill-opacity="0.02" fill="#000000" cx="30" cy="30" r="28"></circle>
            <circle id="Oval-Shadow-4" fill-opacity="0.02" fill="#000000" cx="30" cy="30" r="27"></circle>
            <circle id="Oval-2" fill="#72B8EB" cx="30" cy="30" r="26"></circle>
        </g>
        <g id="Page-1" transform="translate(20.000000, 16.000000)" fill="#FFFFFF">
            <path d="M22,11.4761905 C22,16.5225 17.5225,21 12.4761905,21 C6.4775,21 2,16.5225 2,11.4761905 C2,5.4775 6.4775,1 12.4761905,1 C17.5225,1 22,5.4775 22,11.4761905" id="Fill-1"></path>
            <path d="M21,2 C23.7586531,4.18617847 25,7.15515391 25,11 C25,18.5141809 19.4698349,24 12,24 C8.02129674,24 4.40199398,22.4314743 2,19 L-1.30809534e-14,21 C2.89954853,24.7700776 7.28705794,27 12,27 C20.9262603,27 28,19.964549 28,11 C28,6.85344326 26.1472912,2.857129 23,-1.09313058e-14 L21,2 Z" id="Fill-3"></path>
            <path d="M17,30 L7,30 C5.19466667,30 4,31.792 4,34 L20,34 C20,31.792 18.8053333,30 17,30" id="Fill-1"></path>
            <polygon id="Fill-8" points="10 34 14 34 14 26 10 26"></polygon>
        </g>
    </g>
</svg>