<svg width="50" height="50" viewBox="0 0 50 50" fill="none" xmlns="http://www.w3.org/2000/svg">
<path d="M0 10C0 4.47715 4.47715 0 10 0H40C45.5228 0 50 4.47715 50 10V40C50 45.5228 45.5228 50 40 50H10C4.47715 50 0 45.5228 0 40V10Z" fill="#3D89F5"/>
<path fill-rule="evenodd" clip-rule="evenodd" d="M25 41C33.8366 41 41 33.8366 41 25C41 16.1634 33.8366 9 25 9C16.1634 9 9 16.1634 9 25C9 33.8366 16.1634 41 25 41ZM27 16V12H23V16H22.5C19.4624 16 17 18.4624 17 21.5C17 24.5376 19.4624 27 22.5 27H27.5C28.3284 27 29 27.6716 29 28.5C29 29.3284 28.3284 30 27.5 30H22.1213C21.2935 30 20.4996 29.6711 19.9142 29.0858L17.0858 31.9142C18.4213 33.2497 20.2326 34 22.1213 34H23V38H27V34H27.5C30.5376 34 33 31.5376 33 28.5C33 25.4624 30.5376 23 27.5 23H22.5C21.6716 23 21 22.3284 21 21.5C21 20.6716 21.6716 20 22.5 20H27.8787C28.7065 20 29.5004 20.3289 30.0858 20.9142L32.9142 18.0858C31.5787 16.7503 29.7674 16 27.8787 16H27Z" fill="white"/>
</svg>
