<svg width="40" height="40" viewBox="0 0 40 40" fill="none" xmlns="http://www.w3.org/2000/svg">
<path fill-rule="evenodd" clip-rule="evenodd" d="M0 0H12.5C18.299 0 23 4.70101 23 10.5C23 12.1107 22.6373 13.6368 21.9891 15.0009C23.5312 14.3561 25.224 14 27 14C34.1797 14 40 19.8203 40 27C40 34.1797 34.1797 40 27 40C19.8203 40 14 34.1797 14 27C14 24.6275 14.6356 22.4034 15.7457 20.4887C14.7236 20.8206 13.6327 21 12.5 21H10V28H0V0Z" fill="white" fill-opacity="0.7"/>
<path fill-rule="evenodd" clip-rule="evenodd" d="M7 3H3V25H7V18H12.5C16.6421 18 20 14.6421 20 10.5C20 6.35786 16.6421 3 12.5 3H7ZM7 7V14H12.5C14.433 14 16 12.433 16 10.5C16 8.567 14.433 7 12.5 7H7Z" fill="#72B8EB"/>
<path fill-rule="evenodd" clip-rule="evenodd" d="M27 37C32.5228 37 37 32.5228 37 27C37 21.4772 32.5228 17 27 17C21.4772 17 17 21.4772 17 27C17 32.5228 21.4772 37 27 37ZM28 20H26V22H25C23.3431 22 22 23.3431 22 25C22 26.6569 23.3431 28 25 28H29C29.5523 28 30 28.4477 30 29C30 29.5523 29.5523 30 29 30H26C24.3014 30 23.4941 29.4612 23.075 29.1815L23.0547 29.1679L21.9453 30.8321C22.5322 31.2233 23.7265 32 26 32V34H28V32H29C30.6569 32 32 30.6569 32 29C32 27.3431 30.6569 26 29 26H25C24.4477 26 24 25.5523 24 25C24 24.4477 24.4477 24 25 24H28C29.6986 24 30.5059 24.5388 30.925 24.8185L30.9453 24.8321L32.0547 23.1679C31.4678 22.7767 30.2735 22 28 22V20Z" fill="#72B8EB"/>
</svg>
