<?xml version="1.0" encoding="UTF-8"?>
<svg width="64px" height="64px" viewBox="0 0 64 64" version="1.1" xmlns="http://www.w3.org/2000/svg" xmlns:xlink="http://www.w3.org/1999/xlink">
    <title>poi_carting_i</title>
    <g id="poi_carting_i" stroke="none" stroke-width="1" fill="none" fill-rule="evenodd">
        <g id="poi/52/bounding-yellow-i" transform="translate(2.000000, 2.000000)">
            <circle id="Oval-Shadow" fill-opacity="0.02" fill="#000000" cx="30" cy="30" r="30"></circle>
            <circle id="Oval-Shadow-2" fill-opacity="0.02" fill="#000000" cx="30" cy="30" r="29"></circle>
            <circle id="Oval-Shadow-3" fill-opacity="0.02" fill="#000000" cx="30" cy="30" r="28"></circle>
            <circle id="Oval-Shadow-4" fill-opacity="0.02" fill="#000000" cx="30" cy="30" r="27"></circle>
            <circle id="Oval-2" fill="#F7B21B" cx="30" cy="30" r="26"></circle>
        </g>
        <g id="Page-1" transform="translate(13.000000, 19.000000)" fill="#FFFFFF">
            <path d="M12.5714286,18.1666667 C12.5714286,16.0493889 10.8447143,14.3333333 8.71428571,14.3333333 C6.58385714,14.3333333 4.85714286,16.0493889 4.85714286,18.1666667 C4.85714286,20.2839444 6.58385714,22 8.71428571,22 C10.8447143,22 12.5714286,20.2839444 12.5714286,18.1666667" id="Fill-1"></path>
            <path d="M33.1428571,18.1666667 C33.1428571,16.0493889 31.4161429,14.3333333 29.2857143,14.3333333 C27.1552857,14.3333333 25.4285714,16.0493889 25.4285714,18.1666667 C25.4285714,20.2839444 27.1552857,22 29.2857143,22 C31.4161429,22 33.1428571,20.2839444 33.1428571,18.1666667" id="Fill-3"></path>
            <path d="M6.33397755,8.29765179 C3.18397755,9.34159624 0.999357143,12.4484944 0.999357143,15.7477167 L0.999357143,17.8892722 L3.24675182,17.8892722 C3.24675182,15.0666611 5.89599823,12.7781611 8.73614109,12.7781611 C11.5775697,12.7781611 13.9922476,15.0666611 13.9922476,17.8892722 L21.3643839,17.9919262 L24.0320003,17.9919262 C24.0320003,15.1693151 26.4449286,12.7781611 29.2850714,12.7781611 C32.1265,12.7781611 34.4279286,15.0666611 34.4279286,17.8892722 L36.9993571,17.8892722 L36.9993571,8.03959205 L28.9664063,8.03959205 L28.9664063,5.00391833 L26.0863877,5.00391833 L18.9993571,13 L15.9491257,13 L15.9491257,8.03959205 L13.029344,5.00391833 L6.33397755,8.29765179 Z" id="Fill-5"></path>
            <polygon id="Fill-8" points="12.8571429 2.55555556 14.6580947 0.596961603 19.9753623 5.76117189 18 7.66666667"></polygon>
        </g>
    </g>
</svg>