<?xml version="1.0" encoding="UTF-8"?>
<svg width="40px" height="40px" viewBox="0 0 40 40" version="1.1" xmlns="http://www.w3.org/2000/svg" xmlns:xlink="http://www.w3.org/1999/xlink">
    <title>poi_parking_mix_green_5</title>
    <g id="poi_parking_mix_green_5" stroke="none" stroke-width="1" fill="none" fill-rule="evenodd">
        <g id="Group-2" opacity="0.5" style="mix-blend-mode: multiply;">
            <path d="M40,40 C40,28.954305 31.045695,20 20,20 C8.954305,20 0,28.954305 0,40" id="Oval" fill="#0CED00" transform="translate(20.000000, 30.000000) scale(1, -1) translate(-20.000000, -30.000000) "></path>
            <path d="M40,20 C40,8.954305 31.045695,0 20,0 C8.954305,0 0,8.954305 0,20" id="Oval" fill="#00A4FF"></path>
        </g>
        <g id="Group" transform="translate(14.000000, 9.000000)" stroke="#FFFFFF" stroke-width="3">
            <path d="M9.5,12.5 L0.5,12.5 L0.5,0.5 L9.5,0.5 C12.813,0.5 15.5,3.187 15.5,6.5 C15.5,9.813 12.813,12.5 9.5,12.5 Z" id="Stroke-1"></path>
            <line x1="0.5" y1="8" x2="0.5" y2="22" id="Stroke-3"></line>
        </g>
    </g>
</svg>