<?xml version="1.0" encoding="UTF-8"?>
<svg width="116px" height="116px" viewBox="0 0 116 116" version="1.1" xmlns="http://www.w3.org/2000/svg" xmlns:xlink="http://www.w3.org/1999/xlink">
    <!-- Generator: Sketch 63.1 (92452) - https://sketch.com -->
    <title>poi_close</title>
    <desc>Created with Sketch.</desc>
    <g id="poi_close" stroke="none" stroke-width="1" fill="none" fill-rule="evenodd">
        <g id="poi/100/bounding">
            <g>
                <circle id="Oval-Shadow-1" fill-opacity="0.02" fill="#000000" cx="58" cy="58" r="58"></circle>
                <circle id="Oval-Shadow-2" fill-opacity="0.02" fill="#000000" cx="58" cy="58" r="56"></circle>
                <circle id="Oval-Shadow-3" fill-opacity="0.02" fill="#000000" cx="58" cy="58" r="54"></circle>
                <circle id="Oval-Shadow-4" fill-opacity="0.02" fill="#000000" cx="58" cy="58" r="52"></circle>
                <circle id="Oval-2" fill="#FFFFFF" cx="58" cy="58" r="50"></circle>
            </g>
        </g>
        <g id="Page-1" transform="translate(24.000000, 25.000000)" fill="#6DC234">
            <path d="M19.4285714,15.5454545 C19.4285714,20.7272727 26.7142857,20.7272727 26.7142857,15.5454545 C26.7142857,10.3636364 29.1428571,7.77272727 34,7.77272727 C37.434,7.77272727 41.2857143,10.3636364 41.2857143,15.5454545 C41.2857143,21.3387273 26.7142857,25.9090909 26.7142857,36.2727273 C26.7142857,38.8636364 35.8408571,38.7859091 36.4285714,36.2727273 C38.8571429,25.9090909 48.5714286,25.9090909 48.5714286,15.5454545 C48.5714286,5.18181818 43.7142857,0 34,0 C24.2857143,0 19.4285714,5.18181818 19.4285714,15.5454545" id="Fill-1"></path>
            <path d="M4.98819846,51.9950044 C4.98819846,51.9950044 14.5628702,41.0047362 33.9914416,41.0047362 C53.420013,41.0047362 62.8465123,52.171827 62.9946847,51.9950044 L4.98819846,51.9950044 Z M0,51.8181818 C0,57 4.85714286,57 4.85714286,57 L63.1428571,57 C63.1428571,57 68,55.7045455 68,51.8181818 C68,41.4545455 53.4285714,31.0909091 34,31.0909091 C14.5714286,31.0909091 0,42.3872727 0,51.8181818 Z" id="Fill-3"></path>
        </g>
    </g>
</svg>