<?xml version="1.0" encoding="UTF-8"?>
<svg width="64px" height="64px" viewBox="0 0 64 64" version="1.1" xmlns="http://www.w3.org/2000/svg" xmlns:xlink="http://www.w3.org/1999/xlink">
    <title>poi_library_i</title>
    <g id="poi_library_i" stroke="none" stroke-width="1" fill="none" fill-rule="evenodd">
        <g id="poi/52/bounding-blue-i" transform="translate(2.000000, 2.000000)">
            <circle id="Oval-Shadow" fill-opacity="0.02" fill="#000000" cx="30" cy="30" r="30"></circle>
            <circle id="Oval-Shadow-2" fill-opacity="0.02" fill="#000000" cx="30" cy="30" r="29"></circle>
            <circle id="Oval-Shadow-3" fill-opacity="0.02" fill="#000000" cx="30" cy="30" r="28"></circle>
            <circle id="Oval-Shadow-4" fill-opacity="0.02" fill="#000000" cx="30" cy="30" r="27"></circle>
            <circle id="Oval-2" fill="#72B8EB" cx="30" cy="30" r="26"></circle>
        </g>
        <path d="M42,21 L42,44 L40,44 L24,44 C22.9911664,44 21.9813738,43.317977 21.9813738,41.6281344 C21.9813738,39.9382918 22.9561719,39 24,39 L40,39 L40,16 L24,16 C21.3283,16 19,18.313375 19,21 L19,42 C19,44.686625 21.3283,47 24,47 L40,47 L45,47 L45,44 L45,21 L42,21 Z" id="Page-1" fill="#FFFFFF"></path>
    </g>
</svg>