<svg width="40" height="40" viewBox="0 0 40 40" fill="none" xmlns="http://www.w3.org/2000/svg">
<g clip-path="url(#clip0)">
<path fill-rule="evenodd" clip-rule="evenodd" d="M12.5 0H0V28H10V21H12.5C16.7234 21 20.3644 18.5065 22.0311 14.9114C22.0106 15.1048 22 15.3012 22 15.5C22 16.7654 22.4273 17.931 23.1456 18.8603C23.1255 18.9373 23.1074 19.0151 23.0913 19.0937C17.9584 19.7819 14 24.1787 14 29.5C14 35.299 18.701 40 24.5 40C27.15 40 29.5707 39.0183 31.4182 37.3988L31.4751 37.5125C32.5865 39.7354 35.2896 40.6364 37.5125 39.5249C39.7354 38.4135 40.6364 35.7104 39.5249 33.4875L36.6631 27.7639C36.437 27.3117 36.1479 26.904 35.8095 26.5492C36.5486 25.7474 37 24.6764 37 23.5C37 21.0147 34.9853 19 32.5 19H31.8885C31.8779 18.9532 31.8665 18.9066 31.8544 18.8603C32.5727 17.931 33 16.7654 33 15.5C33 12.4624 30.5376 10 27.5 10C25.4894 10 23.7307 11.0789 22.7714 12.6893C22.9212 11.9832 23 11.2508 23 10.5C23 4.70101 18.299 0 12.5 0Z" fill="white" fill-opacity="0.7"/>
<path fill-rule="evenodd" clip-rule="evenodd" d="M3 3H7H12.5C16.6421 3 20 6.35786 20 10.5C20 14.6421 16.6421 18 12.5 18H7V25H3V3ZM7 14V7H12.5C14.433 7 16 8.567 16 10.5C16 12.433 14.433 14 12.5 14H7ZM30 15.5C30 16.8807 28.8807 18 27.5 18C26.1193 18 25 16.8807 25 15.5C25 14.1193 26.1193 13 27.5 13C28.8807 13 30 14.1193 30 15.5ZM26 29V20H29L29 22H32.5C33.3284 22 34 22.6716 34 23.5C34 24.3284 33.3284 25 32.5 25H29L29 28H32.191C32.9485 28 33.6411 28.4281 33.9798 29.1056L36.8416 34.8292L34.1584 36.1709L31.573 31H28C26.8954 31 26 30.1046 26 29ZM30.5005 34C29.1322 35.8217 26.9537 37 24.5 37C20.3579 37 17 33.6421 17 29.5C17 25.8715 19.5766 22.8449 23 22.15V29C23 31.7614 25.2386 34 28 34H30.5005Z" fill="#72B8EB"/>
</g>
<defs>
<clipPath id="clip0">
<rect width="40" height="40" fill="white"/>
</clipPath>
</defs>
</svg>
