<?xml version="1.0" encoding="UTF-8"?>
<svg width="60px" height="60px" viewBox="0 0 60 60" version="1.1" xmlns="http://www.w3.org/2000/svg" xmlns:xlink="http://www.w3.org/1999/xlink">
    <title>poi_beach_7</title>
    <g id="poi_beach_7" stroke="none" stroke-width="1" fill="none" fill-rule="evenodd">
        <g id="Group" transform="translate(5.000000, 5.000000)" stroke="#FFFFFF" stroke-width="5">
            <polygon id="Fill-1" points="22.5 11 27.5 11 27.5 0 22.5 0"></polygon>
            <polygon id="Fill-2" points="0 30 11 30 11 25 0 25"></polygon>
            <polygon id="Fill-3" points="39 30 50 30 50 25 39 25"></polygon>
            <polygon id="Fill-4" points="7 6 14 13 14 16 11 16 4 9 4 6"></polygon>
            <polygon id="Fill-5" points="43 6 36 13 36 16 39 16 46 9 46 6"></polygon>
            <path d="M25,33.0906083 C27.3488372,33.0906083 29.5315615,33.7938071 31.3521595,35 C34.4551495,32.9483139 36.5,29.4405925 36.5,25.4530413 C36.5,19.1275607 31.3504983,14 25,14 C18.6495017,14 13.5,19.1275607 13.5,25.4530413 C13.5,29.4405925 15.5465116,32.9483139 18.6478405,35 C20.4700997,33.7938071 22.6511628,33.0906083 25,33.0906083 Z" id="Fill-6"></path>
            <path d="M44.23,38 C39.65,38 37.6683333,42 34.615,42 C31.56,42 29.5816667,38 25,38 C20.4183333,38 18.4366667,42 15.3833333,42 C12.33,42 10.35,38 5.77,38 C3.64666667,38 2.01666667,39.2980936 0,39.9982669 L0,45.9982669 C0,45.9982669 2.71333333,43.9982669 5.77,43.9982669 C8.82333333,43.9982669 10.8016667,48 15.3833333,48 C19.965,48 21.865,44.1091854 25,43.9982669 C28.0533333,43.9982669 30.0333333,48 34.615,48 C39.1966667,48 41.1766667,43.9982669 44.23,43.9982669 C46.3733333,43.9982669 50,45.9982669 50,45.9982669 L50,39.9982669 C48.0383333,39.2166378 46.2366667,38 44.23,38" id="Fill-8"></path>
        </g>
        <g id="Group" transform="translate(5.000000, 5.000000)" fill="#646464">
            <polygon id="Fill-1" points="22.5 11 27.5 11 27.5 0 22.5 0"></polygon>
            <polygon id="Fill-2" points="0 30 11 30 11 25 0 25"></polygon>
            <polygon id="Fill-3" points="39 30 50 30 50 25 39 25"></polygon>
            <polygon id="Fill-4" points="7 6 14 13 14 16 11 16 4 9 4 6"></polygon>
            <polygon id="Fill-5" points="43 6 36 13 36 16 39 16 46 9 46 6"></polygon>
            <path d="M18.6478405,35 C20.4700997,33.7938071 22.6511628,33.0906083 25,33.0906083 C27.3488372,33.0906083 29.5315615,33.7938071 31.3521595,35 C34.4551495,32.9483139 36.5,29.4405925 36.5,25.4530413 C36.5,19.1275607 31.3504983,14 25,14 C18.6495017,14 13.5,19.1275607 13.5,25.4530413 C13.5,29.4405925 15.5465116,32.9483139 18.6478405,35" id="Fill-6"></path>
            <path d="M44.23,38 C39.65,38 37.6683333,42 34.615,42 C31.56,42 29.5816667,38 25,38 C20.4183333,38 18.4366667,42 15.3833333,42 C12.33,42 10.35,38 5.77,38 C3.64666667,38 2.01666667,39.2980936 0,39.9982669 L0,45.9982669 C0,45.9982669 2.71333333,43.9982669 5.77,43.9982669 C8.82333333,43.9982669 10.8016667,48 15.3833333,48 C19.965,48 21.865,44.1091854 25,43.9982669 C28.0533333,43.9982669 30.0333333,48 34.615,48 C39.1966667,48 41.1766667,43.9982669 44.23,43.9982669 C46.3733333,43.9982669 50,45.9982669 50,45.9982669 L50,39.9982669 C48.0383333,39.2166378 46.2366667,38 44.23,38" id="Fill-8"></path>
        </g>
    </g>
</svg>