<?xml version="1.0" encoding="UTF-8"?>
<svg width="64px" height="64px" viewBox="0 0 64 64" version="1.1" xmlns="http://www.w3.org/2000/svg" xmlns:xlink="http://www.w3.org/1999/xlink">
    <title>poi_pay_gas_station_i</title>
    <g id="poi_pay_gas_station_i" stroke="none" stroke-width="1" fill="none" fill-rule="evenodd">
        <g id="poi/52/bounding-green-i" transform="translate(2.000000, 2.000000)">
            <circle id="Oval-Shadow" fill-opacity="0.02" fill="#000000" cx="30" cy="30" r="30"></circle>
            <circle id="Oval-Shadow-2" fill-opacity="0.02" fill="#000000" cx="30" cy="30" r="29"></circle>
            <circle id="Oval-Shadow-3" fill-opacity="0.02" fill="#000000" cx="30" cy="30" r="28"></circle>
            <circle id="Oval-Shadow-4" fill-opacity="0.02" fill="#000000" cx="30" cy="30" r="27"></circle>
            <circle id="Oval-2" fill="#6DC234" cx="30" cy="30" r="26"></circle>
        </g>
        <path d="M34.9117514,24.2239233 C36.5348327,24.2239233 37.8506,25.5396906 37.8506,27.1627719 L37.8506,47 L25.3604935,47 L25.3604935,27.1627719 C25.3604935,25.5396906 26.6762608,24.2239233 28.2993421,24.2239233 L34.9117514,24.2239233 Z M24.2116538,27.5503291 L24.2116538,30.1218216 L21.2245949,30.1218216 C20.3376969,30.1218216 19.6139262,30.8202524 19.5732918,31.6971048 L19.5714925,31.7749239 L19.5714925,43.7322192 C19.5714925,44.070314 19.8455725,44.344394 20.1836673,44.344394 C20.5039676,44.344394 20.7668142,44.0984053 20.793595,43.78504 L20.7958421,43.7322192 L20.7958421,38.263138 C20.7958421,36.7713354 21.9814744,35.556452 23.4618439,35.5093831 L23.5510126,35.5079675 L24.2116538,35.5079675 L24.2116538,38.07946 L23.5510126,38.07946 C23.4608414,38.07946 23.3858463,38.1444362 23.3702939,38.2301217 L23.3673346,38.263138 L23.3673346,43.7322192 C23.3673346,45.4905101 21.9419582,46.9158865 20.1836673,46.9158865 C18.4573453,46.9158865 17.0519419,45.5418708 17.001407,43.8277893 L17,43.7322192 L17,31.7749239 C17,29.4776397 18.8336658,27.608631 21.1172286,27.5516668 L21.2245949,27.5503291 L24.2116538,27.5503291 Z M34.9117514,26.7954158 L28.2993421,26.7954158 C28.1109487,26.7954158 27.9556778,26.93723 27.9344575,27.1199304 L27.931986,27.1627719 L27.931,33.04 L35.279,33.04 L35.2791075,27.1627719 C35.2791075,26.9743785 35.1372933,26.8191076 34.9545929,26.7978873 L34.9117514,26.7954158 Z M34.6145808,15 C41.403524,15 46.919904,20.4484906 47.0295527,27.2113036 L47.0312162,27.4166354 L44.4597237,27.4166354 C44.4597237,22.0336863 40.1396187,17.6597519 34.7773883,17.5728115 L34.6145808,17.5714925 L34.6145808,15 Z M34.6145808,19.4482943 C38.9713661,19.4482943 42.5114876,22.9448479 42.5818544,27.2848643 L42.5829219,27.4166354 L40.0114294,27.4166354 C40.0114294,24.4747473 37.6575302,22.0826418 34.7304184,22.0210054 L34.6145808,22.0197868 L34.6145808,19.4482943 Z" id="Combined-Shape" fill="#FFFFFF" fill-rule="nonzero"></path>
    </g>
</svg>