<svg width="92" height="92" viewBox="0 0 92 92" fill="none" xmlns="http://www.w3.org/2000/svg">
<g filter="url(#filter0_d)">
<path d="M46 84C66.9868 84 84 66.9868 84 46C84 25.0132 66.9868 8 46 8C25.0132 8 8 25.0132 8 46C8 66.9868 25.0132 84 46 84Z" fill="#72B8EB"/>
</g>
<path fill-rule="evenodd" clip-rule="evenodd" d="M61.5936 41L58.7636 30.3875C55.8947 29.8171 50.9047 29 46 29C41.0953 29 36.1053 29.8171 33.2364 30.3875L30.4064 41H61.5936ZM26 42L24 45V61V65H28C30.2091 65 32 63.2091 32 61V59H36H56H60V61C60 63.2091 61.7909 65 64 65H68V61V45L66 42L62.6075 29.2781C62.2326 27.8724 61.1274 26.7824 59.7011 26.4958C56.7529 25.9033 51.3765 25 46 25C40.6235 25 35.2471 25.9033 32.2989 26.4958C30.8726 26.7824 29.7674 27.8724 29.3925 29.2781L26 42ZM22 44L24 41L24.5 39H20C18.8954 39 18 39.8954 18 41V41.4384C18 42.3562 18.6246 43.1561 19.5149 43.3787L22 44ZM68 41L70 44L72.4851 43.3787C73.3754 43.1561 74 42.3562 74 41.4384V41C74 39.8954 73.1046 39 72 39H67.5L68 41ZM30 47H36C37.1046 47 38 47.8954 38 49V51H32C30.8954 51 30 50.1046 30 49V47ZM56 47H62V49C62 50.1046 61.1046 51 60 51H54V49C54 47.8954 54.8954 47 56 47Z" fill="white"/>
<defs>
<filter id="filter0_d" x="1" y="1" width="90" height="90" filterUnits="userSpaceOnUse" color-interpolation-filters="sRGB">
<feFlood flood-opacity="0" result="BackgroundImageFix"/>
<feColorMatrix in="SourceAlpha" type="matrix" values="0 0 0 0 0 0 0 0 0 0 0 0 0 0 0 0 0 0 127 0" result="hardAlpha"/>
<feOffset/>
<feGaussianBlur stdDeviation="3.5"/>
<feColorMatrix type="matrix" values="0 0 0 0 0 0 0 0 0 0 0 0 0 0 0 0 0 0 0.15 0"/>
<feBlend mode="normal" in2="BackgroundImageFix" result="effect1_dropShadow"/>
<feBlend mode="normal" in="SourceGraphic" in2="effect1_dropShadow" result="shape"/>
</filter>
</defs>
</svg>
