<?xml version="1.0" encoding="UTF-8"?>
<svg width="16px" height="16px" viewBox="0 0 16 16" version="1.1" xmlns="http://www.w3.org/2000/svg" xmlns:xlink="http://www.w3.org/1999/xlink">
    <title>poi_parking_bike_1_i</title>
    <g id="poi_parking_bike_1_i" stroke="none" stroke-width="1" fill="none" fill-rule="evenodd">
        <g id="Group" transform="translate(1.000000, 1.000000)" stroke="#FFFFFF" stroke-width="2">
            <path d="M2,3 L4,3 C4.552,3 5,2.551 5,2 C5,1.449 4.552,1 4,1 L2,1 L2,3 Z M4,4 L1,4 L1,0 L4,0 C5.103,0 6,0.897 6,2 C6,3.103 5.103,4 4,4 L4,4 Z" id="Fill-1"></path>
            <polygon id="Fill-3" points="1 6 2 6 2 3 1 3"></polygon>
            <path d="M2.5,9 C1.119,9 0,10.119 0,11.5 C0,12.881 1.119,14 2.5,14 C3.881,14 5,12.881 5,11.5 C5,10.119 3.881,9 2.5,9 M2.5,10 C3.327,10 4,10.673 4,11.5 C4,12.327 3.327,13 2.5,13 C1.673,13 1,12.327 1,11.5 C1,10.673 1.673,10 2.5,10" id="Fill-1"></path>
            <path d="M11.5,9 C10.119,9 9,10.119 9,11.5 C9,12.881 10.119,14 11.5,14 C12.881,14 14,12.881 14,11.5 C14,10.119 12.881,9 11.5,9 M11.5,10 C12.327,10 13,10.673 13,11.5 C13,12.327 12.327,13 11.5,13 C10.673,13 10,12.327 10,11.5 C10,10.673 10.673,10 11.5,10" id="Fill-3"></path>
            <polygon id="Fill-5" points="6 5 9 5 9 4 6 4"></polygon>
            <polygon id="Fill-7" points="11.4285714 12 8 5 8.8509571 4.43864604 12.069195 10.7965455"></polygon>
            <path d="M2.67712199,12 L2,11.2717347 C3.19430145,9.98722703 5.8855501,7 9.52113013,7 L10,8.03007829 C7.72536813,8.03007829 4.98814797,9.5144211 2.67712199,12" id="Fill-10"></path>
            <path d="M4.9758256,10 C4.76429959,9.36531539 4.22361321,8.79194778 3.49298511,8.4283488 C2.762357,8.06474982 1.9788474,7.97869089 1.34211094,8.18845953 L1,7.16866122 C1.90654004,6.86530349 2.98899201,6.97502863 3.97539391,7.46664026 C4.95963738,7.95717616 5.69781999,8.75644847 6,9.66006723 L4.9758256,10 Z" id="Fill-11"></path>
        </g>
        <g id="Group" transform="translate(1.000000, 1.000000)" fill="#D91928">
            <path d="M2,3 L4,3 C4.552,3 5,2.551 5,2 C5,1.449 4.552,1 4,1 L2,1 L2,3 Z M4,4 L1,4 L1,0 L4,0 C5.103,0 6,0.897 6,2 C6,3.103 5.103,4 4,4 L4,4 Z" id="Fill-1"></path>
            <polygon id="Fill-3" points="1 6 2 6 2 3 1 3"></polygon>
            <path d="M2.5,9 C1.119,9 0,10.119 0,11.5 C0,12.881 1.119,14 2.5,14 C3.881,14 5,12.881 5,11.5 C5,10.119 3.881,9 2.5,9 M2.5,10 C3.327,10 4,10.673 4,11.5 C4,12.327 3.327,13 2.5,13 C1.673,13 1,12.327 1,11.5 C1,10.673 1.673,10 2.5,10" id="Fill-1"></path>
            <path d="M11.5,9 C10.119,9 9,10.119 9,11.5 C9,12.881 10.119,14 11.5,14 C12.881,14 14,12.881 14,11.5 C14,10.119 12.881,9 11.5,9 M11.5,10 C12.327,10 13,10.673 13,11.5 C13,12.327 12.327,13 11.5,13 C10.673,13 10,12.327 10,11.5 C10,10.673 10.673,10 11.5,10" id="Fill-3"></path>
            <polygon id="Fill-5" points="6 5 9 5 9 4 6 4"></polygon>
            <polygon id="Fill-7" points="11.4285714 12 8 5 8.57142857 4 12 11"></polygon>
            <path d="M2.67712199,12 L2,11.2717347 C3.19430145,9.98722703 5.8855501,7 9.52113013,7 L10,8.03007829 C7.72536813,8.03007829 4.98814797,9.5144211 2.67712199,12" id="Fill-10"></path>
            <path d="M4.9758256,10 C4.76429959,9.36531539 4.22361321,8.79194778 3.49298511,8.4283488 C2.762357,8.06474982 1.9788474,7.97869089 1.34211094,8.18845953 L1,7.16866122 C1.90654004,6.86530349 2.98899201,6.97502863 3.97539391,7.46664026 C4.95963738,7.95717616 5.69781999,8.75644847 6,9.66006723 L4.9758256,10 Z" id="Fill-11"></path>
        </g>
    </g>
</svg>