<?xml version="1.0" encoding="UTF-8"?>
<svg width="14px" height="14px" viewBox="0 0 14 14" version="1.1" xmlns="http://www.w3.org/2000/svg" xmlns:xlink="http://www.w3.org/1999/xlink">
    <title>poi_showplace_1_i</title>
    <g id="poi_showplace_1_i" stroke="none" stroke-width="1" fill="none" fill-rule="evenodd">
        <g id="Group" transform="translate(2.000000, 2.000000)" stroke="#FFFFFF" stroke-width="2">
            <path d="M2,4 L2,4 C0.896,4 0,3.104 0,2 C0,0.896 0.896,0 2,0 L4,0 L4,2 C4,3.104 3.104,4 2,4" id="Fill-1"></path>
            <path d="M9,4 L9,4 C7.896,4 7,3.104 7,2 L7,0 L9,0 C10.104,0 11,0.896 11,2 C11,3.104 10.104,4 9,4" id="Fill-3"></path>
            <polygon id="Fill-5" points="3 0 3 10 4 10 4 2 5 2 5 10 6 10 6 2 7 2 7 10 8 10 8 0"></polygon>
        </g>
        <g id="Group" transform="translate(2.000000, 2.000000)" fill="#D91928">
            <path d="M2,4 L2,4 C0.896,4 0,3.104 0,2 C0,0.896 0.896,0 2,0 L4,0 L4,2 C4,3.104 3.104,4 2,4" id="Fill-1"></path>
            <path d="M9,4 L9,4 C7.896,4 7,3.104 7,2 L7,0 L9,0 C10.104,0 11,0.896 11,2 C11,3.104 10.104,4 9,4" id="Fill-3"></path>
            <polygon id="Fill-5" points="3 0 3 10 4 10 4 2 5 2 5 10 6 10 6 2 7 2 7 10 8 10 8 0"></polygon>
        </g>
    </g>
</svg>