<?xml version="1.0" encoding="UTF-8"?>
<svg width="116px" height="116px" viewBox="0 0 116 116" version="1.1" xmlns="http://www.w3.org/2000/svg" xmlns:xlink="http://www.w3.org/1999/xlink">
    <!-- Generator: Sketch 63.1 (92452) - https://sketch.com -->
    <title>poi_hippodrome</title>
    <desc>Created with Sketch.</desc>
    <g id="poi_hippodrome" stroke="none" stroke-width="1" fill="none" fill-rule="evenodd">
        <g id="Page1" transform="translate(5.000000, 5.000000)">
            <g id="poi/100/bounding" transform="translate(-5.000000, -5.000000)">
                <g>
                    <circle id="Oval-Shadow-1" fill-opacity="0.02" fill="#000000" cx="58" cy="58" r="58"></circle>
                    <circle id="Oval-Shadow-2" fill-opacity="0.02" fill="#000000" cx="58" cy="58" r="56"></circle>
                    <circle id="Oval-Shadow-3" fill-opacity="0.02" fill="#000000" cx="58" cy="58" r="54"></circle>
                    <circle id="Oval-Shadow-4" fill-opacity="0.02" fill="#000000" cx="58" cy="58" r="52"></circle>
                    <circle id="Oval-2" fill="#FFFFFF" cx="58" cy="58" r="50"></circle>
                </g>
            </g>
            <polygon id="Page-1" fill="#F7B21B" points="35.2307692 17.99974 31.4230769 23.19974 21.2692308 25.80234 20 30.99974 22.5384615 32.30234 22.5384615 30.99974 27.6128462 30.99974 30.1538462 33.59974 35.2307692 32.30234 35.2307692 38.79974 30.1538462 51.80234 30.1538462 56.99974 27.6128462 62.19974 25.0743846 64.79974 27.5722308 67.22294 34.2001538 74.44054 37.7692308 75.20234 37.7692308 72.60234 35.2307692 72.60234 30.1538462 67.40234 35.2307692 59.59974 40.3076923 56.99974 42.8461538 70.00234 42.8461538 80.39974 42.8461538 82.99974 45.3846154 82.99974 45.3846154 80.39974 45.3846154 75.20234 47.9205385 62.19974 53 56.99974 58.0769231 56.99974 64.4230769 68.69974 60.6153846 80.39974 60.6153846 82.99974 63.1538462 82.99974 63.1538462 80.39974 68.2307692 70.00234 68.2307692 67.40234 65.6923077 56.99974 70.7666923 67.40234 75.8461538 70.00234 75.8461538 82.99974 78.3846154 82.99974 78.3846154 80.39974 78.3846154 67.40234 75.8461538 64.79974 73.3051538 56.99974 75.8461538 51.80234 75.8461538 46.59974 73.3051538 44.00234 75.8461538 41.39974 78.6663846 45.44274 78.6663846 56.71114 86 64.22254 86 51.80234 83.4615385 41.39974 75.8461538 38.79974 70.7666923 41.39974 65.6923077 40.10234 60.6153846 41.39974 50.459 41.39974 45.3846154 38.79974 41.5769231 27.09974 35.2307692 23.19974"></polygon>
        </g>
    </g>
</svg>