<?xml version="1.0" encoding="UTF-8"?>
<svg width="30px" height="30px" viewBox="0 0 30 30" version="1.1" xmlns="http://www.w3.org/2000/svg" xmlns:xlink="http://www.w3.org/1999/xlink">
    <title>poi_skate_3_i</title>
    <g id="poi_skate_3_i" stroke="none" stroke-width="1" fill="none" fill-rule="evenodd">
        <g id="Group" transform="translate(4.000000, 4.000000)" stroke="#FFFFFF" stroke-width="3">
            <path d="M1.5,17 C0.671572875,17 0,16.3284271 0,15.5 C0,14.6715729 0.671572875,14 1.5,14 L4.228,14 C4.31258289,14 4.39293255,13.9667471 4.45233983,13.9073398 L13.9073398,4.45233983 C13.9667471,4.39293255 14,4.31258289 14,4.228 L14,1.5 C14,0.671572875 14.6715729,0 15.5,0 C16.3284271,0 17,0.671572875 17,1.5 L17,4.228 C17,5.10789982 16.6509121,5.95140827 16.0286602,6.57366017 L6.57366017,16.0286602 C5.95140827,16.6509121 5.10789982,17 4.228,17 L1.5,17 Z" id="Stroke-1" fill-rule="nonzero"></path>
            <path d="M13.5,18.5 C13.5,20.157 12.157,21.5 10.5,21.5 C8.843,21.5 7.5,20.157 7.5,18.5 C7.5,16.843 8.843,15.5 10.5,15.5 C12.157,15.5 13.5,16.843 13.5,18.5" id="Fill-3"></path>
            <path d="M21.5,10.5 C21.5,12.157 20.157,13.5 18.5,13.5 C16.843,13.5 15.5,12.157 15.5,10.5 C15.5,8.843 16.843,7.5 18.5,7.5 C20.157,7.5 21.5,8.843 21.5,10.5" id="Fill-5"></path>
        </g>
        <g id="Group" transform="translate(4.000000, 4.000000)" fill="#D91928">
            <path d="M1.5,17 C0.671572875,17 0,16.3284271 0,15.5 C0,14.6715729 0.671572875,14 1.5,14 L4.228,14 C4.31258289,14 4.39293255,13.9667471 4.45233983,13.9073398 L13.9073398,4.45233983 C13.9667471,4.39293255 14,4.31258289 14,4.228 L14,1.5 C14,0.671572875 14.6715729,0 15.5,0 C16.3284271,0 17,0.671572875 17,1.5 L17,4.228 C17,5.10789982 16.6509121,5.95140827 16.0286602,6.57366017 L6.57366017,16.0286602 C5.95140827,16.6509121 5.10789982,17 4.228,17 L1.5,17 Z" id="Stroke-1" fill-rule="nonzero"></path>
            <path d="M13.5,18.5 C13.5,20.157 12.157,21.5 10.5,21.5 C8.843,21.5 7.5,20.157 7.5,18.5 C7.5,16.843 8.843,15.5 10.5,15.5 C12.157,15.5 13.5,16.843 13.5,18.5" id="Fill-3"></path>
            <path d="M21.5,10.5 C21.5,12.157 20.157,13.5 18.5,13.5 C16.843,13.5 15.5,12.157 15.5,10.5 C15.5,8.843 16.843,7.5 18.5,7.5 C20.157,7.5 21.5,8.843 21.5,10.5" id="Fill-5"></path>
        </g>
    </g>
</svg>