<?xml version="1.0" encoding="UTF-8"?>
<svg width="16px" height="16px" viewBox="0 0 16 16" version="1.1" xmlns="http://www.w3.org/2000/svg" xmlns:xlink="http://www.w3.org/1999/xlink">
    <title>poi_parking_moto_1_i</title>
    <g id="poi_parking_moto_1_i" stroke="none" stroke-width="1" fill="none" fill-rule="evenodd">
        <g id="Group" transform="translate(1.000000, 5.000000)" stroke="#FFFFFF" stroke-width="2">
            <path d="M2.5,4 C1.119,4 0,5.119 0,6.5 C0,7.881 1.119,9 2.5,9 C3.881,9 5,7.881 5,6.5 C5,5.119 3.881,4 2.5,4 M2.5,5 C3.327,5 4,5.673 4,6.5 C4,7.327 3.327,8 2.5,8 C1.673,8 1,7.327 1,6.5 C1,5.673 1.673,5 2.5,5" id="Fill-1"></path>
            <path d="M11.5,4 C10.119,4 9,5.119 9,6.5 C9,7.881 10.119,9 11.5,9 C12.881,9 14,7.881 14,6.5 C14,5.119 12.881,4 11.5,4 M11.5,5 C12.327,5 13,5.673 13,6.5 C13,7.327 12.327,8 11.5,8 C10.673,8 10,7.327 10,6.5 C10,5.673 10.673,5 11.5,5" id="Fill-3"></path>
            <polygon id="Fill-5" points="2 7 7 7 7 6 2 6"></polygon>
            <polygon id="Fill-7" points="6 1 9 1 9 0 6 0"></polygon>
            <polygon id="Fill-8" points="11 7 8 1 8.99969542 0.275365618 12 6 12 7"></polygon>
            <path d="M12,2 L13,2 L13,0 L12,0 C11.447,0 11,0.448 11,1 C11,1.552 11.447,2 12,2" id="Fill-9"></path>
            <polygon id="Fill-10" points="9 2 6 2 5 2 1 2 1 3 4.55128433 3 6 5.96823289 7 7 10 3"></polygon>
        </g>
        <g id="Group" transform="translate(1.000000, 5.000000)" fill="#D91928">
            <path d="M2.5,4 C1.119,4 0,5.119 0,6.5 C0,7.881 1.119,9 2.5,9 C3.881,9 5,7.881 5,6.5 C5,5.119 3.881,4 2.5,4 M2.5,5 C3.327,5 4,5.673 4,6.5 C4,7.327 3.327,8 2.5,8 C1.673,8 1,7.327 1,6.5 C1,5.673 1.673,5 2.5,5" id="Fill-1"></path>
            <path d="M11.5,4 C10.119,4 9,5.119 9,6.5 C9,7.881 10.119,9 11.5,9 C12.881,9 14,7.881 14,6.5 C14,5.119 12.881,4 11.5,4 M11.5,5 C12.327,5 13,5.673 13,6.5 C13,7.327 12.327,8 11.5,8 C10.673,8 10,7.327 10,6.5 C10,5.673 10.673,5 11.5,5" id="Fill-3"></path>
            <polygon id="Fill-5" points="2 7 7 7 7 6 2 6"></polygon>
            <polygon id="Fill-7" points="6 1 9 1 9 0 6 0"></polygon>
            <polygon id="Fill-8" points="11 7 8 1 9 0 12 6 12 7"></polygon>
            <path d="M12,2 L13,2 L13,0 L12,0 C11.447,0 11,0.448 11,1 C11,1.552 11.447,2 12,2" id="Fill-9"></path>
            <polygon id="Fill-10" points="9 2 6 2 5 2 1 2 1 3 4.55128433 3 6 5.96823289 7 7 10 3"></polygon>
        </g>
        <g id="Group" transform="translate(2.000000, 1.000000)" stroke="#FFFFFF" stroke-width="2">
            <path d="M1,3 L3,3 C3.552,3 4,2.551 4,2 C4,1.449 3.552,1 3,1 L1,1 L1,3 Z M3,4 L0,4 L0,0 L3,0 C4.103,0 5,0.897 5,2 C5,3.103 4.103,4 3,4 L3,4 Z" id="Fill-1"></path>
            <polygon id="Fill-3" points="0 6 1 6 1 3 0 3"></polygon>
        </g>
        <g id="Group" transform="translate(2.000000, 1.000000)" fill="#D91928">
            <path d="M1,3 L3,3 C3.552,3 4,2.551 4,2 C4,1.449 3.552,1 3,1 L1,1 L1,3 Z M3,4 L0,4 L0,0 L3,0 C4.103,0 5,0.897 5,2 C5,3.103 4.103,4 3,4 L3,4 Z" id="Fill-1"></path>
            <polygon id="Fill-3" points="0 6 1 6 1 3 0 3"></polygon>
        </g>
    </g>
</svg>