<svg width="50" height="50" viewBox="0 0 50 50" fill="none" xmlns="http://www.w3.org/2000/svg">
<path d="M0 10C0 4.47715 4.47715 0 10 0H40C45.5228 0 50 4.47715 50 10V40C50 45.5228 45.5228 50 40 50H10C4.47715 50 0 45.5228 0 40V10Z" fill="#3D89F5"/>
<path d="M26 14C27.6569 14 29 12.6569 29 11C29 9.34315 27.6569 8 26 8C24.3431 8 23 9.34315 23 11C23 12.6569 24.3431 14 26 14Z" fill="white"/>
<path d="M24 16V28.5C24 29.8807 25.1193 31 26.5 31H33.7003L37.1724 38.8123L40.8276 37.1877L36.9596 28.4847C36.5583 27.5818 35.663 27 34.6751 27H28V23H34C35.1046 23 36 22.1045 36 21C36 19.8954 35.1046 19 34 19H28V16H24Z" fill="white"/>
<path d="M23 40C26.7014 40 29.9331 37.989 31.6622 35H27C23.134 35 20 31.866 20 28V20.4578C15.9429 21.7321 13 25.5223 13 30C13 35.5228 17.4772 40 23 40Z" fill="white"/>
</svg>
