<?xml version="1.0" encoding="UTF-8"?>
<svg width="60px" height="60px" viewBox="0 0 60 60" version="1.1" xmlns="http://www.w3.org/2000/svg" xmlns:xlink="http://www.w3.org/1999/xlink">
    <title>poi_rink_7</title>
    <g id="poi_rink_7" stroke="none" stroke-width="1" fill="none" fill-rule="evenodd">
        <g id="Page-1" transform="translate(6.000000, 6.000000)" stroke="#FFFFFF" stroke-width="5">
            <polygon id="Fill-1" points="9 43 16 43 16 38 9 38"></polygon>
            <polygon id="Fill-2" points="26 43 33 43 33 38 26 38"></polygon>
            <path d="M38,48 L0,48 L0,42 L38,42 C41.9427778,42.4285714 45.3333333,39.095 45,35 L51,35 C51,43.1937143 46.1115556,48 38,48" id="Fill-3"></path>
            <path d="M36,38 L8,38 C4.7024,38 3,36.2976 3,33 L3,31 L8,24 L8,7 L22,0 L22,12 C22,19.7942 28.8058,26.6 36,26 C39.2976,26.6 41,28.3024 41,31 L41,33 C41,36.2976 39.2976,38 36,38" id="Fill-5"></path>
        </g>
        <g id="Page-1" transform="translate(6.000000, 6.000000)" fill="#646464">
            <polygon id="Fill-1" points="9 43 16 43 16 38 9 38"></polygon>
            <polygon id="Fill-2" points="26 43 33 43 33 38 26 38"></polygon>
            <path d="M38,48 L0,48 L0,42 L38,42 C41.9427778,42.4285714 45.3333333,39.095 45,35 L51,35 C51,43.1937143 46.1115556,48 38,48" id="Fill-3"></path>
            <path d="M36,38 L8,38 C4.7024,38 3,36.2976 3,33 L3,31 L8,24 L8,7 L22,0 L22,12 C22,19.7942 28.8058,26.6 36,26 C39.2976,26.6 41,28.3024 41,31 L41,33 C41,36.2976 39.2976,38 36,38" id="Fill-5"></path>
        </g>
    </g>
</svg>