<?xml version="1.0" encoding="UTF-8"?>
<svg width="116px" height="117px" viewBox="0 0 116 117" version="1.1" xmlns="http://www.w3.org/2000/svg" xmlns:xlink="http://www.w3.org/1999/xlink">
    <!-- Generator: Sketch 63.1 (92452) - https://sketch.com -->
    <title>poi_police</title>
    <desc>Created with Sketch.</desc>
    <g id="poi_police" stroke="none" stroke-width="1" fill="none" fill-rule="evenodd" transform="translate(0.000000, 1.000000)">
        <g id="poi/100/bounding">
            <g>
                <circle id="Oval-Shadow-1" fill-opacity="0.02" fill="#000000" cx="58" cy="58" r="58"></circle>
                <circle id="Oval-Shadow-2" fill-opacity="0.02" fill="#000000" cx="58" cy="58" r="56"></circle>
                <circle id="Oval-Shadow-3" fill-opacity="0.02" fill="#000000" cx="58" cy="58" r="54"></circle>
                <circle id="Oval-Shadow-4" fill-opacity="0.02" fill="#000000" cx="58" cy="58" r="52"></circle>
                <circle id="Oval-2" fill="#FFFFFF" cx="58" cy="58" r="50"></circle>
            </g>
        </g>
        <g id="Page-1" transform="translate(31.000000, 30.000000)" fill="#EB7967">
            <path d="M45,39 L27,39 L9,39 L9,44.3333333 C9,44.3333333 13.5,55 27,55 C40.5,55 45,44.3333333 45,44.3333333 L45,39 Z" id="Fill-1"></path>
            <path d="M27,26 C22.584,26 19,22.4186667 19,18 C19,13.5813333 22.584,10 27,10 C31.4186667,10 35,13.5813333 35,18 C35,22.4186667 31.4186667,26 27,26 M0,19.4285714 C0,29.1428571 9,34 9,34 L45,34 C45,34 54,29.1428571 54,19.4285714 C54,9.71428571 45,0 27,0 C9,0 0,9.71428571 0,19.4285714 Z" id="Fill-3"></path>
        </g>
    </g>
</svg>