<?xml version="1.0" encoding="UTF-8"?>
<svg width="116px" height="116px" viewBox="0 0 116 116" version="1.1" xmlns="http://www.w3.org/2000/svg" xmlns:xlink="http://www.w3.org/1999/xlink">
    <!-- Generator: Sketch 63.1 (92452) - https://sketch.com -->
    <title>poi_park</title>
    <desc>Created with Sketch.</desc>
    <g id="poi_park" stroke="none" stroke-width="1" fill="none" fill-rule="evenodd">
        <g id="poi/100/bounding">
            <g>
                <circle id="Oval-Shadow-1" fill-opacity="0.02" fill="#000000" cx="58" cy="58" r="58"></circle>
                <circle id="Oval-Shadow-2" fill-opacity="0.02" fill="#000000" cx="58" cy="58" r="56"></circle>
                <circle id="Oval-Shadow-3" fill-opacity="0.02" fill="#000000" cx="58" cy="58" r="54"></circle>
                <circle id="Oval-Shadow-4" fill-opacity="0.02" fill="#000000" cx="58" cy="58" r="52"></circle>
                <circle id="Oval-2" fill="#FFFFFF" cx="58" cy="58" r="50"></circle>
            </g>
        </g>
        <g id="Group-10" transform="translate(30.000000, 20.000000)" fill="#6DC234">
            <path d="M42,14.5 C42,22.5064167 35.5064167,29 27.5,29 C19.4935833,29 13,22.5064167 13,14.5 C13,6.49358333 19.4935833,0 27.5,0 C35.5064167,0 42,6.49358333 42,14.5" id="Fill-2"></path>
            <path d="M56,33.5 C56,41.5064167 49.7303333,48 42,48 C34.2696667,48 28,41.5064167 28,33.5 C28,25.4935833 34.2696667,19 42,19 C49.7303333,19 56,25.4935833 56,33.5" id="Fill-4"></path>
            <path d="M28,33.5 C28,41.5064167 21.7303333,48 14,48 C6.26966667,48 0,41.5064167 0,33.5 C0,25.4935833 6.26966667,19 14,19 C21.7303333,19 28,25.4935833 28,33.5" id="Fill-6"></path>
            <path d="M38,65 L18,65 C15.24,65 13,67.688 13,71 L43,71 C43,67.688 40.76,65 38,65" id="Fill-8"></path>
            <polygon id="Fill-1" points="25 71 31 71 31 23 25 23"></polygon>
        </g>
    </g>
</svg>