<?xml version="1.0" encoding="UTF-8"?>
<svg width="48px" height="48px" viewBox="0 0 48 48" version="1.1" xmlns="http://www.w3.org/2000/svg" xmlns:xlink="http://www.w3.org/1999/xlink">
    <title>poi_gate_6_i</title>
    <g id="poi_gate_6_i" stroke="none" stroke-width="1" fill="none" fill-rule="evenodd">
        <g id="Group" transform="translate(4.000000, 5.000000)">
            <path d="M19.5,0 C30.2695526,-1.97833472e-15 39,8.73044738 39,19.5 L39,37 L39,37 L0,37 L0,19.5 C2.23382386e-15,8.73044738 8.73044738,1.97833472e-15 19.5,0 Z" id="Rectangle" fill="#FFFFFF"></path>
            <polygon id="Rectangle-2" fill="#D91928" points="2 13.248366 7 9 7 35 2 35"></polygon>
            <polygon id="Rectangle-2" fill="#D91928" transform="translate(34.500000, 21.000000) scale(-1, 1) translate(-34.500000, -21.000000) " points="32 13.1906694 37 7 37 35 32 35"></polygon>
            <rect id="Rectangle-3" fill="#D91928" x="12" y="3" width="5" height="32"></rect>
            <rect id="Rectangle-3" fill="#D91928" x="22" y="3" width="5" height="32"></rect>
            <path d="M19.5,2 C24.6086339,2 29.2336339,4.07068303 32.5814755,7.41852455 C35.929317,10.7663661 38,15.3913661 38,20.5 L38,20.5 L38,36 L1,36 L1,20.5 C1,15.3913661 3.07068303,10.7663661 6.41852455,7.41852455 C9.76636606,4.07068303 14.3913661,2 19.5,2 L19.5,2 Z" id="Rectangle" stroke="#FFFFFF" stroke-width="2"></path>
        </g>
    </g>
</svg>