<?xml version="1.0" encoding="UTF-8"?>
<svg width="60px" height="60px" viewBox="0 0 60 60" version="1.1" xmlns="http://www.w3.org/2000/svg" xmlns:xlink="http://www.w3.org/1999/xlink">
    <title>poi_wc_7</title>
    <g id="poi_wc_7" stroke="none" stroke-width="1" fill="none" fill-rule="evenodd">
        <g id="Group" transform="translate(6.000000, 9.000000)" stroke="#FFFFFF" stroke-width="5">
            <path d="M19,6.5 C19,10.089625 16.089625,13 12.5,13 C8.910375,13 6,10.089625 6,6.5 C6,2.910375 8.910375,0 12.5,0 C16.089625,0 19,2.910375 19,6.5" id="Fill-1"></path>
            <path d="M42,6.5 C42,10.089625 39.089625,13 35.5,13 C31.910375,13 29,10.089625 29,6.5 C29,2.910375 31.910375,0 35.5,0 C39.089625,0 42,2.910375 42,6.5" id="Fill-3"></path>
            <path d="M20.2089484,42 L4.79119682,42 C1.3746001,42 -0.93981719,38.46075 0.372908812,35.24975 L9.62738787,16 L16.0075872,16 L24.6272364,35.24975 C25.9399624,38.46075 23.62395,42 20.2089484,42" id="Fill-5"></path>
            <path d="M27.7911968,16 L43.2089484,16 C46.62395,16 48.9399624,19.53925 47.6272364,22.75025 L39.0075872,42 L32.6273879,42 L23.3729088,22.75025 C22.0601828,19.53925 24.3746001,16 27.7911968,16" id="Fill-8"></path>
        </g>
        <g id="Group" transform="translate(6.000000, 9.000000)" fill="#646464">
            <path d="M19,6.5 C19,10.089625 16.089625,13 12.5,13 C8.910375,13 6,10.089625 6,6.5 C6,2.910375 8.910375,0 12.5,0 C16.089625,0 19,2.910375 19,6.5" id="Fill-1"></path>
            <path d="M42,6.5 C42,10.089625 39.089625,13 35.5,13 C31.910375,13 29,10.089625 29,6.5 C29,2.910375 31.910375,0 35.5,0 C39.089625,0 42,2.910375 42,6.5" id="Fill-3"></path>
            <path d="M20.2089484,42 L4.79119682,42 C1.3746001,42 -0.93981719,38.46075 0.372908812,35.24975 L9.62738787,16 L16.0075872,16 L24.6272364,35.24975 C25.9399624,38.46075 23.62395,42 20.2089484,42" id="Fill-5"></path>
            <path d="M27.7911968,16 L43.2089484,16 C46.62395,16 48.9399624,19.53925 47.6272364,22.75025 L39.0075872,42 L32.6273879,42 L23.3729088,22.75025 C22.0601828,19.53925 24.3746001,16 27.7911968,16" id="Fill-8"></path>
        </g>
    </g>
</svg>