<?xml version="1.0" encoding="UTF-8"?>
<svg width="64px" height="64px" viewBox="0 0 64 64" version="1.1" xmlns="http://www.w3.org/2000/svg" xmlns:xlink="http://www.w3.org/1999/xlink">
    <title>poi_bank_i</title>
    <g id="poi_bank_i" stroke="none" stroke-width="1" fill="none" fill-rule="evenodd">
        <g id="poi/52/bounding-green-i" transform="translate(2.000000, 2.000000)">
            <circle id="Oval-Shadow" fill-opacity="0.02" fill="#000000" cx="30" cy="30" r="30"></circle>
            <circle id="Oval-Shadow-2" fill-opacity="0.02" fill="#000000" cx="30" cy="30" r="29"></circle>
            <circle id="Oval-Shadow-3" fill-opacity="0.02" fill="#000000" cx="30" cy="30" r="28"></circle>
            <circle id="Oval-Shadow-4" fill-opacity="0.02" fill="#000000" cx="30" cy="30" r="27"></circle>
            <circle id="Oval-2" fill="#6DC234" cx="30" cy="30" r="26"></circle>
        </g>
        <path d="M17,40 L47,40 L47,34 L17,34 L17,40 Z M47.4285714,19 L16.5714286,19 C15.152,19 14,20.1648 14,21.6 L14,42.4 C14,43.8352 15.152,45 16.5714286,45 L47.4285714,45 C48.848,45 50,43.8352 50,42.4 L50,21.6 C50,20.1648 48.848,19 47.4285714,19 L47.4285714,19 Z" id="Page-1" fill="#FFFFFF"></path>
    </g>
</svg>