<?xml version="1.0" encoding="UTF-8"?>
<svg width="116px" height="116px" viewBox="0 0 116 116" version="1.1" xmlns="http://www.w3.org/2000/svg" xmlns:xlink="http://www.w3.org/1999/xlink">
    <!-- Generator: Sketch 63.1 (92452) - https://sketch.com -->
    <title>poi_electro_station</title>
    <desc>Created with Sketch.</desc>
    <g id="poi_electro_station" stroke="none" stroke-width="1" fill="none" fill-rule="evenodd">
        <g id="poi/100/bounding">
            <g>
                <circle id="Oval-Shadow-1" fill-opacity="0.02" fill="#000000" cx="58" cy="58" r="58"></circle>
                <circle id="Oval-Shadow-2" fill-opacity="0.02" fill="#000000" cx="58" cy="58" r="56"></circle>
                <circle id="Oval-Shadow-3" fill-opacity="0.02" fill="#000000" cx="58" cy="58" r="54"></circle>
                <circle id="Oval-Shadow-4" fill-opacity="0.02" fill="#000000" cx="58" cy="58" r="52"></circle>
                <circle id="Oval-2" fill="#FFFFFF" cx="58" cy="58" r="50"></circle>
            </g>
        </g>
        <g id="Group" transform="translate(31.000000, 23.000000)" fill="#6DC234">
            <polygon id="Fill-1" points="6 16 11 16 11 0 6 0"></polygon>
            <polygon id="Fill-2" points="25 16 30 16 30 0 25 0"></polygon>
            <path d="M25.7142857,48 L10.2857143,48 C4.608,48 0,43.2213333 0,37.3333333 L0,16 L36,16 L36,37.3333333 C36,43.2213333 31.392,48 25.7142857,48" id="Fill-3"></path>
            <path d="M45.7652485,16 L45.7652485,53.1428571 C45.7652485,58.3628946 41.235694,62.7607443 36.341881,62.7607443 L29.6765678,62.7607443 C26.1834873,62.7607443 20.3857305,58.1716143 20.3857305,53.1428571 L20.3857305,45.7142857 L15,45.7142857 L15,53.1428571 C15,61.0164 21.9068571,68 29.4,68 L36.6,68 C44.0931429,68 51,61.0164 51,53.1428571 L51,16 L45.7652485,16 Z" id="Fill-5"></path>
        </g>
    </g>
</svg>