<?xml version="1.0" encoding="UTF-8"?>
<svg width="14px" height="14px" viewBox="0 0 14 14" version="1.1" xmlns="http://www.w3.org/2000/svg" xmlns:xlink="http://www.w3.org/1999/xlink">
    <title>poi_underwater_i</title>
    <g id="poi_underwater_i" stroke="none" stroke-width="1" fill="none" fill-rule="evenodd">
        <g id="poi_underwater_1_i" transform="translate(0.000000, 1.000000)">
            <path d="M10.2929001,0.29289075 C10.6834001,-0.09763025 11.3166001,-0.09763025 11.7071001,0.29289075 C12.7106001,1.29638075 13.2445001,3.09158075 13.3117001,4.77253075 C13.3796001,6.46948075 12.9876001,8.42664075 11.7071001,9.70710075 L9.70711007,11.7071008 C9.51957007,11.8946008 9.26522007,12 9,12 L3,12 C2.59554007,12 2.23090007,11.7564007 2.07612007,11.3827007 C1.92134007,11.0090008 2.00690007,10.5789008 2.29289007,10.2929007 L3.58579007,9 L0.292893075,5.70711075 C-0.097631025,5.31658075 -0.097631025,4.68342075 0.292893075,4.29289075 L1.29289007,3.29289075 C1.68342007,2.90237075 2.31658007,2.90237075 2.70711007,3.29289075 L3,3.58579075 L4.29289007,2.29289075 C4.68342007,1.90237075 5.31658007,1.90237075 5.70711007,2.29289075 L6.70711007,3.29289075 C6.90237007,3.48816075 7,3.74408075 7,4 C7,3.73478075 7.10536007,3.48043075 7.29289007,3.29289075 L10.2929001,0.29289075 Z" id="Path" fill="#FFFFFF" fill-rule="nonzero"></path>
            <path d="M9.00000007,11.0000007 L11.0000001,9.00000075 C13.0000001,7.00000075 12.5000001,2.50000075 11.0000001,1.00000075 L8.00000007,4.00000075 L8.00000007,6.00000075 L3.00000007,11.0000007 L9.00000007,11.0000007 Z M9.50000007,5.14998075 C9.85898008,5.14998075 10.1500001,4.85896075 10.1500001,4.49998075 C10.1500001,4.14099075 9.85898008,3.84998075 9.50000007,3.84998075 C9.14102008,3.84998075 8.85000008,4.14099075 8.85000008,4.49998075 C8.85000008,4.85896075 9.14102008,5.14998075 9.50000007,5.14998075 Z" id="Shape" fill="#D91928"></path>
            <polygon id="Path" fill="#D91928" fill-rule="nonzero" points="6.79291007 5.79291075 5.50000007 4.50000075 6.00000007 4.00000075 5.00000007 3.00000075 3.00000007 5.00000075 2.00000007 4.00000075 1.00000007 5.00000075 4.29291007 8.29291075"></polygon>
        </g>
    </g>
</svg>