<?xml version="1.0" encoding="UTF-8"?>
<svg width="14px" height="14px" viewBox="0 0 14 14" version="1.1" xmlns="http://www.w3.org/2000/svg" xmlns:xlink="http://www.w3.org/1999/xlink">
    <title>poi_camping_i</title>
    <g id="poi_camping_i" stroke="none" stroke-width="1" fill="none" fill-rule="evenodd">
        <g id="poi_camping_1_i" transform="translate(1.000000, 3.000000)">
            <path d="M6,0 L6.1644,0.0274 C7.942,0.32366 9.1815,1.23331 9.9571,2.39659 C10.5027,3.21506 10.8034,4.13373 10.9289,5.01379 L12,5.01379 L12,8.01379 L0,8.01379 L0,5.01379 L1.0711,5.01379 C1.19663,4.13373 1.4973,3.21506 2.04295,2.39659 C2.81847,1.23331 4.058,0.32366 5.8356,0.0274 L6,0 Z" id="Path" fill="#FFFFFF" fill-rule="nonzero"></path>
            <path d="M6,1.01379 C3,1.51379 2,4.01379 2,6.01379 L1,6.01379 L1,7.01379 L11,7.01379 L11,6.01379 L10,6.01379 C10,4.01379 9,1.51379 6,1.01379 Z M5.7986,2.86449 C5.46494,4.31954 5.27069,5.16666 4,6.01379 L8,6.01379 C6.72931,5.16666 6.53506,4.31954 6.2014,2.86449 C6.14119,2.60191 6.07644,2.31954 6,2.01379 C5.92356,2.31954 5.85881,2.60191 5.7986,2.86449 Z" id="Shape" fill="#D91928"></path>
        </g>
    </g>
</svg>