<?xml version="1.0" encoding="UTF-8"?>
<svg width="64px" height="64px" viewBox="0 0 64 64" version="1.1" xmlns="http://www.w3.org/2000/svg" xmlns:xlink="http://www.w3.org/1999/xlink">
    <title>poi_port_i</title>
    <g id="poi_port_i" stroke="none" stroke-width="1" fill="none" fill-rule="evenodd">
        <g id="poi/52/bounding-tr-i" transform="translate(2.000000, 2.000000)">
            <circle id="Oval-Shadow" fill-opacity="0.02" fill="#000000" cx="30" cy="30" r="30"></circle>
            <circle id="Oval-Shadow-2" fill-opacity="0.02" fill="#000000" cx="30" cy="30" r="29"></circle>
            <circle id="Oval-Shadow-3" fill-opacity="0.02" fill="#000000" cx="30" cy="30" r="28"></circle>
            <circle id="Oval-Shadow-4" fill-opacity="0.02" fill="#000000" cx="30" cy="30" r="27"></circle>
            <circle id="Oval" fill="#2C8CC3" cx="30" cy="30" r="26"></circle>
        </g>
        <g id="Page-1" transform="translate(14.000000, 13.000000)" fill="#FFFFFF">
            <path d="M18,7 C16.896,7 16,6.104 16,5 C16,3.896 16.896,3 18,3 C19.104,3 20,3.896 20,5 C20,6.104 19.104,7 18,7 M18,0 C15.23875,0 13,2.23875 13,5 C13,7.76125 15.23875,10 18,10 C20.76125,10 23,7.76125 23,5 C23,2.23875 20.76125,0 18,0" id="Fill-1"></path>
            <polygon id="Fill-3" points="16 34 20 34 20 8 16 8"></polygon>
            <polygon id="Fill-5" points="11 16 25 16 25 12 11 12"></polygon>
            <path d="M33,23 L28,23 C26.88125,27.4733 22.6475,30.8 18,31 C13.35375,30.8 9.11875,27.4733 8,23 L3,23 C4.19625,30.3658 10.58125,36 18,36 C25.41875,36 31.805,30.3658 33,23" id="Fill-6"></path>
            <polygon id="Fill-7" points="5 15 11 23 0 23"></polygon>
            <polygon id="Fill-8" points="30 15 36 23 25 23"></polygon>
        </g>
    </g>
</svg>