<?xml version="1.0" encoding="UTF-8"?>
<svg width="60px" height="60px" viewBox="0 0 60 60" version="1.1" xmlns="http://www.w3.org/2000/svg" xmlns:xlink="http://www.w3.org/1999/xlink">
    <title>poi_railroadcrossing_7</title>
    <g id="poi_railroadcrossing_7" stroke="none" stroke-width="1" fill="none" fill-rule="evenodd">
        <g id="Group-11" transform="translate(10.000000, 6.000000)" stroke="#FFFFFF" stroke-width="5">
            <path d="M6.5,29 C2.91055556,29 0,31.9105556 0,35.5 C0,39.0894444 2.91055556,42 6.5,42 C10.0894444,42 13,39.0894444 13,35.5 C13,31.9105556 10.0894444,29 6.5,29 M6.5,33.3333333 C7.69455556,33.3333333 8.66666667,34.3054444 8.66666667,35.5 C8.66666667,36.6945556 7.69455556,37.6666667 6.5,37.6666667 C5.30544444,37.6666667 4.33333333,36.6945556 4.33333333,35.5 C4.33333333,34.3054444 5.30544444,33.3333333 6.5,33.3333333" id="Fill-5"></path>
            <path d="M33.5,29 C29.9105556,29 27,31.9105556 27,35.5 C27,39.0894444 29.9105556,42 33.5,42 C37.0894444,42 40,39.0894444 40,35.5 C40,31.9105556 37.0894444,29 33.5,29 M33.5,33.3333333 C34.6945556,33.3333333 35.6666667,34.3054444 35.6666667,35.5 C35.6666667,36.6945556 34.6945556,37.6666667 33.5,37.6666667 C32.3054444,37.6666667 31.3333333,36.6945556 31.3333333,35.5 C31.3333333,34.3054444 32.3054444,33.3333333 33.5,33.3333333" id="Fill-7"></path>
            <polygon id="Fill-9" points="6 34 32 34 32 29 6 29"></polygon>
            <polygon id="Fill-1" points="20.0007498 0 17 2.96913003 17 46 23 46 23 2.96913003"></polygon>
            <polygon id="Fill-2" points="11 48 29 48 29 43 11 43"></polygon>
            <polygon id="Fill-3" points="36 6.4 8.57163636 24 4 24 4 19.6 31.4283636 2 36 2"></polygon>
            <polygon id="Fill-4" points="36 19.6 8.57163636 2 4 2 4 6.4 31.4283636 24 36 24"></polygon>
        </g>
        <g id="Group-11" transform="translate(10.000000, 6.000000)" fill="#646464">
            <path d="M6.5,29 C2.91055556,29 0,31.9105556 0,35.5 C0,39.0894444 2.91055556,42 6.5,42 C10.0894444,42 13,39.0894444 13,35.5 C13,31.9105556 10.0894444,29 6.5,29 M6.5,33.3333333 C7.69455556,33.3333333 8.66666667,34.3054444 8.66666667,35.5 C8.66666667,36.6945556 7.69455556,37.6666667 6.5,37.6666667 C5.30544444,37.6666667 4.33333333,36.6945556 4.33333333,35.5 C4.33333333,34.3054444 5.30544444,33.3333333 6.5,33.3333333" id="Fill-5"></path>
            <path d="M33.5,29 C29.9105556,29 27,31.9105556 27,35.5 C27,39.0894444 29.9105556,42 33.5,42 C37.0894444,42 40,39.0894444 40,35.5 C40,31.9105556 37.0894444,29 33.5,29 M33.5,33.3333333 C34.6945556,33.3333333 35.6666667,34.3054444 35.6666667,35.5 C35.6666667,36.6945556 34.6945556,37.6666667 33.5,37.6666667 C32.3054444,37.6666667 31.3333333,36.6945556 31.3333333,35.5 C31.3333333,34.3054444 32.3054444,33.3333333 33.5,33.3333333" id="Fill-7"></path>
            <polygon id="Fill-9" points="6 34 32 34 32 29 6 29"></polygon>
            <polygon id="Fill-1" points="20.0007498 0 17 2.96913003 17 46 23 46 23 2.96913003"></polygon>
            <polygon id="Fill-2" points="11 48 29 48 29 43 11 43"></polygon>
            <polygon id="Fill-3" points="36 6.4 8.57163636 24 4 24 4 19.6 31.4283636 2 36 2"></polygon>
            <polygon id="Fill-4" points="36 19.6 8.57163636 2 4 2 4 6.4 31.4283636 24 36 24"></polygon>
        </g>
    </g>
</svg>