<?xml version="1.0" encoding="UTF-8"?>
<svg width="116px" height="116px" viewBox="0 0 116 116" version="1.1" xmlns="http://www.w3.org/2000/svg" xmlns:xlink="http://www.w3.org/1999/xlink">
    <!-- Generator: Sketch 63.1 (92452) - https://sketch.com -->
    <title>poi_lift_tickets</title>
    <desc>Created with Sketch.</desc>
    <g id="poi_lift_tickets" stroke="none" stroke-width="1" fill="none" fill-rule="evenodd">
        <g id="poi/100/bounding">
            <g>
                <circle id="Oval-Shadow-1" fill-opacity="0.02" fill="#000000" cx="58" cy="58" r="58"></circle>
                <circle id="Oval-Shadow-2" fill-opacity="0.02" fill="#000000" cx="58" cy="58" r="56"></circle>
                <circle id="Oval-Shadow-3" fill-opacity="0.02" fill="#000000" cx="58" cy="58" r="54"></circle>
                <circle id="Oval-Shadow-4" fill-opacity="0.02" fill="#000000" cx="58" cy="58" r="52"></circle>
                <circle id="Oval-2" fill="#FFFFFF" cx="58" cy="58" r="50"></circle>
            </g>
        </g>
        <g id="Group-12" transform="translate(23.000000, 24.000000)" fill="#F7B21B">
            <polygon id="Fill-1" points="2 65 67 65 67 56 2 56"></polygon>
            <polygon id="Fill-2" points="61 56 67 56 67 0 61 0"></polygon>
            <polygon id="Fill-3" points="26 6 66 6 66 0 26 0"></polygon>
            <g id="Group-11">
                <path d="M51,19.5 C51,23.0923333 48.088,26 44.5,26 C40.912,26 38,23.0923333 38,19.5 C38,15.9076667 40.912,13 44.5,13 C48.088,13 51,15.9076667 51,19.5" id="Fill-4"></path>
                <polygon id="Fill-6" points="20 23 26 23 26 0 20 0"></polygon>
                <polygon id="Fill-8" points="50 56 38 56 30 34.3333333 34 30 54 30 58 34.3333333"></polygon>
                <polygon id="Fill-9" points="33.2829303 30 23.8487909 42.4583333 16.3014794 34.3125 12 38.625 23.8487909 53 38 38.625"></polygon>
                <polygon id="Fill-10" points="0 33 17 33 17 23 0 23"></polygon>
            </g>
        </g>
    </g>
</svg>