<?xml version="1.0" encoding="UTF-8"?>
<svg width="14px" height="14px" viewBox="0 0 14 14" version="1.1" xmlns="http://www.w3.org/2000/svg" xmlns:xlink="http://www.w3.org/1999/xlink">
    <title>poi_helipad_1_i</title>
    <g id="poi_helipad_1_i" stroke="none" stroke-width="1" fill="none" fill-rule="evenodd">
        <path d="M9,9 L8,9 L8,7 L6,7 L6,9 L5,9 L5,4 L6,4 L6,6 L8,6 L8,4 L9,4 L9,9 Z M7,2 C4.238,2 2,4.239 2,7 C2,9.762 4.238,12 7,12 C9.762,12 12,9.762 12,7 C12,4.239 9.762,2 7,2 L7,2 Z" id="Fill-1" stroke="#FFFFFF" stroke-width="2"></path>
        <path d="M9,9 L8,9 L8,7 L6,7 L6,9 L5,9 L5,4 L6,4 L6,6 L8,6 L8,4 L9,4 L9,9 Z M7,2 C4.238,2 2,4.239 2,7 C2,9.762 4.238,12 7,12 C9.762,12 12,9.762 12,7 C12,4.239 9.762,2 7,2 L7,2 Z" id="Fill-1" fill="#D91928"></path>
    </g>
</svg>