<?xml version="1.0" encoding="UTF-8"?>
<svg width="64px" height="64px" viewBox="0 0 64 64" version="1.1" xmlns="http://www.w3.org/2000/svg" xmlns:xlink="http://www.w3.org/1999/xlink">
    <title>poi_gas_station_i</title>
    <g id="poi_gas_station_i" stroke="none" stroke-width="1" fill="none" fill-rule="evenodd">
        <g id="poi/52/bounding-green-i" transform="translate(2.000000, 2.000000)">
            <circle id="Oval-Shadow" fill-opacity="0.02" fill="#000000" cx="30" cy="30" r="30"></circle>
            <circle id="Oval-Shadow-2" fill-opacity="0.02" fill="#000000" cx="30" cy="30" r="29"></circle>
            <circle id="Oval-Shadow-3" fill-opacity="0.02" fill="#000000" cx="30" cy="30" r="28"></circle>
            <circle id="Oval-Shadow-4" fill-opacity="0.02" fill="#000000" cx="30" cy="30" r="27"></circle>
            <circle id="Oval-2" fill="#6DC234" cx="30" cy="30" r="26"></circle>
        </g>
        <g id="Page-1" transform="translate(21.000000, 15.000000)" fill="#FFFFFF">
            <path d="M7.9861556,-3.55271368e-15 C2.7861556,-3.55271368e-15 0,2.99382268 0,2.99382268 L0,13.2 L2.99743371,12.9840978 L2.99743371,5.00109885 L13,5.00109885 L13,13.2 L15.9723112,12.9840978 L15.9723112,2.99382268 C15.9723112,2.99382268 13,-3.55271368e-15 7.8,-3.55271368e-15 L7.9861556,-3.55271368e-15 Z" id="Fill-1"></path>
            <polygon id="Fill-3" points="15.9875307 13.0080324 15.9875307 16.037442 17.9803544 16.037442 17.9803544 26.9395882 20.9937654 29.04 23.0122536 29.04 26 26.0060945 26 7.99852203 24.0182971 7.99852203 20.9937654 7.99852203 20.9937654 10.9607947 23.0122536 13.0080324 23.0122536 26.0060945 20.9937654 26.0060945 20.8 15.84 17.9803544 13.0080324"></polygon>
            <polygon id="Fill-5" points="0 32 16 32 16 11.961444 0 11.961444"></polygon>
            <polygon id="Fill-7" points="19.8389334 3.01515755 22.9924285 3.01515755 26 7.92 22.9924285 7.92"></polygon>
        </g>
    </g>
</svg>