<?xml version="1.0" encoding="UTF-8"?>
<svg width="60px" height="60px" viewBox="0 0 60 60" version="1.1" xmlns="http://www.w3.org/2000/svg" xmlns:xlink="http://www.w3.org/1999/xlink">
    <title>poi_carting_7_i</title>
    <g id="poi_carting_7_i" stroke="none" stroke-width="1" fill="none" fill-rule="evenodd">
        <g id="Page-1" transform="translate(3.000000, 14.000000)" stroke="#FFFFFF" stroke-width="5">
            <path d="M17.7142857,26.5 C17.7142857,23.4621667 15.2201429,21 12.1428571,21 C9.06557143,21 6.57142857,23.4621667 6.57142857,26.5 C6.57142857,29.5378333 9.06557143,32 12.1428571,32 C15.2201429,32 17.7142857,29.5378333 17.7142857,26.5" id="Fill-1"></path>
            <path d="M47.4285714,26.5 C47.4285714,23.4621667 44.9344286,21 41.8571429,21 C38.7798571,21 36.2857143,23.4621667 36.2857143,26.5 C36.2857143,29.5378333 38.7798571,32 41.8571429,32 C44.9344286,32 47.4285714,29.5378333 47.4285714,26.5" id="Fill-3"></path>
            <path d="M8.61892857,12.1592167 C4.06892857,13.65705 0.999071429,17.8608833 0.999071429,22.59455 L0.999071429,25.9963069 L4.50310058,25.9963069 C4.50310058,21.9464736 8.0395,18.3338833 12.1419286,18.3338833 C16.2462143,18.3338833 20.0217404,21.9464736 20.0217404,25.9963069 L34.0151633,25.9963069 C34.0151633,21.9464736 37.7537857,18.3338833 41.8562143,18.3338833 C45.9605,18.3338833 49.4432491,21.9464736 49.4432491,25.9963069 L52.9990714,25.9963069 L52.9990714,11.00055 L42.0278672,11.00055 L42.0278672,7.00876015 L38.1360579,7.00876015 L26.9990714,18.0332858 L23.0236215,18.0332858 L23.0236215,11.00055 L19.0615482,7.00876015 L8.61892857,12.1592167 Z" id="Fill-5"></path>
            <polygon id="Fill-8" points="18.5714286 3.66666667 21.0938948 0.86762313 28.5344447 8.54410663 26 11"></polygon>
        </g>
        <g id="Page-1" transform="translate(3.000000, 14.000000)" fill="#D91928">
            <path d="M17.7142857,26.5 C17.7142857,23.4621667 15.2201429,21 12.1428571,21 C9.06557143,21 6.57142857,23.4621667 6.57142857,26.5 C6.57142857,29.5378333 9.06557143,32 12.1428571,32 C15.2201429,32 17.7142857,29.5378333 17.7142857,26.5" id="Fill-1"></path>
            <path d="M47.4285714,26.5 C47.4285714,23.4621667 44.9344286,21 41.8571429,21 C38.7798571,21 36.2857143,23.4621667 36.2857143,26.5 C36.2857143,29.5378333 38.7798571,32 41.8571429,32 C44.9344286,32 47.4285714,29.5378333 47.4285714,26.5" id="Fill-3"></path>
            <path d="M8.61892857,12.1592167 C4.06892857,13.65705 0.999071429,17.8608833 0.999071429,22.59455 L0.999071429,25.9963069 L4.50310058,25.9963069 C4.50310058,21.9464736 8.0395,18.3338833 12.1419286,18.3338833 C16.2462143,18.3338833 20.0217404,21.9464736 20.0217404,25.9963069 L34.0151633,25.9963069 C34.0151633,21.9464736 37.7537857,18.3338833 41.8562143,18.3338833 C45.9605,18.3338833 49.4432491,21.9464736 49.4432491,25.9963069 L52.9990714,25.9963069 L52.9990714,11.00055 L42.0278672,11.00055 L42.0278672,7.00876015 L38.1360579,7.00876015 L26.9990714,18.0332858 L23.0236215,18.0332858 L23.0236215,11.00055 L19.0615482,7.00876015 L8.61892857,12.1592167 Z" id="Fill-5"></path>
            <polygon id="Fill-8" points="18.5714286 3.66666667 21.0938948 0.86762313 28.5344447 8.54410663 26 11"></polygon>
        </g>
    </g>
</svg>