<?xml version="1.0" encoding="UTF-8"?>
<svg width="116px" height="117px" viewBox="0 0 116 117" version="1.1" xmlns="http://www.w3.org/2000/svg" xmlns:xlink="http://www.w3.org/1999/xlink">
    <!-- Generator: Sketch 63.1 (92452) - https://sketch.com -->
    <title>poi_museum</title>
    <desc>Created with Sketch.</desc>
    <g id="poi_museum" stroke="none" stroke-width="1" fill="none" fill-rule="evenodd" transform="translate(0.000000, 1.000000)">
        <g id="poi/100/bounding">
            <g>
                <circle id="Oval-Shadow-1" fill-opacity="0.02" fill="#000000" cx="58" cy="58" r="58"></circle>
                <circle id="Oval-Shadow-2" fill-opacity="0.02" fill="#000000" cx="58" cy="58" r="56"></circle>
                <circle id="Oval-Shadow-3" fill-opacity="0.02" fill="#000000" cx="58" cy="58" r="54"></circle>
                <circle id="Oval-Shadow-4" fill-opacity="0.02" fill="#000000" cx="58" cy="58" r="52"></circle>
                <circle id="Oval-2" fill="#FFFFFF" cx="58" cy="58" r="50"></circle>
            </g>
        </g>
        <g id="Group" transform="translate(29.000000, 24.000000)" fill="#F7B21B">
            <polygon id="Fill-1" points="0 63 58 63 58 55 0 55"></polygon>
            <polygon id="Fill-2" points="0 49 7 49 7 25 0 25"></polygon>
            <polygon id="Fill-3" points="51 49 58 49 58 25 51 25"></polygon>
            <polygon id="Fill-4" points="29 0 0 11.6111111 0 19 58 19 58 11.6111111"></polygon>
            <polygon id="Fill-5" points="13 49 20 49 20 25 13 25"></polygon>
            <polygon id="Fill-6" points="38 49 45 49 45 25 38 25"></polygon>
            <polygon id="Fill-7" points="28.5714286 45 20 35.7692308 20 25 30 35.7692308"></polygon>
            <polygon id="Fill-8" points="29.4285714 45 38 35.7692308 38 25 28 35.7692308"></polygon>
        </g>
    </g>
</svg>