<svg version="1.1" xmlns="http://www.w3.org/2000/svg" width="32" height="32">
    <path fill="#656565" d="M15.1 8.15C15.1 5.858 13.264 4 11 4 8.736 4 6.9 5.858 6.9 8.15c0 2.292 1.836 4.15 4.1 4.15 2.264 0 4.1-1.858 4.1-4.15zM17 23v-4.596C17 15.766 15.026 14 12.59 14H9.41C6.974 14 5 15.766 5 18.404V23h12zM28.992 28l.008-.677C29 26.04 27.837 25 26.401 25H5.599C4.163 25 3 26.04 3 27.323L3.01 28h25.983zM23 16a6 6 0 1 1 0-12 6 6 0 0 1 0 12zm-1-9.705v1.41c0 .164.132.295.295.295h1.41A.295.295 0 0 0 24 7.705v-1.41A.295.295 0 0 0 23.705 6h-1.41a.295.295 0 0 0-.295.295zm0 3.003v4.404c0 .154.132.298.295.298h1.41a.296.296 0 0 0 .295-.298V9.298A.304.304 0 0 0 23.705 9h-1.41a.296.296 0 0 0-.295.298z"/>
</svg>
