<svg version="1.1" xmlns="http://www.w3.org/2000/svg" width="32" height="32">
    <path fill="#656565" d="M15,17c0,1.1,2.9,2,6.5,2s6.5-0.9,6.5-2c0-1.1-2.9-2-6.5-2S15,15.9,15,17z M15,19v2c0,1.1,2.9,2,6.5,2 s6.5-0.9,6.5-2v-2c0,0-2.9,1.6-6.5,1.6S15,19,15,19z M15,23v2c0,1.1,2.9,2,6.5,2s6.5-0.9,6.5-2v-2c0,0-2.9,1.6-6.5,1.6S15,23,15,23z M22,13v-2.9C22,9.5,21.4,9,20.8,9H17V7.6C17,6.1,15.6,5,14.1,5h-2.5C10.1,5,9,6.1,9,7.6V9H5c-0.6,0-1,0.5-1,1.1v9.8 C4,20.5,4.4,21,5,21h8v-4l0-0.9c0.1-2,3.8-3.1,8.4-3.1C21.5,13,21.8,13,22,13z M15,9h-4V7.6C11,7.2,11.2,7,11.6,7h2.5 C14.5,7,15,7.2,15,7.6V9z"/>
</svg>
