<svg version="1.1" xmlns="http://www.w3.org/2000/svg" width="32" height="32">
    <circle fill="#FFF" cx="16" cy="16" r="16"/>
    <path fill="#656565" d="M12,8.5C12,7.9,12.6,7,13.4,7h5.3C19.4,7,20,7.9,20,8.5V10h2V8.5C22,6.9,20.5,5,18.6,5h-5.3 C11.5,5,10,6.9,10,8.5V10h2V8.5z M16,20c4.4,0,8-3.6,8-8c0-0.2,0-0.3,0-0.5c-0.4-0.3-1-0.5-1.9-0.5h-6h-6c-0.9,0-1.5,0.1-1.9,0.4 c0,0.2,0,0.4,0,0.6C8,16.4,11.6,20,16,20z M25.2,16c-1.5,3.5-5.1,6-9.1,6c-4.1,0-7.6-2.5-9.2-6.1L6,23.5C6,24.9,7.1,26,8.5,26H16 h7.5c1.4,0,2.5-1.1,2.5-2.5L25.2,16z"/>
</svg>
