<svg version="1.1" xmlns="http://www.w3.org/2000/svg" width="32" height="32">
    <path fill="#656565" d="M27 7L25 7 25 9 25 22 5 22 5 24 7.5 24 22.5 24 24.9 24 26.9 24 27 24 27 9 30 9 30 7"/>
    <circle fill="#656565" cx="7.5" cy="26.5" r="2.5"/>
    <circle fill="#656565" cx="22.5" cy="26.5" r="2.5"/>
    <path fill="#656565" d="M6.1,20h15.8c0.6,0,1.1-0.5,1.1-1.1V9.1C23,8.5,22.5,8,21.9,8H18V6.6C18,5.1,16.8,4,15.2,4h-2.5 C11.2,4,10,5.1,10,6.6V8H6.1C5.5,8,5,8.5,5,9.1v9.8C5,19.5,5.5,20,6.1,20z M12,6.6C12,6.2,12.3,6,12.8,6h2.5C15.7,6,16,6.2,16,6.6V8 h-4V6.6z"/>
</svg>
