<svg version="1.1" xmlns="http://www.w3.org/2000/svg" width="32" height="32">
    <path fill="#656565" d="M28,14h-1.2c-0.3-1.5-0.9-3-1.8-4.2l0.8-0.8l0-1.4l-1.4-1.4l-1.4,0l-0.8,0.8C21,6.1,19.5,5.5,18,5.2V4 l-1-1h-2l-1,1v1.2c-1.5,0.3-3,0.9-4.2,1.8L8.9,6.1l-1.4,0L6.1,7.5v1.4l0.8,0.8C6.1,11,5.5,12.5,5.2,14L4,14l-1,1v2l1,1h1.2 c0.3,1.5,0.9,3,1.8,4.2l-0.8,0.8v1.4l1.4,1.4h1.4l0.8-0.8c1.2,0.9,2.7,1.5,4.2,1.8V28l1,1h2l1-1v-1.2c1.5-0.3,3-0.9,4.2-1.8 l0.8,0.8h1.4l1.4-1.4v-1.4l-0.8-0.8c0.9-1.2,1.5-2.7,1.8-4.2l1.2,0l1-1v-2L28,14z M24.9,14.9h-5.1c-0.1-0.3-0.2-0.6-0.4-0.9 l3.6-3.6C24,11.7,24.7,13.2,24.9,14.9z M17,7.1c1.7,0.2,3.3,0.9,4.6,1.9L18,12.6c-0.3-0.2-0.6-0.3-1-0.4V7.1z M15,7.1v5.1 c-0.4,0.1-0.7,0.2-1,0.4L10.4,9C11.7,7.9,13.3,7.3,15,7.1z M9,10.4l3.6,3.6c-0.2,0.3-0.3,0.6-0.4,0.9H7.1C7.3,13.2,8,11.6,9,10.4z M9,21.6c-1-1.3-1.7-2.9-1.9-4.6h5.1c0.1,0.4,0.2,0.7,0.4,1L9,21.6z M15,24.9c-1.7-0.2-3.3-0.9-4.6-1.9l3.6-3.6 c0.3,0.2,0.6,0.3,1,0.4V24.9z M16,18c-1.1,0-2-0.9-2-2c0-1.1,0.9-2,2-2s2,0.9,2,2C18,17.1,17.1,18,16,18z M17,24.9v-5.1 c0.4-0.1,0.7-0.2,1-0.4l3.6,3.6C20.3,24.1,18.7,24.7,17,24.9z M23,21.6L19.4,18c0.2-0.3,0.3-0.6,0.4-1h5.1 C24.7,18.7,24.1,20.3,23,21.6z"/>
</svg>
