<svg version="1.1" xmlns="http://www.w3.org/2000/svg" width="32" height="32">
    <path fill="#656565" d="M27.9 19.5c0-1.2-.6-2.2-1.8-2.7l-.5-2.1C25 11.7 23 10 19.1 10c-1 0-2.1 0-3.1 0s-2.2 0-3.1 0c-3.9 0-5.8 1.7-6.5 4.8l-.5 2.1C4.6 17.4 4 18.3 4 19.5c0 1.5 0 2.8 0 4.3 0 .9.6 1.5 1.9 1.5 0 .8 0 1.4 0 2 .1 1.2 1.1 1.9 2.3 1.6.8-.2 1.3-.6 1.3-1.5 0-.6 0-1.4 0-1.4 2 0 4 0 6.3 0 .1 0 .1 0 .1 0s.1 0 .1 0c2.2 0 4.3 0 6.3 0 0 0 0 .8 0 1.4 0 .9.5 1.4 1.3 1.5 1.2.3 2.2-.5 2.3-1.6 0-.6 0-1.2 0-2 1.3 0 1.9-.6 1.9-1.5C27.9 22.3 28 21 27.9 19.5zM7.7 22.1c-.9 0-1.6-.8-1.6-1.8.1-.9.8-1.6 1.8-1.6.9.1 1.6.8 1.6 1.8C9.4 21.4 8.7 22.1 7.7 22.1zM16.1 17H16h-.1H7.6L8 15.4c.5-2.4 2-3.4 4.9-3.4h.4H16h2.7.4c2.9 0 4.3.9 4.9 3.4l.4 1.6H16.1zM24.3 22.1c-1 0-1.7-.6-1.8-1.6 0-1 .6-1.7 1.6-1.8.9-.1 1.7.6 1.8 1.6C25.9 21.3 25.2 22 24.3 22.1zM22 6l-2-1h-3.2c-.4-1.2-1.5-2.1-2.9-2.1-1.7 0-3.1 1.4-3.1 3.1 0 1.7 1.4 3.1 3.1 3.1 1.3 0 2.4-.8 2.9-2H22V6zM13.9 7c-.6 0-1.1-.5-1.1-1.1s.5-1.1 1.1-1.1c.6 0 1.1.5 1.1 1.1S14.5 7 13.9 7z"/>
</svg>
