<svg version="1.1" xmlns="http://www.w3.org/2000/svg" width="32" height="32">
    <path fill="#656565" d="M29.3,23.4c-0.2-0.2-3.3-3.9-8.3-5.6v-1.6c0-0.7-0.6-1.1-1.4-1.1h-1.9l1.1-4.6c0.6-2.5-0.9-5.5-3.4-6.1 L15,4.2c-2.5-0.6-5.2,1.3-5.8,3.9L8.9,8.9c0,0-0.1,0.3-0.1,0.5c0,0.8,0.6,1.5,1.4,1.5c1.4,0.1,1.6-1.3,1.6-1.3L12,8.8 c0-0.2,0.4-1.8,2-1.8C15.1,7,16,7.9,16,8.9c0,0.1,0,0.6-0.1,0.8L14.7,15h-2.3c-0.8,0-1.4,0.4-1.4,1.1v1.6c-5.1,1.6-8.2,5.4-8.4,5.6 c-0.7,0.9-1,2.3-0.1,3.1c0.9,0.8,2.3,0.8,3.4-0.4c0,0,4.5-5.8,9-6c0.2,0,2,0,2.1,0c4.5,0,9,6,9,6c1.1,1.2,2.6,1.2,3.4,0.4 C30.3,25.7,30.1,24.3,29.3,23.4z M22.9,25H9.1C8.5,25,8,25.4,8,26c0,0.6,0.5,1,1.1,1h13.9c0.6,0,1.1-0.4,1.1-1 C24,25.4,23.5,25,22.9,25z"/>
</svg>
