<svg version="1.1" xmlns="http://www.w3.org/2000/svg" width="32" height="32">
    <circle fill="#FFF" cx="16" cy="16" r="16"/>
    <path fill="#656565" d="M18 11c0-2.6-.9-2.6-1.9-3.2C15.6 7.4 15 7 15 5h-1.9c.1 2 .4 3.3 1.6 3.8.5.2 1.6.3 1.4 2.2H18zM11.1 7.8C10.6 7.4 10 7 10 5H8.1c.1 2 .4 3.3 1.6 3.8.5.2 1.6.3 1.4 2.2H13C13 8.4 12.1 8.4 11.1 7.8zM7 25c0 0 1.4 2 8.8 2s9.2-2 9.2-2v-1H7V25zM25 13h-1-3.5H16 8l0 2.2C8 18.7 10.9 23 15 23h1 1c2.7 0 4.8-1.8 6-4h2c1.7 0 3-1.3 3-3S26.7 13 25 13zM25 17h-1.2c.2-.6.2-1.2.2-1.8l0-.2h1c.6 0 1 .4 1 1C26 16.6 25.6 17 25 17z"/>
</svg>
