<svg width="32" height="32" version="1.1" xmlns="http://www.w3.org/2000/svg">
    <path fill="#656565" d="M13.913 13.006l-.565 5.2-3.278.282c-1.922.226-2.088 1.57-2.374 2.43L6 27.74h3.165l1.357-5.694h4.52c2.28 0 3.393-1.157 3.393-3.39v-5.622c0-2.434-2.208-2.244-2.208-2.244s-2.142-.237-2.314 2.217zM16.626 9.426a2.713 2.713 0 1 0 0-5.426 2.713 2.713 0 0 0 0 5.426"/>
    <path fill="#656565" d="M11.625 23.783a6.785 6.785 0 0 0 13.502-.952 6.786 6.786 0 0 0-4.992-6.543v2.888a4.07 4.07 0 0 1-1.792 7.725c-1.92 0-3.53-1.33-3.96-3.118h-2.758z"/>
</svg>
