<svg version="1.1" xmlns="http://www.w3.org/2000/svg" width="32" height="32">
    <circle fill="#FFF" cx="16" cy="16" r="16"/>
    <path fill-rule="evenodd" clip-rule="evenodd" fill="#656565" d="M11.6,21c0.1,2,0.6,4.3,2.4,6.4l1.8-0.5C14,25.1,13.4,23,13.3,21 H11.6z M16.5,20.4c-0.4,1-0.9,2.8-0.8,4.7l1.7,0.4c-0.1-1.7,0.3-3.5,0.7-4.4L16.5,20.4z M14,20.1l-0.8-1.7c2.6-0.4,4.2-2.9,4.2-6.1 c0-3.5-2.4-6.3-5.3-6.3c-2.9,0-5.3,2.8-5.3,6.3c0,3.3,2,5.8,4.6,6.1l-0.8,1.7L14,20.1z M9.2,12c-0.6-0.6-0.3-1.7,0.6-2.6 c0.9-0.9,2.1-1.1,2.6-0.6c0.6,0.6,0.3,1.7-0.6,2.6C10.9,12.3,9.7,12.5,9.2,12z M24,8.3c-2.3-1.2-4.2-0.4-6.1,0.6 c0.3,0.8,0.6,2.3,0.6,3.5c-0.1,2.6-0.8,4.2-2.4,5.9c0.3,0.5,0.8,0.9,1.2,1.2c2.5,1.3,5.8-0.1,7.5-3C26.6,13.5,26.4,9.6,24,8.3z"/>
</svg>
