<svg version="1.1" xmlns="http://www.w3.org/2000/svg" width="32" height="32">
    <path fill="#1093F8" d="M21 22.6L15.3 28.2 16.8 29.7 22.4 24 23.8 25.4 25.9 19.1 19.6 21.2M10.7 10c1.4 0 2.5-1.1 2.5-2.5 0-1.4-1.1-2.5-2.5-2.5C9.4 5 8.2 6.1 8.2 7.5 8.2 8.9 9.4 10 10.7 10z"/>
    <path fill="#1093F8" d="M28,11h-7v0l0,0L9,23H4c-0.5,0-1,0.5-1,1v3c0,0.5,0.5,1,1,1h7v0l0,0l12-12h5c0.5,0,1-0.5,1-1v-3 C29,11.5,28.5,11,28,11z"/>
    <path fill="#1093F8" d="M13,15v-2.8c0-0.7-0.5-1.2-1.2-1.2H9.2C8.5,11,8,11.5,8,12.2V20L13,15z"/>
</svg>
