<svg version="1.1" xmlns="http://www.w3.org/2000/svg" width="32" height="32">
    <path fill="#1093F8" d="M21 25.4L26.7 19.8 25.2 18.3 19.6 24 18.2 22.6 16.1 28.9 22.4 26.8M19 6.6L13.3 12.2 14.8 13.7 20.4 8 21.8 9.4 23.9 3.1 17.6 5.2M9.7 11c1.4 0 2.5-1.1 2.5-2.5 0-1.4-1.1-2.5-2.5-2.5C8.4 6 7.2 7.1 7.2 8.5 7.2 9.9 8.4 11 9.7 11z"/>
    <path fill="#1093F8" d="M28,11h-7v0l0,0L9,23H4c-0.5,0-1,0.5-1,1v3c0,0.5,0.5,1,1,1h7v0l0,0l12-12h5c0.5,0,1-0.5,1-1v-3 C29,11.5,28.5,11,28,11z"/>
    <path fill="#1093F8" d="M12,16v-2.8c0-0.7-0.5-1.2-1.2-1.2H8.2C7.5,12,7,12.5,7,13.2V21L12,16z"/>
</svg>
