<svg version="1.1" xmlns="http://www.w3.org/2000/svg" width="32" height="32">
    <circle fill="#FFF" cx="16" cy="15.9" r="16"/>
    <path fill="#656565" d="M24.5,19H16H7.5C6.7,19,6,19.7,6,20.5V21c0,0,0,4,10,4s10-4,10-4v-0.5C26,19.7,25.3,19,24.5,19z M7.5,13H16 h8.5c0.8,0,1.5-0.7,1.5-1.5V11c0,0,0-4-10-4S6,11,6,11v0.5C6,12.3,6.7,13,7.5,13z M26.7,15.5c-1.4-1.4-4-1.4-5.4,0 c-0.6,0.6-2,0.6-2.6,0c-1.4-1.4-4-1.4-5.4,0c-0.6,0.6-2,0.6-2.6,0c-1.4-1.4-4-1.4-5.4,0c-0.4,0.4-0.4,1,0,1.4c0.4,0.4,1,0.4,1.4,0 c0.6-0.6,2-0.6,2.6,0c1.4,1.4,4,1.4,5.4,0c0.6-0.6,2-0.6,2.6,0c0.7,0.7,1.7,1,2.7,1c1,0,2-0.3,2.7-1c0.6-0.6,2-0.6,2.6,0 c0.4,0.4,1,0.4,1.4,0C27.1,16.5,27.1,15.9,26.7,15.5z"/>
</svg>
