<svg version="1.1" xmlns="http://www.w3.org/2000/svg" width="32" height="32">
    <circle fill="#FFF" cx="16" cy="16" r="16"/>
    <path fill="#656565" d="M11,22c-1.1,0-2,0.9-2,2c0,1.1,0.9,2,2,2s2-0.9,2-2C13,22.9,12.1,22,11,22z M21,22c-1.1,0-2,0.9-2,2 c0,1.1,0.9,2,2,2s2-0.9,2-2C23,22.9,22.1,22,21,22z M16.1,24c-1.1,0-2.1,0.9-2.1,2.1s0.9,2.1,2.1,2.1c1.1,0,2.1-0.9,2.1-2.1 S17.2,24,16.1,24z M16,5.9c-5.5,0-10,4.5-10,10.1c0,2.3,0.8,4.4,2,6l2.5-1.7c-1-1.2-1.5-2.7-1.5-4.4c0-3.9,3.1-7,7-7.1 c4,0,7,3.2,7,7.1c0,1.7-0.6,3.2-1.5,4.4L24,22c1.3-1.7,2-3.8,2-6C26,10.4,22,5.9,16,5.9z"/>
</svg>
