<svg version="1.1" xmlns="http://www.w3.org/2000/svg" width="32" height="32">
    <path fill-rule="evenodd" clip-rule="evenodd" fill="#656565" d="M21.7 5C17.4 5 16 7 16 7S14.3 5 10.3 5C6.1 5 3 7.7 3 14.8c0 .7 1 1.1 1.6 1.1.6 0 1.6-.4 1.6-1.1 0-6.1 1.4-7.6 4.2-7.6C14.3 7.2 16 11 16 11s2.1-3.9 5.7-3.9c2.7 0 4.2 1.5 4.2 7.6 0 1.5 3.1 1.3 3.1 0C29 7.7 25.9 5 21.7 5zM19.6 10c-3 0-3.6 4-3.6 4s-.5-4-4.7-4c-2.6 0-3.1 2-3.1 4 0 2 .5 2.5 1.6 2.5 1 0 1.6-.5 1.6-2.5 0-.9.3-2 1.6-2 2.2 0 2.1 5 2.1 5h2c0 0 .1-5 2.1-5 1.2 0 1.6 1.1 1.6 2 0 2 .5 2.5 1.6 2.5 1 0 1.6-.5 1.6-2.5C23.8 12 22.2 10 19.6 10zM25.5 18H16 6.5C5.7 18 5 18.7 5 19.5S5.7 21 6.5 21H8c.1 3 2 2.9 6 3v2.2c-4 .6-4 2.9-4 2.9h6 6c0 0 0-2.3-4-2.9V24c4 0 6 0 6-3h1.5c.8 0 1.5-.7 1.5-1.5S26.3 18 25.5 18z"/>
</svg>
