<svg version="1.1" xmlns="http://www.w3.org/2000/svg" width="32" height="32">
    <circle fill="#FFF" cx="16" cy="16" r="16"/>
    <path fill="#656565" d="M23 7.5c0-1.8-1.8-3.5-3.5-3.5-1.6 0-3.3 1.5-3.5 6-.2-4.4-1.9-6-3.5-6-1.8 0-3.5 1.8-3.5 3.5 0 3.4 6.3 3.5 7 3.5 0 0 0 0 0 0s0 0 0 0c0 0 0 0 0 0s0 0 0 0C16.7 11 23 10.8 23 7.5zM10.4 7.5c0-1 1.1-2.1 2.1-2.1 1.1 0 1.8 1.6 2.1 4.2C12.6 9.3 10.4 8.6 10.4 7.5zM17.4 9.5c.2-2.6 1-4.2 2.1-4.2 1 0 2.1 1.1 2.1 2.1C21.6 8.6 19.3 9.3 17.4 9.5zM8 25c0 .5.3 1 .9 1H15v-7H8V25zM17 26h6.1c.5 0 .9-.5.9-1v-6h-7V26zM7 13v4h8v-5H7.9C7.3 12 7 12.5 7 13zM24.1 12H17v5h8v-4C25 12.5 24.7 12 24.1 12z"/>
</svg>
