<svg version="1.1" xmlns="http://www.w3.org/2000/svg" width="32" height="32">
    <circle fill="#FFF" cx="16" cy="16" r="16"/>
    <path fill="#656565" d="M27,23.6c-0.1-4.7-1.9-9.5-5.5-13.1C17.9,7,13.3,5.1,8.7,5C7.7,5,7.3,5.3,7.3,6.2c0,0.9,0,1,0,1.6 c0,0.6,0.7,0.9,1,0.9c3.9,0,7.9,1.6,10.9,4.5c2.9,2.9,4.2,6.7,4.2,10.5c0,1,0.1,1.1,1,1.1c0.9,0,1,0,1.4,0 C26.6,24.8,27,24.3,27,23.6z M19.7,23.9c-0.2-3-1.1-6-3.4-8.2c-2.2-2.2-5.1-3.3-7.9-3.4c-0.4,0-1.2,0.2-1.2,1c0,0.8,0,1.1,0,1.8 c0,0.6,0.3,0.9,1,0.9c2,0.1,4.1,0.7,5.6,2.3c1.6,1.6,2.2,3.6,2.2,5.7c0,0.7,0.2,0.9,0.9,0.9c0.6,0,1.3,0,1.9,0 C19.5,24.8,19.8,24.4,19.7,23.9z"/>
    <circle fill="#656565" cx="9" cy="23" r="3"/>
</svg>
