<svg version="1.1" xmlns="http://www.w3.org/2000/svg" width="32" height="32">
    <path fill="#656565" d="M19,2l-2,9h12C28.8,6.5,27.2,2,19,2z M3.9,10.1c-0.5-0.1-1,0.3-1.1,0.9c-0.1,0.5,0.3,1,0.9,1.1 c1.5,0.2,2.5,0.7,3.2,1.3c0.4,4.1,3.3,8.6,10.8,8.6c7.7,0,11-4.8,11.2-9H9.2C8.4,11.8,6.8,10.4,3.9,10.1z M13.7,22.5 c-1.8,0-3.3,1.5-3.3,3.3c0,1.8,1.5,3.3,3.3,3.3c1.8,0,3.3-1.5,3.3-3.3C17,24,15.5,22.5,13.7,22.5z M13.7,26.9 c-0.6,0-1.1-0.5-1.1-1.1c0-0.6,0.5-1.1,1.1-1.1c0.6,0,1.1,0.5,1.1,1.1C14.8,26.4,14.3,26.9,13.7,26.9z M22.7,22.5 c-1.8,0-3.3,1.5-3.3,3.3c0,1.8,1.5,3.3,3.3,3.3c1.8,0,3.3-1.5,3.3-3.3C26,24,24.5,22.5,22.7,22.5z M22.7,26.9 c-0.6,0-1.1-0.5-1.1-1.1c0-0.6,0.5-1.1,1.1-1.1c0.6,0,1.1,0.5,1.1,1.1C23.8,26.4,23.3,26.9,22.7,26.9z"/>
</svg>
