<svg version="1.1" xmlns="http://www.w3.org/2000/svg" width="32" height="32">
    <circle fill="#FFF" cx="16" cy="16" r="16"/>
    <path fill="#656565" d="M16,11.1c2,0,3.6-1.6,3.6-3.6c0-2-1.6-3.6-3.6-3.6s-3.6,1.6-3.6,3.6C12.4,9.5,14,11.1,16,11.1z M25.2,15.3 L20,11c0,0-1.3,2-4,2s-4-2-4-2l-5.2,4.3C6.3,15.6,6,16.1,6,16.8c0,1,0.8,1.7,1.7,1.7c0.2,0,0.5-0.1,0.7-0.1l0,0L11,17l-1.7,8.4 c0,0.1,0,0.2-0.1,0.3l0,0l0,0c0,0.1,0,0.1,0,0.2c0,0.9,0.7,1.6,1.6,1.6c0.6,0,1.1-0.3,1.3-0.7c1-1,2.4-2.8,3.8-2.8s2.8,1.8,3.8,2.8 c0.3,0.4,0.8,0.7,1.3,0.7c0.9,0,1.6-0.7,1.6-1.6c0-0.1,0-0.1,0-0.2l0,0l0,0c0-0.1,0-0.2-0.1-0.3L21,17l2.6,1.4l0,0 c0.2,0.1,0.4,0.1,0.7,0.1c1,0,1.7-0.8,1.7-1.7C26,16.1,25.7,15.6,25.2,15.3z"/>
</svg>
