<svg version="1.1" xmlns="http://www.w3.org/2000/svg" width="32" height="32">
    <path fill="#656565" d="M17.6 5H17h-2-.6C12.5 5 11 6.5 11 8.4V10h2V8.4C13 7.6 13.6 7 14.4 7H15h2 .6C18.4 7 19 7.6 19 8.4V10h2V8.4C21 6.5 19.5 5 17.6 5zM26.5 11H5.5C4.7 11 4 11.7 4 12.5v13.1C4 26.3 4.7 27 5.5 27h21.1c.8 0 1.5-.7 1.5-1.5V12.5C28 11.7 27.3 11 26.5 11zM17 25h-2v-2h2V25zM17.9 19.9C17.3 20.4 17 21 17 22h-2c0-2 .2-2.4 1.5-3.5.6-.5.9-1 .9-1.7 0-1.3-.8-1.7-1.5-1.7-1.3 0-1.6 1.1-1.6 2h-2.1c0-3 2-4 3.6-4 .9 0 3.9.3 3.9 3.7C19.8 18.1 19.1 18.9 17.9 19.9z"/>
</svg>
