<svg version="1.1" xmlns="http://www.w3.org/2000/svg" width="32" height="32">
    <circle fill="#FFF" cx="16" cy="16" r="16"/>
    <path fill="#656565" d="M25.2,15L11.6,7.2c-0.5-0.3-1.1,0.2-1.1,0.8c0,0.3,0,1,0,3H6.8c-1,0-1.8,0.9-1.8,2v5.8C5,20,5.7,21,6.8,21h2 c0.3,0,1,0,1.9,0c4.5,0,14.5,0,14.5,0c1.1,0,1.9-0.4,1.9-2.1v-1.7C27,16.2,27.1,16.1,25.2,15z M14.8,19h-2.4l2.6-6.8l1.9,1.1 L14.8,19z M19.8,19h-2.4l1.7-4.4l1.9,1.1L19.8,19z M27,23c0-0.6-0.4-1-0.9-1H5.9C5.4,22,5,22.4,5,23l0,0c0,0.6,0.4,1,0.9,1h20.2 C26.6,24,27,23.6,27,23L27,23z"/>
</svg>
