<svg version="1.1" xmlns="http://www.w3.org/2000/svg" width="32" height="32">
    <circle fill="#FFF" cx="16" cy="16" r="16"/>
    <path fill="#656565" d="M11.9,14.8c0-2.5-2-4.5-4.4-4.5s-4.4,2-4.4,4.5s2,4.5,4.4,4.5S11.9,17.2,11.9,14.8z M7.5,16.6 c-1,0-1.8-0.8-1.8-1.8c0-1,0.8-1.8,1.8-1.8s1.8,0.8,1.8,1.8C9.2,15.8,8.5,16.6,7.5,16.6z M17.2,15c2.4,0,4.4-2,4.4-4.5 c0-2.5-2-4.5-4.4-4.5c-2.4,0-4.4,2-4.4,4.5C12.8,13,14.7,15,17.2,15z M17.2,8.7c1,0,1.8,0.8,1.8,1.8c0,1-0.8,1.8-1.8,1.8 s-1.8-0.8-1.8-1.8C15.4,9.5,16.2,8.7,17.2,8.7z M25,17h-2v2v2h2l3,1v-3v-3L25,17z M19,23v-1h3v-7h-0.8c-1.1,1-2.5,1.7-4.2,1.7 c-1.3,0-2.6-0.5-3.6-1.2c-0.2,2.2-1.5,4-3.5,4.9V22h5v1h-2l-2,2v1h2l1-1h6l1,1h2v-1l-2-2H19z"/>
</svg>
