<svg version="1.1" xmlns="http://www.w3.org/2000/svg" width="32" height="32">
    <path fill="#656565" d="M16,10.1c2,0,3.5-1.6,3.5-3.5S18,3,16,3s-3.5,1.6-3.5,3.5S14.1,10.1,16,10.1z"/>
    <circle fill="#656565" cx="24.9" cy="22.6" r="1.6"/>
    <path fill="#656565" d="M22,17.7c-0.4,0-1,0.4-1,0.8v2.6l-3.9,0l0.5-1.1c0.2-0.5,0-0.9-0.4-1.2l-2.6-1.5 c-0.5-0.3-1.1-0.1-1.3,0.4c-0.3,0.5-0.1,1.1,0.3,1.4l1.9,1.1l-0.6,1.3c0,0-0.3,0.7-0.3,1c0,1.1,0.7,1.5,1.5,1.5h1.3h3.4h0.6 c0.6,0,1.5-0.3,1.5-0.9v-1.4v-3.3C23,18.1,22.4,17.7,22,17.7z"/>
    <path fill="#656565" d="M18.1 14.6L15.4 13l-1.9-2.7c-.1-.1-.1-.2-.2-.2l-.2-.3c-1.5-1.9-3-1-3.9.2l-4.5 5.2C4.2 15.7 4 16.3 4 17v8.8C4 27.3 5 28 6.5 28S9 27.3 9 25.8V18l3.9-4.2.7.8c.1.1.3.2.4.3l2.9 1.7c.2.1.4.2.6.2.4 0 .8-.2 1-.6C18.9 15.6 18.7 14.9 18.1 14.6zM27 28H13c-.5 0-1-.4-1-1v-1c0-.5.4-1 1-1h14c.5 0 1 .4 1 1v1C28 27.6 27.6 28 27 28z"/>
</svg>
