<svg version="1.1" xmlns="http://www.w3.org/2000/svg" width="32" height="32">
    <circle fill="#FFF" cx="16" cy="16" r="16"/>
    <path fill="#656565" d="M6 23H25V25.2H6z"/>
    <path fill="#656565" d="M14 20H17V28H14z"/>
    <path fill="#656565" d="M14.7,10.4C14.9,10,15,9.5,15,9c0-2.2-1.8-4-4-4C9.1,5,7.6,6.3,7.1,8L5,9c0,0,0,0.2,0,1h2.1 c0.3,1.1,1,2,2,2.5c-0.3,3.3,1,6.2,3.6,7.7c3.3,1.8,7.5,0.7,10.3-2.8c1.9,0.3,3.7,0.6,3.7,0.6l2.2-3L14.7,10.4z M10,9 C9.4,9,9,8.5,9,8c0-0.6,0.5-1,1-1c0.6,0,1,0.5,1,1C11,8.5,10.5,9,10,9z"/>
</svg>
