<svg version="1.1" xmlns="http://www.w3.org/2000/svg" width="32" height="32">
    <path fill="#656565" d="M15.3,28l-0.9-0.9v-0.9h-0.9l-0.9-0.9v-0.9l0.9-0.9l1.2,0.1v-2.9h-2.2L11.7,20v-0.9l0.7-0.6h2.2v-5.1h-2.9 l0,1.3l-0.9,0.9H10l-0.9-0.9v-0.9H8.2l-0.9-0.9V11l0.9-0.9h0.9V9.3L10,8.4h0.9l0.9,0.9l0,1.1h2.9V7.4l-1.2,0.1l-0.9-0.9V5.7l0.9-0.9 h0.9V3.9L15.3,3H17l0.9,0.9v0.9h0.9l0.9,0.9v0.9l-0.9,0.9l-1.2-0.1v2.9h2.9l0-1.1l0.9-0.9h0.9l0.9,0.9v0.9h0.9L25,11v1.8l-0.9,0.9 h-0.9v0.9l-0.9,0.9h-0.9l-0.9-0.9l0-1.3h-2.9v5.1h2.2l0.7,0.6V20l-0.7,0.7h-2.2v2.9l1.2-0.1l0.9,0.9v0.9l-0.9,0.9h-0.9v0.9L17,28 H15.3z"/>
</svg>
