<svg version="1.1" xmlns="http://www.w3.org/2000/svg" width="32" height="32">
    <path fill="#656565" d="M15.1,5.9c5.6,0,10.1,4.5,10.1,10.1S20.6,26,15.1,26C9.5,26,5,21.5,5,15.9S9.5,5.9,15.1,5.9 M15.1,2.9 C7.9,2.9,2,8.7,2,15.9S7.9,29,15.1,29c7.2,0,13.1-5.9,13.1-13.1S22.3,2.9,15.1,2.9L15.1,2.9z"/>
    <path transform="rotate(45 24.786 6.34)" fill="#656565" d="M21.3 3.8H28.200000000000003V8.899999999999999H21.3z"/>
    <path fill="#656565" d="M3.1 15H7V17H3.1zM23 15H26.9V17H23zM14 24H16V27.9H14zM14 4.1H16V8H14zM15.8 10H15h-.6H12v12h2 1v-4h.8c2.3 0 4.2-1.7 4.2-4S18.1 10 15.8 10zM15.8 15H15v-2h.8c.8 0 1.5.2 1.5 1S16.6 15 15.8 15z"/>
</svg>
