<svg version="1.1" xmlns="http://www.w3.org/2000/svg" width="32" height="32">
    <path fill="#656565" d="M21.6 6.2l-1.6.6c.6 1.1 1.8 3.9-1.3 6.7l1.3 1.1c1.5-1.4 2.3-2.9 2.4-4.5C22.6 8.5 22 7.1 21.6 6.2zM24.8 5l-1.6.6c.7 1.3 2.7 5.8-1.8 10.3l1.3 1.1C27.6 12.1 25.8 6.9 24.8 5zM14.9 21.1c-1.1 0-1.9.4-2.3.6-.3-.2-1.1-.7-1.1-4.7 0-4 .8-4.5 1.1-4.7.3.2 1.1.6 2.3.6.9 0 1.8-.3 1.8-.3L18 6.9c0 0-1.6-.9-3.3-.9h-.2c-6.4 0-6.6 8-6.7 11 0 3 .2 11 6.7 11h.2c1.6 0 3.3-.9 3.3-.9l-1.3-5.6C16.7 21.4 15.7 21.1 14.9 21.1z"/>
</svg>
