<svg version="1.1" xmlns="http://www.w3.org/2000/svg" width="32" height="32">
    <circle fill="#FFF" cx="16" cy="16" r="16"/>
    <circle fill="#FFF" cx="16" cy="16" r="16"/>
    <path fill="#656565" d="M7,13h18c0.5,0,1-0.5,1-1s-0.5-1-1-1h-5v-0.2C20,9.3,18.7,8,17,8h-2c-1.7,0-3,1.3-3,2.8V11H7 c-0.5,0-1,0.5-1,1S6.5,13,7,13z M14,10.8c0-0.7,0.5-0.8,1.2-0.8h1.6c0.7,0,1.2,0.2,1.2,0.8V11h-4V10.8z M24.5,14h-17 C6.7,14,6,14.7,6,15.5v0.1c0,0.7,0.4,1.2,1,1.4c0.5,3,1.1,6.8,1.3,7.7c0.3,1.5,1.9,1.3,1.9,1.3h11.5c0,0,1.6,0.2,1.9-1.3 c0.2-0.8,0.8-4.7,1.3-7.7c0.6-0.2,1-0.8,1-1.4v-0.1C26,14.7,25.3,14,24.5,14z"/>
</svg>
