<svg version="1.1" xmlns="http://www.w3.org/2000/svg" width="32" height="32">
    <circle fill="#FFF" cx="16" cy="16" r="16"/>
    <path fill="#656565" d="M21.7,6.2c-1.1,1-2.9,2.6-2.9,6.2s3.6,5.5,3.6,5.5s-1.2,2.8-1.8,6.2c-0.5,3.1,1,3.7,2,3.7 c0.9,0,1.6-0.4,1.6-1.4V6.7C24.1,4.8,22.8,5.2,21.7,6.2z M16,6.2c-0.5,0-0.9,0.3-0.9,0.7v3.7v1.5c0,0.4-0.4,0.7-0.9,0.7 s-0.9-0.3-0.9-0.7v-1.5V6.9c0-0.4-0.4-0.7-0.9-0.7s-0.9,0.3-0.9,0.7v3.7v1.5c0,0.4-0.4,0.7-0.9,0.7c-0.5,0-0.9-0.3-0.9-0.7v-1.4 v-0.1V6.9c0-0.4-0.4-0.7-0.9-0.7c-0.5,0-0.9,0.3-0.9,0.7v5.2c0,0,0,0,0,0c0,0,0,0,0,0.1v2.9C7.9,16,8.7,17,9.7,17h1.4l-0.7,8.5 c0,1.3,0.8,2.3,1.7,2.3h0.6c0.9,0,1.7-1,1.7-2.3L13.8,17h1.3c1,0,1.8-1,1.8-1.8v-2.9c0,0,0,0,0-0.1c0,0,0,0,0,0V6.9 C16.9,6.5,16.5,6.2,16,6.2z"/>
</svg>
