<svg version="1.1" xmlns="http://www.w3.org/2000/svg" width="32" height="32">
    <path fill="#656565" d="M13,8.4C13,7.6,13.6,7,14.4,7H15h2h0.6C18.4,7,19,7.6,19,8.4V10h2V8.4C21,6.5,19.5,5,17.6,5H17h-2h-0.6 C12.5,5,11,6.5,11,8.4V10h2V8.4z M26.5,11H5.5C4.7,11,4,11.7,4,12.5v13.1C4,26.3,4.7,27,5.5,27h21.1c0.8,0,1.5-0.7,1.5-1.5V12.5 C28,11.7,27.3,11,26.5,11z M24,21h-7.2c-0.6,1.5-2.1,2.5-3.7,2.5c-2.2,0-4.1-1.8-4.1-4.1s1.8-4.1,4.1-4.1c1.7,0,3.2,1.1,3.8,2.6H22 l2,1V21z M12.1,18.1c-0.7,0-1.3,0.6-1.3,1.3c0,0.7,0.6,1.3,1.3,1.3c0.7,0,1.3-0.6,1.3-1.3C13.4,18.7,12.8,18.1,12.1,18.1z"/>
</svg>
