<svg version="1.1" xmlns="http://www.w3.org/2000/svg" width="32" height="32">
    <path fill="#656565" d="M16.7,4c0,0.4,0,0.9,0,1.3c0.1,0,0.2,0.1,0.3,0.1c1.6,0.4,2.5,1.5,2.4,3.1c-0.1,1.4-1.3,2.5-2.8,2.7 c-1.6,0.2-1.6,0.2-1.2,1.7c0.4,1.5-0.6,2.7-2.1,2.7c-1.3,0-2.6,0-3.9,0c-2,0.1-3.4,1.1-3.7,2.8c-0.1,0.9,0,1.8,0,2.7 c0.4,0,0.9,0,1.4,0c0-0.6,0-1.1,0-1.7c0-1.5,0.7-2.3,2.3-2.3c1.2,0,2.4-0.1,3.6,0c2.8,0.1,4-2,3.8-3.9c0-0.1,0-0.3,0-0.5 c1.5-0.3,2.8-1,3.6-2.4c0.5-1,0.6-2,0.3-3C20.3,5.2,18.5,3.8,16.7,4z"/>
    <path fill="#656565" d="M3.3,21c0.6,0,1,0,1.6,0c0-0.9,0-1.7,0-2.6c0-1.3,0.4-2.4,1.2-3.3c0.8-1,1.9-1.5,3.2-1.5c0.8,0,1.6,0,2.4,0 c0.7,0,1-0.6,0.7-1.2c-0.2-0.3-0.4-0.6-0.5-1c-0.8-2,0.2-4,2.4-4.5c0.2-0.1,0.5-0.1,0.8-0.1c0-0.4,0-0.9,0-1.3 c-1.3-0.3-3.3,0.7-4.2,2c-1,1.4-0.9,3-0.4,4.6c-0.6,0-1.2,0-1.8,0.1c-2.8,0.4-4.9,2.4-5.3,5.1C3.4,18.5,3.4,19.7,3.3,21z"/>
    <path fill="#656565" d="M7.1 23c-1.3 0-2.7 0-4.2 0 0 1.3 0 2.6 0 4 1.3 0 2.7 0 4.2 0C7.1 25.7 7.1 24.4 7.1 23zM29 23c-6.4 0-12.8 0-20 0 0 1.3 0 2.6 0 4 6.3 0 12.8 0 20 0C29 25.7 29 24.4 29 23z"/>
</svg>
