<svg version="1.1" xmlns="http://www.w3.org/2000/svg" width="32" height="32">
    <circle fill="#FFF" cx="16" cy="16" r="16"/>
    <path fill="#656565" d="M24.7,16.8c-0.8,0-3.4,0.2-5.4,2.1c-1.5,1.4-2.3,3.5-2.4,6.1c4.3-0.5,7.7-3.9,8-8.2L24.7,16.8z M14.3,7.7 c0-0.2,0-0.3,0-0.5C10.1,8,6.9,11.6,6.9,16c0,0.2,0,0.5,0,0.7c1.1-0.1,3.2-0.5,4.9-2.1C13.5,13.1,14.3,10.7,14.3,7.7z M24.9,15 c-0.5-4.5-4.3-7.9-8.9-8c0,0.2,0,0.4,0,0.7c0,3.6-1,6.4-3,8.3c-2,1.9-4.4,2.4-5.8,2.6c1,3.5,4.1,6.2,7.9,6.5c0.2-3.2,1.1-5.7,3-7.4 C20.8,15.1,24.3,15,24.9,15z"/>
</svg>
