<svg version="1.1" xmlns="http://www.w3.org/2000/svg" width="32" height="32">
    <path fill="#656565" d="M25.6,13.9c1.4-0.3,2.4-1.5,2.4-2.9c0-1.7-1.4-3-3-3c-1.6,0-3,1.3-3,3c0,1.2,0.7,2.1,1.6,2.6 c-0.4,3.9-3.7,7.1-7.7,7.1c-3.9,0-7.2-3.1-7.7-6.9C9.2,13.3,10,12.3,10,11c0-1.7-1.3-3-3-3s-3,1.3-3,3c0,1.4,1,2.5,2.2,2.9 c0.5,4.6,3.8,8.3,8.8,8.9V25c0,0-2.5,0-4,0c-1.5,0-2,3-2,3H23c0,0-0.6-3-2-3c-1.4,0-4,0-4,0v-2.3C22,22.2,25,18.5,25.6,13.9z"/>
    <path fill="#656565" d="M17.3,3h-2.6C13.2,3,12,4.2,12,5.7v9.6c0,1.5,1.2,2.7,2.7,2.7h2.6c1.5,0,2.7-1.2,2.7-2.7V5.7 C20,4.2,18.8,3,17.3,3z M18,12h-4v-2h4V12z M18,8h-4V6h4V8z"/>
</svg>
