<svg version="1.1" xmlns="http://www.w3.org/2000/svg" width="32" height="32">
    <path fill="#656565" d="M27.9,18.6c0-1.2-0.6-2.2-1.8-2.7l-0.5-2.1C25,10.7,23,9,19.1,9c-1,0-2.1,0-3.1,0s-2.2,0-3.1,0 C8.9,9,7,10.7,6.3,13.8L5.9,16C4.6,16.5,4,17.4,4,18.6c0,1.5,0,2.8,0,4.3c0,0.9,0.6,1.5,1.9,1.5c0,0.8,0,1.4,0,2 C6,27.6,7.1,28.3,8.3,28c0.8-0.2,1.3-0.7,1.3-1.6c0-0.6,0-1.5,0-1.5c2,0,4,0,6.3,0c0.1,0,0.1,0,0.1,0s0.1,0,0.1,0c2.2,0,4.3,0,6.3,0 c0,0,0,0.9,0,1.5c0,0.9,0.5,1.4,1.3,1.6c1.2,0.3,2.2-0.5,2.3-1.6c0-0.6,0-1.2,0-2c1.3,0,1.9-0.6,1.9-1.5 C27.9,21.4,28,20.1,27.9,18.6z M7.7,21.2c-0.9,0-1.6-0.8-1.6-1.8c0.1-0.9,0.8-1.6,1.8-1.6c0.9,0.1,1.6,0.8,1.6,1.8 C9.4,20.6,8.7,21.2,7.7,21.2z M16.1,16H16h-0.1H7.6L8,14.4c0.5-2.4,2-3.4,4.9-3.4h0.4H16h2.7h0.4c2.9,0,4.3,0.9,4.9,3.4l0.4,1.6 H16.1z M24.3,21.2c-1,0-1.7-0.6-1.8-1.6c0-1,0.6-1.7,1.6-1.8c0.9-0.1,1.7,0.6,1.8,1.6C25.9,20.4,25.2,21.2,24.3,21.2z"/>
    <path fill="#656565" d="M21,10V6.4C21,5.5,20.3,5,19.5,5h-6.1C12.5,5,12,5.5,12,6.4V10H21z"/>
</svg>
