<svg version="1.1" xmlns="http://www.w3.org/2000/svg" width="32" height="32">
    <path fill="#656565" d="M5 14c1.7 0 3-1.3 3-3 0-1.7-1.3-3-3-3s-3 1.3-3 3C2 12.7 3.3 14 5 14zM24 16L23.3 19 19 19 17 25 20 25 21 22 23 22 23 22 27 22 27 16M14.1 27L17.1 16 9 16 12 27"/>
    <circle fill="#656565" cx="13" cy="11" r="3"/>
    <circle fill="#656565" cx="25" cy="11" r="3"/>
    <path fill="#656565" d="M28 17.4v2.4c.6.5 1 1.3 1 2.2 0 1.7-1.3 3-3 3-1.3 0-2.4-.8-2.8-2h-2.1c.5 2.3 2.5 4 4.9 4 2.8 0 5-2.2 5-5C31 20 29.8 18.2 28 17.4zM4 16L1 27 9.1 27 6 16"/>
</svg>
