<svg version="1.1" xmlns="http://www.w3.org/2000/svg" width="32" height="32">
    <circle fill="#FFF" cx="16" cy="16" r="16"/>
    <path fill="#656565" d="M23.3,13.8C24.2,13.9,26,14,26,14l1-2.6c0,0-1.5-0.3-1.9-0.4c-0.8-0.2-1.1-0.5-1.2-1.4 c-0.2-2.4-1.3-3.8-3.2-4.3c-2.4-0.6-4.6,0.1-6,2c-1.2,1.7-1.2,4.1-0.1,6C15,13.7,16,15,16,15s-2.7,0.3-4.9,0c-2.1-0.4-4-4-4-4 s-0.5,0.7-0.7,1C4.8,15.2,2.7,23,11.1,25.6c1.1,0.3,2.5,0.5,4.2,0.5c5.9,0,8.6-1.5,8.6-6.1c0-0.2,0-0.4-0.1-0.6 c-0.2-1.4-0.9-2.6-1.9-3.5c-0.3-0.4-1-1-1-1S21.6,13.8,23.3,13.8z M21,10.9c-0.6,0-1-0.4-1-1c0-0.6,0.4-1,1-1c0.6,0,1,0.4,1,1 C22,10.4,21.6,10.9,21,10.9z"/>
</svg>
