<svg version="1.1" xmlns="http://www.w3.org/2000/svg" width="32" height="32">
    <path fill="#656565" d="M28.9,2h-0.1h-1H4.3H3.1C2.5,2,2,2.5,2,3.1v1.2v23.5v1.2C2,29.5,2.5,30,3.1,30h1.2h23.5h1.2 c0.6,0,1.1-0.5,1.1-1.1v-1.2V3.1C30,2.5,29.5,2,28.9,2z M27,27H5V5h22V27z"/>
    <path fill="#656565" d="M15.4 12H17.4V21H15.4zM19 12H21V21H19zM12 21L10 21 13 12 15 12"/>
    <path fill="#656565" d="M9.9 21L11.9 21 9 12 7 12M22 12h-1v2h1c.6 0 1 .4 1 1s-.4 1-1 1h-1v2h1c1.7 0 3-1.3 3-3S23.7 12 22 12z"/>
</svg>
