<svg width="32" height="32" version="1.1" xmlns="http://www.w3.org/2000/svg">
    <path fill="#656565" d="M11.5 9a2.5 2.5 0 1 0 0-5 2.5 2.5 0 0 0 0 5M10 13c-.546-3.33 4.189-4.163 5-1l1.5 6 5.011.313C23.116 18.466 24 19.424 24 21v8h-3v-7l-6.955.013c-1.526 0-2.25-1.076-2.49-2.216L10 13z"/>
    <path fill="#656565" d="M17.378 23.136c1.51 0 1.482 2.364 0 2.364h-4.23c-2.03 0-4.383-1.673-4.913-4.188l-1.712-7.384c-.263-1.532 1.802-2.042 2.107-.474l1.726 7.19c.513 1.669 2.014 2.492 3.396 2.492h3.626z"/>
</svg>
